<svg xmlns="http://www.w3.org/2000/svg">
<defs>
<font id="BebasNeuePro-BookItalic" horiz-adv-x="819" >
  <font-face 
    font-family="Bebas Neue Pro Book"
    font-weight="350"
    font-style="italic"
    font-stretch="normal"
    units-per-em="2048"
    panose-1="2 11 4 6 2 2 2 12 2 1"
    ascent="1661"
    descent="-387"
    x-height="1016"
    cap-height="1434"
    bbox="-434 -438 1655 1847"
    underline-thickness="81"
    underline-position="-244"
    slope="-12"
    unicode-range="U+000D-FB02"
  />
<missing-glyph horiz-adv-x="1511" 
d="M154 0v1434h1290v-1434h-1290zM354 274h889v885h-889v-885zM387 1126h234v-229h-234v229zM752 799h-66v32h-33v164h66v66h-66v65h33v-32h66v-33h32v33h-32v32h65v-32h33v32h33v-65h32v-33h-32v-65h-33v-33h-33v98h-65v-33h32v-65h-32v33h-66v-99h33v66h33v-33h32v33h33
v-66h-65v-65zM915 1126h33v-65h-33v65zM981 1126h229v-229h-229v229zM420 930h168v164h-168v-164zM1014 930h164v164h-164v-164zM453 1061h102v-98h-102v98zM1047 1061h98v-98h-98v98zM883 930v-66h-33v66h33zM948 897h-33v33h33v-33zM453 831v-32h34v-33h-67v33h-33v65h100
v-33h-34zM621 864v-33h-33v-32h-66v32h33v33h66zM915 799v-33h-32v98h32v-33h33v-32h-33zM948 799h33v32h-33v33h131v-33h-32v-32h32v32h33v-32h33v-33h-33v-33h-65v33h-66v-33h-33v66zM1210 766h-32v33h-33v65h65v-98zM621 831h32v-65h-65v33h33v32zM817 831h33v-32h-33v32
zM784 799v-33h-32v33h32zM487 733v33h35v-33h-35zM588 733h65v-33h-131v33h33v33h33v-33zM686 668v98h33v-98h-33zM883 733h-33v33h33v-33zM387 733h33v-65h-33v65zM883 700h98v33h66v-65h98v-33h-98v-33h32v-65h33v-33h-33v-33h33v-33h66v-32h32v-33h-65v33h-66v-66h-65
v-33h-33v33h-33v-33h-33v66h-32v-66h-66v33h33v33h-33v-33h-65v33h32v65h-32v-32h-33v65h98v33h33v-66h-33v-32h66v98h32v33h-32v32h-33v-32h-33v65h33v33h33v-33h32v33h-32v65zM817 635v-33h-65v33h32v65h-32v33h65v-33h33v-65h-33zM1210 635h-32v33h-33v32h33v33h32v-98z

<glyph glyph-name="fi" unicode="fi" horiz-adv-x="845" 
d="M600 1016l-18 -80h-213l-201 -936h-94l200 936h-141l19 80h139l53 246q43 192 209 192q87 0 137 -33l-16 -80q-57 31 -119 31q-51 0 -79 -29.5t-42 -95.5l-49 -231h215zM784 1182l43 204h93l-43 -204h-93zM627 0h-95l218 1016h94z" />
    <glyph glyph-name="fl" unicode="fl" horiz-adv-x="845" 
d="M600 1016l-18 -80h-213l-201 -936h-94l200 936h-141l19 80h139l53 246q43 192 209 192q87 0 137 -33l-16 -80q-57 31 -119 31q-51 0 -79 -29.5t-42 -95.5l-49 -231h215zM532 0l306 1434h94l-305 -1434h-95z" />
    <glyph glyph-name=".notdef" horiz-adv-x="1511" 
d="M154 0v1434h1290v-1434h-1290zM354 274h889v885h-889v-885zM387 1126h234v-229h-234v229zM752 799h-66v32h-33v164h66v66h-66v65h33v-32h66v-33h32v33h-32v32h65v-32h33v32h33v-65h32v-33h-32v-65h-33v-33h-33v98h-65v-33h32v-65h-32v33h-66v-99h33v66h33v-33h32v33h33
v-66h-65v-65zM915 1126h33v-65h-33v65zM981 1126h229v-229h-229v229zM420 930h168v164h-168v-164zM1014 930h164v164h-164v-164zM453 1061h102v-98h-102v98zM1047 1061h98v-98h-98v98zM883 930v-66h-33v66h33zM948 897h-33v33h33v-33zM453 831v-32h34v-33h-67v33h-33v65h100
v-33h-34zM621 864v-33h-33v-32h-66v32h33v33h66zM915 799v-33h-32v98h32v-33h33v-32h-33zM948 799h33v32h-33v33h131v-33h-32v-32h32v32h33v-32h33v-33h-33v-33h-65v33h-66v-33h-33v66zM1210 766h-32v33h-33v65h65v-98zM621 831h32v-65h-65v33h33v32zM817 831h33v-32h-33v32
zM784 799v-33h-32v33h32zM487 733v33h35v-33h-35zM588 733h65v-33h-131v33h33v33h33v-33zM686 668v98h33v-98h-33zM883 733h-33v33h33v-33zM387 733h33v-65h-33v65zM883 700h98v33h66v-65h98v-33h-98v-33h32v-65h33v-33h-33v-33h33v-33h66v-32h32v-33h-65v33h-66v-66h-65
v-33h-33v33h-33v-33h-33v66h-32v-66h-66v33h33v33h-33v-33h-65v33h32v65h-32v-32h-33v65h98v33h33v-66h-33v-32h66v98h32v33h-32v32h-33v-32h-33v65h33v33h33v-33h32v33h-32v65zM817 635v-33h-65v33h32v65h-32v33h65v-33h33v-65h-33zM1210 635h-32v33h-33v32h33v33h32v-98z
M522 602h-35v33h-34v33h34v32h35v-65h33v-66h-33v33zM653 668v-66h33v-65h-33v32h-65v33h33v33h-66v33h98zM719 668h33v-33h-33v33zM387 635h66v-33h-66v33zM686 635h33v-33h-33v33zM981 635h-33v-33h33v33zM487 569h-34v33h34v-33zM752 569h-33v33h33v-33zM1145 602h33v-33
h-33v33zM948 471h99v98h-99v-98zM1112 569h33v-32h-33v32zM1145 471v33h33v65h32v-131h-32v33h-33zM387 537h234v-230h-234v230zM686 504v33h33v-66h-66v33h33zM784 504h-32v33h32v-33zM981 537h33v-33h-33v33zM420 340h168v164h-168v-164zM453 471h102v-98h-102v98z
M915 406h33v32h-33v-32zM981 373h66v65h-66v-65zM653 406h66v-66h33v-33h-99v99zM1112 340v-33h-33v33h33zM1210 307h-32v33h32v-33z" />
    <glyph glyph-name=".null" horiz-adv-x="0" 
 />
    <glyph glyph-name="nonmarkingreturn" horiz-adv-x="682" 
 />
    <glyph glyph-name="CR" unicode="&#xd;" horiz-adv-x="339" 
 />
    <glyph glyph-name="space" unicode=" " horiz-adv-x="339" 
 />
    <glyph glyph-name="exclam" unicode="!" horiz-adv-x="372" 
d="M188 340h-71l61 346l158 750h96l-158 -750zM127 0h-98l41 186h98z" />
    <glyph glyph-name="quotedbl" unicode="&#x22;" horiz-adv-x="522" 
d="M303 1063h-53l55 371h98zM510 1063h-53l55 371h98z" />
    <glyph glyph-name="numbersign" unicode="#" 
d="M109 0h-80l143 455h-131l22 71h134l145 463h-133l20 72h136l116 375h80l-115 -375h236l119 375h80l-117 -375h123l-23 -72h-123l-145 -463h121l-21 -71h-123l-145 -455h-80l144 455h-238zM422 989l-146 -463h240l143 463h-237z" />
    <glyph glyph-name="dollar" unicode="$" 
d="M672 1526l-27 -123q98 -19 150.5 -81t52.5 -159q0 -32 -10 -90l-11 -47l-88 8l11 53q6 34 6 62q0 138 -129 168l-123 -576q103 -103 146.5 -181.5t43.5 -162.5q0 -159 -94 -266q-92 -105 -248 -108l-28 -136h-80l28 142q-104 17 -160.5 80t-56.5 161q0 40 11 90l18 80
l90 -6l-18 -90q-6 -34 -6 -61q0 -144 141 -168l125 583q-104 104 -149.5 186t-45.5 167q0 155 94 256q94 104 246 104h6l25 115h80zM438 809l111 516q-106 -3 -168 -80t-62 -188q0 -114 119 -248zM596 389q0 112 -115 242l-112 -522q107 6 167 83t60 197z" />
    <glyph glyph-name="percent" unicode="%" horiz-adv-x="1181" 
d="M336 659q-199 0 -199 175q0 38 8 69l74 350q20 97 76 149t141 52q96 0 147.5 -46t51.5 -128q0 -39 -8 -70l-74 -350q-41 -201 -217 -201zM244 0h-80l866 1434h78zM336 731q112 0 139 131l76 363q6 27 6 49q0 108 -121 108q-112 0 -139 -131l-74 -362q-6 -27 -6 -51
q0 -107 119 -107zM834 -23q-199 0 -199 175q0 38 8 69l74 350q20 97 76 149t141 52q96 0 147.5 -46t51.5 -128q0 -36 -9 -70l-73 -350q-41 -201 -217 -201zM834 49q112 0 139 131l76 363q6 27 6 49q0 108 -121 108q-112 0 -139 -131l-74 -362q-6 -27 -6 -51q0 -107 119 -107
z" />
    <glyph glyph-name="ampersand" unicode="&#x26;" horiz-adv-x="837" 
d="M834 1075h-89q13 67 13 107q0 188 -201 188q-186 0 -238 -229l-28 -131q-8 -31 -8 -70q0 -162 178 -162h373l-19 -84h-59l-94 -440q-39 -184 -35 -254h-82q-3 53 12 133q-99 -153 -272 -153q-121 0 -184.5 57t-63.5 166q0 30 10 92l33 160q49 228 242 280v4
q-127 44 -127 203q0 47 10 92l24 113q67 307 328 307q137 0 215 -66t78 -188q0 -50 -16 -125zM662 694h-213q-107 0 -179 -64t-98 -184l-33 -149q-8 -31 -8 -74q0 -79 44.5 -121.5t131.5 -42.5q89 0 161.5 60.5t104.5 163.5z" />
    <glyph glyph-name="quotesingle" unicode="'" horiz-adv-x="315" 
d="M303 1063h-55l57 371h98z" />
    <glyph glyph-name="parenleft" unicode="(" horiz-adv-x="524" 
d="M299 -205h-49q-223 0 -223 187q0 46 10 94l231 1085q30 140 104.5 206.5t217.5 66.5h57l-16 -78h-43q-183 0 -230 -203l-231 -1085q-8 -31 -8 -74q0 -62 34 -91.5t111 -29.5h51z" />
    <glyph glyph-name="parenright" unicode=")" horiz-adv-x="524" 
d="M-23 -205h-53l17 78h41q187 0 231 203l231 1085q9 41 9 74q0 121 -148 121h-49l16 78h45q230 0 230 -187q0 -41 -12 -94l-232 -1085q-30 -140 -105.5 -206.5t-220.5 -66.5z" />
    <glyph glyph-name="asterisk" unicode="*" horiz-adv-x="796" 
d="M520 1051l-201 -258l-61 45l223 241l-286 74l34 76l277 -105l26 310h80l-59 -310l301 101l14 -76l-307 -70l156 -239l-68 -47z" />
    <glyph glyph-name="plus" unicode="+" 
d="M475 268h-86v305h-299v84h299v304h86v-304h299v-84h-299v-305z" />
    <glyph glyph-name="comma" unicode="," horiz-adv-x="339" 
d="M-2 -197h-47l98 197h-37l41 186h99l-37 -178z" />
    <glyph glyph-name="hyphen" unicode="-" horiz-adv-x="532" 
d="M475 575h-389l16 78h390z" />
    <glyph glyph-name="period" unicode="." horiz-adv-x="339" 
d="M111 0h-99l41 186h99z" />
    <glyph glyph-name="slash" unicode="/" horiz-adv-x="735" 
d="M-20 -205h-89l914 1639h88z" />
    <glyph glyph-name="zero" unicode="0" 
d="M346 -20q-146 0 -224.5 70.5t-78.5 199.5q0 48 12 106l168 787q68 311 334 311q148 0 226.5 -70t78.5 -200q0 -48 -12 -107l-166 -788q-64 -309 -338 -309zM354 66q188 0 234 227l170 801q10 58 10 84q0 92 -54.5 141t-158.5 49q-190 0 -236 -229l-172 -799
q-10 -58 -10 -84q0 -190 217 -190z" />
    <glyph glyph-name="one" unicode="1" horiz-adv-x="536" 
d="M303 0h-96l268 1247q-93 -81 -274 -90l10 78q213 15 324 199h75z" />
    <glyph glyph-name="two" unicode="2" horiz-adv-x="751" 
d="M571 0h-616l29 127q40 181 135 301q102 124 268 250q163 123 236.5 209t97.5 196q10 62 10 93q0 192 -203 192q-192 0 -241 -231l-27 -125h-90l29 129q67 313 336 313q148 0 220 -70.5t72 -197.5q0 -52 -12 -111q-28 -124 -114 -229.5t-255 -235.5q-162 -125 -249 -225
q-89 -103 -115 -240l-12 -59h520z" />
    <glyph glyph-name="three" unicode="3" horiz-adv-x="774" 
d="M317 -20q-152 0 -227.5 70t-75.5 196q0 45 13 108l14 68h92l-18 -82q-11 -64 -11 -86q0 -188 213 -188q189 0 242 237l35 164q8 36 8 78q0 160 -174 160h-98l20 88h92q104 0 177.5 63.5t93.5 177.5l10 56q8 36 8 81q0 197 -205 197q-179 0 -231 -227l-23 -99h-92l23 101
q68 311 327 311q145 0 222 -71.5t77 -196.5q0 -52 -12 -107l-8 -37q-56 -250 -240 -290v-2q129 -46 129 -205q0 -28 -10 -86l-37 -170q-64 -309 -334 -309z" />
    <glyph glyph-name="four" unicode="4" horiz-adv-x="811" 
d="M535 0h-97l68 317h-498l19 89l700 1028h113l-219 -1031h122l-18 -86h-123zM709 1266l-586 -863h401z" />
    <glyph glyph-name="five" unicode="5" horiz-adv-x="776" 
d="M330 -20q-143 0 -223 68.5t-80 197.5q0 52 12 110l12 52h90l-14 -66q-10 -52 -10 -84q0 -95 57 -143.5t158 -48.5q186 0 235 229l62 293q10 52 10 98q0 176 -184 176q-79 0 -136.5 -45t-107.5 -143h-92l205 760h544l-18 -86h-457l-145 -521q109 121 246 121
q117 0 181 -63t64 -180q0 -61 -14 -121l-61 -293q-31 -150 -116 -230.5t-218 -80.5z" />
    <glyph glyph-name="six" unicode="6" horiz-adv-x="802" 
d="M344 -20q-147 0 -224 68.5t-77 197.5q0 50 12 108l168 785q70 315 334 315q142 0 220.5 -68.5t78.5 -197.5q0 -53 -10 -105h-92q12 55 12 99q0 186 -209 186q-189 0 -242 -244l-77 -370q89 133 254 133q124 0 191 -63t67 -181q0 -47 -15 -117l-51 -237
q-32 -152 -119 -230.5t-221 -78.5zM348 66q191 0 240 227l51 237q10 62 10 91q0 180 -190 180q-96 0 -167.5 -69t-96.5 -181l-48 -213q-10 -58 -10 -86q0 -186 211 -186z" />
    <glyph glyph-name="seven" unicode="7" horiz-adv-x="729" 
d="M139 0h-106l725 1348h-535l19 86h635l-19 -86z" />
    <glyph glyph-name="eight" unicode="8" horiz-adv-x="811" 
d="M338 -20q-141 0 -224 71.5t-83 200.5q0 48 12 104l27 138q49 225 237 266v2q-119 61 -119 209q0 22 11 90l20 90q67 303 344 303q141 0 220 -68t79 -194q0 -48 -12 -107l-19 -90q-49 -220 -229 -266h-2q129 -58 129 -215q0 -48 -8 -84l-31 -141q-64 -309 -352 -309z
M492 782q195 0 241 205l25 111q10 52 10 84q0 89 -56.5 137.5t-152.5 48.5q-199 0 -246 -225l-24 -109q-8 -44 -8 -71q0 -88 57.5 -134.5t153.5 -46.5zM344 66q202 0 254 237l31 143q6 35 6 66q0 93 -60 139.5t-163 46.5q-199 0 -246 -206l-29 -142q-10 -58 -10 -88
q0 -96 58.5 -146t158.5 -50z" />
    <glyph glyph-name="nine" unicode="9" horiz-adv-x="802" 
d="M336 -20q-142 0 -220.5 68.5t-78.5 197.5q0 52 10 104h92q-12 -56 -12 -98q0 -186 209 -186q190 0 242 243l77 371q-89 -133 -254 -133q-124 0 -191 63t-67 181q0 46 15 116l51 238q32 152 119 230.5t221 78.5q147 0 224 -68.5t77 -197.5q0 -50 -12 -109l-168 -784
q-70 -315 -334 -315zM434 633q96 0 167.5 69t96.5 181l47 213q11 64 11 86q0 186 -211 186q-191 0 -240 -227l-51 -238q-10 -62 -10 -90q0 -180 190 -180z" />
    <glyph glyph-name="colon" unicode=":" horiz-adv-x="339" 
d="M276 780h-98l41 187h98zM111 0h-99l41 186h99z" />
    <glyph glyph-name="semicolon" unicode=";" horiz-adv-x="339" 
d="M279 780h-99l41 187h98zM-2 -197h-47l98 197h-37l41 186h99l-37 -178z" />
    <glyph glyph-name="less" unicode="&#x3c;" 
d="M729 371v-90l-602 292v82l602 293v-90l-500 -244z" />
    <glyph glyph-name="equal" unicode="=" 
d="M754 737h-643v86h643v-86zM754 406h-643v86h643v-86z" />
    <glyph glyph-name="greater" unicode="&#x3e;" 
d="M739 573l-602 -292v90l500 243l-500 244v90l602 -293v-82z" />
    <glyph glyph-name="question" unicode="?" horiz-adv-x="743" 
d="M342 340h-84l16 84q15 72 52 135q43 74 71 107q37 41 103 106q99 97 147.5 169.5t67.5 162.5q8 36 8 80q0 184 -203 184q-182 0 -237 -231l-29 -125h-90l29 129q70 313 333 313q138 0 215.5 -67t77.5 -193q0 -52 -12 -107q-38 -177 -234 -358q-15 -15 -38 -37.5
t-37.5 -37t-24.5 -25.5q-39 -39 -72.5 -97.5t-44.5 -117.5zM272 0h-98l41 186h98z" />
    <glyph glyph-name="at" unicode="@" horiz-adv-x="1431" 
d="M920 1454q253 0 388.5 -121.5t135.5 -345.5q0 -156 -60 -342q-60 -183 -163 -309q-108 -129 -228 -129q-147 0 -147 135v2q-91 -137 -232 -137q-89 0 -140.5 43.5t-51.5 126.5q0 52 20 119l99 319q70 223 247 223q174 0 209 -151l43 137h93l-185 -571q-14 -41 -14 -80
q0 -82 74 -82q90 0 172 123q86 128 131 280q49 154 49 281q0 187 -115.5 291t-329.5 104q-217 0 -395 -153q-179 -150 -274 -383q-94 -230 -94 -474q0 -223 132 -342.5t384 -119.5q179 0 325 88l-22 -97q-140 -73 -303 -73q-282 0 -443.5 141.5t-161.5 400.5q0 274 107 521
q106 246 309 413q198 162 441 162zM645 287q77 0 140.5 61.5t99.5 181.5l47 150q20 61 20 111q0 76 -39 121.5t-110 45.5q-124 0 -176 -165l-95 -299q-16 -56 -16 -91q0 -116 129 -116z" />
    <glyph glyph-name="A" unicode="A" horiz-adv-x="821" 
d="M-61 0l602 1434h129l-4 -1434h-97v330h-399l-137 -330h-94zM573 1298l-368 -884h366z" />
    <glyph glyph-name="B" unicode="B" horiz-adv-x="821" 
d="M338 0h-336l305 1434h285q139 0 205.5 -53.5t66.5 -166.5q0 -48 -12 -110l-12 -60q-53 -244 -234 -290v-2q139 -44 139 -205q0 -49 -12 -107l-24 -116q-35 -171 -122.5 -247.5t-248.5 -76.5zM385 1348l-119 -557h178q128 0 199.5 58.5t97.5 186.5l15 70q12 59 12 98
q0 75 -43 109.5t-137 34.5h-203zM248 705l-131 -619h221q117 0 183.5 59.5t92.5 188.5l25 117q12 56 12 98q0 82 -51 119t-164 37h-188z" />
    <glyph glyph-name="C" unicode="C" horiz-adv-x="784" 
d="M336 -20q-139 0 -215 69t-76 193q0 50 10 98l176 817q31 141 117 219t211 78q142 0 218.5 -69t76.5 -193q0 -46 -12 -98l-27 -117h-92l31 129q8 31 8 70q0 90 -53.5 141t-147.5 51q-88 0 -150 -56.5t-85 -160.5l-176 -825q-9 -34 -9 -76q0 -88 51.5 -136t147.5 -48
q89 0 152 56.5t83 158.5l46 217h92l-47 -224q-64 -294 -330 -294z" />
    <glyph glyph-name="D" unicode="D" horiz-adv-x="831" 
d="M330 0h-328l305 1434h299q268 0 268 -232q0 -44 -14 -115l-160 -749q-37 -179 -123 -258.5t-247 -79.5zM385 1348l-268 -1262h211q117 0 183 60.5t95 195.5l160 758q12 58 12 102q0 78 -41.5 112t-134.5 34h-217z" />
    <glyph glyph-name="E" unicode="E" horiz-adv-x="720" 
d="M563 0h-561l305 1434h561l-18 -86h-465l-119 -557h385l-18 -86h-385l-131 -619h465z" />
    <glyph glyph-name="F" unicode="F" horiz-adv-x="696" 
d="M98 0h-96l305 1434h543l-19 -86h-446l-123 -576h367l-19 -86h-366z" />
    <glyph glyph-name="G" unicode="G" horiz-adv-x="806" 
d="M344 -20q-147 0 -224 68t-77 196q0 52 12 110l168 791q67 309 334 309q147 0 224 -68.5t77 -197.5q0 -50 -12 -109l-17 -82h-92l21 99q10 58 10 86q0 186 -211 186q-189 0 -238 -227l-172 -803q-10 -62 -10 -88q0 -184 211 -184q188 0 240 227l82 387h-207l18 88h299
l-100 -479q-64 -309 -336 -309z" />
    <glyph glyph-name="H" unicode="H" horiz-adv-x="851" 
d="M98 0h-96l305 1434h96l-137 -643h439l137 643h96l-305 -1434h-96l149 705h-438z" />
    <glyph glyph-name="I" unicode="I" horiz-adv-x="317" 
d="M98 0h-96l305 1434h96z" />
    <glyph glyph-name="J" unicode="J" horiz-adv-x="532" 
d="M88 -8q-93 0 -149 26l18 86q56 -26 129 -26q157 0 201 201l243 1155h97l-246 -1164q-58 -278 -293 -278z" />
    <glyph glyph-name="K" unicode="K" horiz-adv-x="823" 
d="M862 1434h111l-445 -547l142 -887h-97l-124 786l-248 -303l-103 -483h-96l305 1434h96l-165 -777z" />
    <glyph glyph-name="L" unicode="L" horiz-adv-x="696" 
d="M545 0h-543l305 1434h96l-286 -1348h446z" />
    <glyph glyph-name="M" unicode="M" horiz-adv-x="1056" 
d="M92 0h-90l305 1434h148l4 -1252l536 1252h150l-305 -1434h-97l279 1305l-561 -1305h-82l-8 1305z" />
    <glyph glyph-name="N" unicode="N" horiz-adv-x="864" 
d="M94 0h-92l305 1434h129l168 -1192l254 1192h92l-305 -1434h-100l-176 1282z" />
    <glyph glyph-name="O" unicode="O" 
d="M346 -20q-146 0 -224.5 70.5t-78.5 199.5q0 48 12 106l168 787q68 311 334 311q148 0 226.5 -70t78.5 -200q0 -48 -12 -107l-166 -788q-64 -309 -338 -309zM354 66q188 0 234 227l170 801q10 58 10 84q0 92 -54.5 141t-158.5 49q-190 0 -236 -229l-172 -799
q-10 -58 -10 -84q0 -190 217 -190z" />
    <glyph glyph-name="P" unicode="P" horiz-adv-x="780" 
d="M98 0h-96l305 1434h293q258 0 258 -226q0 -61 -14 -121l-23 -104q-38 -179 -127 -257.5t-254 -78.5h-204zM385 1348l-131 -615h195q118 0 182.5 59.5t93.5 194.5l25 115q12 56 12 98q0 78 -42.5 113t-133.5 35h-201z" />
    <glyph glyph-name="Q" unicode="Q" 
d="M557 1454q148 0 226.5 -70t78.5 -200q0 -48 -12 -107l-166 -788q-37 -180 -147 -256q5 -45 24.5 -62.5t69.5 -17.5h47l-19 -86h-34q-149 0 -164 129q-59 -16 -115 -16q-146 0 -224.5 70.5t-78.5 199.5q0 48 12 106l168 787q68 311 334 311zM588 293l170 801q10 58 10 84
q0 92 -54.5 141t-158.5 49q-190 0 -236 -229l-172 -799q-10 -58 -10 -84q0 -190 217 -190q188 0 234 227z" />
    <glyph glyph-name="R" unicode="R" horiz-adv-x="815" 
d="M98 0h-96l305 1434h291q260 0 260 -217q0 -49 -12 -111l-19 -88q-29 -137 -87 -207.5t-160 -93.5v-2q135 -24 135 -183q0 -42 -13 -102l-55 -262q-20 -97 -20 -150v-18h-92v29q3 71 18 147l55 266q13 57 13 93q0 77 -45.5 110t-149.5 33h-182zM385 1348l-123 -582h170
q129 0 198.5 56t98.5 188l21 96q12 56 12 96q0 146 -178 146h-199z" />
    <glyph glyph-name="S" unicode="S" horiz-adv-x="751" 
d="M293 -20q-134 0 -206.5 66t-72.5 190q0 45 13 108l10 49h92l-14 -63q-11 -64 -11 -84q0 -180 199 -180q117 0 184 88q68 89 68 213q0 157 -170 327q-192 192 -192 377q0 169 96.5 276t255.5 107q134 0 205 -64.5t71 -185.5q0 -57 -14 -112l-6 -27h-92l10 41q12 50 12 88
q0 85 -51.5 129.5t-144.5 44.5q-113 0 -179.5 -79.5t-66.5 -203.5q0 -159 172 -331q190 -193 190 -377q0 -171 -96 -287q-94 -110 -262 -110z" />
    <glyph glyph-name="T" unicode="T" horiz-adv-x="727" 
d="M303 0h-96l287 1348h-273l19 86h641l-19 -86h-272z" />
    <glyph glyph-name="U" unicode="U" horiz-adv-x="827" 
d="M352 -20q-141 0 -221 69t-80 197q0 50 12 108l230 1080h96l-233 -1094q-11 -64 -11 -84q0 -92 57 -141t156 -49q183 0 232 227l244 1141h94l-244 -1143q-65 -311 -332 -311z" />
    <glyph glyph-name="V" unicode="V" horiz-adv-x="806" 
d="M367 0h-134l11 1434h96l-14 -1307l538 1307h92z" />
    <glyph glyph-name="W" unicode="W" horiz-adv-x="1142" 
d="M283 0h-136l101 1434h92l-94 -1305l465 1305h114l-90 -1305l463 1305h90l-506 -1434h-131l80 1249z" />
    <glyph glyph-name="X" unicode="X" horiz-adv-x="808" 
d="M37 0h-100l460 735l-141 699h94l121 -603l377 603h102l-446 -707l151 -727h-96l-129 633z" />
    <glyph glyph-name="Y" unicode="Y" horiz-adv-x="796" 
d="M336 0h-96l139 647l-137 787h96l111 -662l397 662h102l-473 -787z" />
    <glyph glyph-name="Z" unicode="Z" horiz-adv-x="718" 
d="M557 0h-614l18 84l774 1264h-485l18 86h594l-16 -84l-774 -1264h503z" />
    <glyph glyph-name="bracketleft" unicode="[" horiz-adv-x="524" 
d="M303 -205h-319l348 1639h319l-16 -78h-227l-316 -1483h227z" />
    <glyph glyph-name="backslash" unicode="\" horiz-adv-x="733" 
d="M537 -205h-78l-217 1639h77z" />
    <glyph glyph-name="bracketright" unicode="]" horiz-adv-x="524" 
d="M240 -205h-320l17 78h227l315 1483h-227l16 78h320z" />
    <glyph glyph-name="asciicircum" unicode="^" 
d="M252 883h-96l290 551h82l291 -551h-96l-236 444z" />
    <glyph glyph-name="underscore" unicode="_" horiz-adv-x="614" 
d="M467 -190h-614l12 65h614z" />
    <glyph glyph-name="grave" unicode="`" horiz-adv-x="1024" 
d="M725 1161h-78l-121 246h107z" />
    <glyph glyph-name="a" unicode="a" horiz-adv-x="741" 
d="M436 1036q123 0 192.5 -58t69.5 -165q0 -26 -10 -84l-104 -491q-34 -157 -31 -238h-90q-2 27 14 127q-95 -147 -258 -147q-102 0 -160.5 57.5t-58.5 155.5q0 143 81 226t253 134q152 45 198 74q45 26 58 88v-6l8 41q6 27 6 55q0 69 -44.5 109t-123.5 40t-133.5 -45
t-71.5 -129l-8 -43h-90l10 47q26 121 103 186.5t190 65.5zM504 297l57 276q-19 -25 -63 -44t-154 -52q-248 -70 -248 -274q0 -142 152 -142q88 0 156 63t100 173z" />
    <glyph glyph-name="b" unicode="b" horiz-adv-x="780" 
d="M522 1036q107 0 166.5 -55.5t59.5 -157.5q0 -40 -13 -100l-100 -479q-55 -264 -266 -264q-100 0 -165.5 53t-82.5 149l-53 -182h-70l305 1434h96l-110 -523q91 125 233 125zM545 260l96 463q10 58 10 82q0 73 -42 111t-113 38q-89 0 -158.5 -70.5t-95.5 -191.5l-68 -319
q-10 -45 -10 -94q0 -100 51 -159t137 -59q153 0 193 199z" />
    <glyph glyph-name="c" unicode="c" horiz-adv-x="727" 
d="M309 -20q-132 0 -202 60.5t-70 180.5q0 49 12 107l90 420q58 288 303 288q129 0 199 -60.5t70 -176.5q0 -48 -13 -111h-90l4 19q11 68 11 86q0 80 -47.5 120.5t-131.5 40.5q-161 0 -208 -209l-95 -436q-10 -58 -10 -86q0 -162 180 -162q162 0 209 207l10 54h88l-10 -54
q-58 -288 -299 -288z" />
    <glyph glyph-name="d" unicode="d" horiz-adv-x="778" 
d="M776 1434h96l-256 -1196q-33 -154 -30 -238h-90q-2 29 14 129q-98 -149 -252 -149q-106 0 -165.5 55.5t-59.5 157.5q0 45 12 100l100 479q55 264 267 264q92 0 155 -46t86 -128zM537 313l75 355q4 66 4 69q0 100 -51 158.5t-137 58.5q-152 0 -192 -198l-97 -463
q-10 -58 -10 -82q0 -73 42.5 -111.5t113.5 -38.5q87 0 155 67t97 185z" />
    <glyph glyph-name="e" unicode="e" horiz-adv-x="749" 
d="M446 1036q134 0 205.5 -64.5t71.5 -183.5q0 -48 -12 -106l-39 -176h-492l-39 -187q-10 -58 -10 -86q0 -172 182 -172q172 0 219 218l9 43h92l-8 -43q-65 -299 -312 -299q-134 0 -204 64.5t-70 184.5q0 51 12 109l86 405q62 293 309 293zM231 741l-32 -153h399l25 112
q10 58 10 82q0 84 -50.5 128t-138.5 44q-166 0 -213 -213z" />
    <glyph glyph-name="f" unicode="f" horiz-adv-x="530" 
d="M555 1372q-51 0 -79 -29.5t-42 -95.5l-49 -231h215l-18 -80h-213l-201 -936h-94l200 936h-141l19 80h139l53 246q43 192 209 192q87 0 137 -33l-16 -80q-57 31 -119 31z" />
    <glyph glyph-name="g" unicode="g" horiz-adv-x="774" 
d="M657 842l39 174h80l-231 -1094q-52 -260 -312 -260q-127 0 -195.5 56t-68.5 159q0 17 4 45h88q-2 -8 -2 -33q0 -145 179 -145q92 0 143.5 43.5t71.5 140.5l47 228q-91 -125 -234 -125q-109 0 -167 54.5t-58 158.5q0 44 12 100l90 428q55 264 267 264q98 0 163 -51
t84 -143zM293 113q87 0 155 67.5t97 184.5l67 319q2 12 2 53q0 100 -51 158.5t-137 58.5q-153 0 -193 -198l-86 -412q-10 -58 -10 -82q0 -72 42.5 -110.5t113.5 -38.5z" />
    <glyph glyph-name="h" unicode="h" horiz-adv-x="778" 
d="M516 1036q106 0 163.5 -53.5t57.5 -155.5q0 -47 -12 -106l-154 -721h-94l152 715q10 62 10 88q0 151 -147 151q-82 0 -147 -59.5t-97 -167.5l-152 -727h-92l301 1434h92l-108 -514q88 116 227 116z" />
    <glyph glyph-name="i" unicode="i" horiz-adv-x="315" 
d="M346 1182h-92l43 204h92zM96 0h-94l217 1016h94z" />
    <glyph glyph-name="j" unicode="j" horiz-adv-x="313" 
d="M346 1182h-92l43 204h92zM-217 -305l18 78q44 -29 82 -29q35 0 54 21.5t30 72.5l250 1178h94l-252 -1192q-34 -162 -168 -162q-69 0 -108 33z" />
    <glyph glyph-name="k" unicode="k" horiz-adv-x="761" 
d="M702 1016h111l-364 -391l159 -625h-96l-139 545l-209 -223l-68 -322h-94l305 1434h94l-204 -967z" />
    <glyph glyph-name="l" unicode="l" horiz-adv-x="315" 
d="M96 0h-94l305 1434h94z" />
    <glyph glyph-name="m" unicode="m" horiz-adv-x="1210" 
d="M965 1036q103 0 158 -53.5t55 -153.5q0 -45 -13 -108l-153 -721h-94l151 715q10 55 10 90q0 149 -139 149q-86 0 -152 -70.5t-92 -193.5l-147 -690h-94l151 715q12 58 12 90q0 149 -141 149q-82 0 -146 -67t-93 -185l-150 -702h-94l217 1016h80l-27 -129q88 149 240 149
q190 0 211 -168q88 168 250 168z" />
    <glyph glyph-name="n" unicode="n" horiz-adv-x="778" 
d="M516 1036q106 0 163.5 -53.5t57.5 -155.5q0 -47 -12 -106l-154 -721h-94l152 715q10 62 10 88q0 151 -147 151q-87 0 -154 -67t-96 -185l-150 -702h-94l217 1016h80l-27 -127q92 147 248 147z" />
    <glyph glyph-name="o" unicode="o" horiz-adv-x="753" 
d="M307 -20q-128 0 -200 65.5t-72 183.5q0 47 12 103l88 411q65 293 311 293q128 0 200.5 -66t72.5 -184q0 -46 -12 -102l-89 -412q-64 -292 -311 -292zM311 61q166 0 213 213l92 426q11 64 11 84q0 170 -185 170q-166 0 -213 -213l-92 -426q-10 -58 -10 -84
q0 -170 184 -170z" />
    <glyph glyph-name="p" unicode="p" horiz-adv-x="778" 
d="M520 1036q106 0 165.5 -55.5t59.5 -157.5q0 -45 -12 -100l-100 -479q-55 -264 -266 -264q-92 0 -155.5 46t-86.5 128l-100 -471h-95l285 1333h80l-27 -131q95 151 252 151zM543 260l96 463q10 58 10 82q0 73 -42 111t-113 38q-85 0 -151 -63.5t-97 -175.5l-74 -342
l-4 -21q-6 -38 -6 -73q0 -100 51 -159t137 -59q153 0 193 199z" />
    <glyph glyph-name="q" unicode="q" horiz-adv-x="778" 
d="M659 838l52 178h69l-284 -1333h-97l88 415q-107 -134 -262 -116q-241 27 -180 311l100 479q62 286 304 262q85 -7 139 -58t71 -138zM264 59q86 -8 156.5 51t105.5 169l88 405q13 115 -30.5 186t-130.5 82q-171 18 -217 -196l-97 -463q-47 -216 125 -234z" />
    <glyph glyph-name="r" unicode="r" horiz-adv-x="528" 
d="M504 1036q57 0 96 -22l-18 -90q-36 22 -97 22q-182 0 -252 -284l-141 -662h-94l217 1016h80l-29 -144q83 164 238 164z" />
    <glyph glyph-name="s" unicode="s" horiz-adv-x="688" 
d="M260 -20q-113 0 -182.5 57t-69.5 160q0 42 8 73l4 21h89l-7 -29q-6 -30 -6 -55q0 -71 47.5 -108.5t124.5 -37.5q99 0 156 59.5t57 145.5q0 68 -38 114.5t-119 94.5l-74 47q-17 12 -57 49q-66 66 -66 168q0 122 84 209q85 88 221 88q108 0 171 -58.5t63 -158.5
q0 -37 -9 -71h-88q9 46 9 63q0 66 -41 104.5t-113 38.5q-88 0 -146.5 -57.5t-58.5 -142.5q0 -65 38 -110t122 -93q53 -33 74.5 -49t54.5 -49q67 -59 67 -172q0 -124 -86 -213q-85 -88 -229 -88z" />
    <glyph glyph-name="t" unicode="t" horiz-adv-x="530" 
d="M575 936h-213l-157 -739q-6 -27 -6 -47q0 -89 100 -89q45 0 92 21l-10 -84q-47 -18 -113 -18q-76 0 -120 41.5t-44 115.5q0 22 7 62l157 737h-137l19 80h137l78 311h79l-65 -311h215z" />
    <glyph glyph-name="u" unicode="u" horiz-adv-x="778" 
d="M537 313l149 703h94l-217 -1016h-80l27 127q-92 -147 -248 -147q-107 0 -164 53t-57 155q0 48 12 107l154 721h94l-151 -715q-11 -68 -11 -88q0 -152 148 -152q87 0 154 67t96 185z" />
    <glyph glyph-name="v" unicode="v" horiz-adv-x="724" 
d="M317 0h-122l-39 1016h92l33 -895l411 895h94z" />
    <glyph glyph-name="w" unicode="w" horiz-adv-x="1079" 
d="M266 0h-121l15 1016h90l-12 -883l358 883h106l-16 -883l363 883h90l-416 -1016h-113l6 842z" />
    <glyph glyph-name="x" unicode="x" horiz-adv-x="733" 
d="M41 0h-100l374 524l-147 492h94l123 -416l295 416h100l-360 -500l155 -516h-96l-127 442z" />
    <glyph glyph-name="y" unicode="y" horiz-adv-x="731" 
d="M700 1016h93l-570 -1190q-80 -164 -213 -164q-83 0 -119 33l17 80q42 -31 100 -31q76 0 125 102l86 179l-65 991h90l53 -846z" />
    <glyph glyph-name="z" unicode="z" horiz-adv-x="661" 
d="M494 0h-545l16 78l619 858h-416l18 80h525l-17 -78l-618 -858h436z" />
    <glyph glyph-name="braceleft" unicode="{" horiz-adv-x="524" 
d="M307 -205h-63q-160 0 -160 139q0 26 10 78l80 383q12 55 12 90q0 49 -24 68.5t-80 19.5l10 82q74 0 113.5 41t62.5 140l82 389q25 108 80.5 158.5t153.5 50.5h71l-18 -84h-31q-75 0 -113 -38t-61 -136l-76 -363q-20 -92 -55 -137t-98 -62l-8 -2q84 -21 84 -125
q0 -18 -11 -86l-75 -356q-11 -71 -11 -84q0 -44 24 -63t81 -19h39z" />
    <glyph glyph-name="bar" unicode="|" horiz-adv-x="614" 
d="M391 -410h-86v2050h86v-2050z" />
    <glyph glyph-name="braceright" unicode="}" horiz-adv-x="524" 
d="M-14 -205h-70l18 84h29q75 0 114 38.5t62 135.5l76 357q20 96 55.5 142t98.5 60l8 2q-84 24 -84 125q0 46 8 82l78 363q12 50 12 84q0 44 -25.5 63t-82.5 19h-37l18 84h62q161 0 161 -144q0 -42 -8 -73l-84 -390q-10 -62 -10 -82q0 -49 25 -69.5t82 -20.5l-13 -82
q-75 0 -115 -41.5t-63 -144.5l-80 -383q-24 -113 -81 -161t-154 -48z" />
    <glyph glyph-name="asciitilde" unicode="~" 
d="M131 498l-63 47q52 92 101 135t114 43q62 0 159 -66q95 -65 142 -65q45 0 77 30.5t76 106.5l64 -47q-52 -92 -102 -135t-115 -43q-60 0 -160 65l-57 39q-49 27 -82 27q-45 0 -79.5 -32t-74.5 -105z" />
    <glyph glyph-name="uni00A0" unicode="&#xa0;" horiz-adv-x="339" 
 />
    <glyph glyph-name="exclamdown" unicode="&#xa1;" horiz-adv-x="372" 
d="M303 829h-98l41 187h98zM37 -420h-96l157 750l86 346h72l-61 -346z" />
    <glyph glyph-name="cent" unicode="&#xa2;" 
d="M657 1454l-28 -133q104 -19 158.5 -84t54.5 -170q0 -41 -13 -98l-6 -31h-90l10 43q11 57 11 74q0 72 -38 119t-106 61l-221 -1045q87 2 148 59t81 159l27 127h90l-28 -134q-29 -140 -116 -218.5t-214 -78.5h-6l-31 -145h-80l33 154q-100 20 -154.5 86t-54.5 168
q0 47 12 100l125 565q31 141 116 218t212 77h2l27 127h79zM182 379q0 -145 129 -180l221 1042q-83 -6 -140 -62t-77 -153l-125 -573q-8 -31 -8 -74z" />
    <glyph glyph-name="sterling" unicode="&#xa3;" 
d="M618 0h-634l16 84q110 83 188.5 184.5t100.5 200.5q8 36 8 66h-184l16 81h166q-4 26 -37 164q-31 133 -31 219q0 195 90 326q92 129 275 129q133 0 203.5 -74.5t70.5 -199.5q0 -46 -16 -121h-88q14 69 14 110q0 91 -48.5 145t-143.5 54q-136 0 -201 -108
q-61 -107 -61 -267q0 -87 28 -211q31 -139 33 -166h305l-16 -81h-287q0 -45 -8 -76q-34 -169 -264 -373h524z" />
    <glyph glyph-name="currency" unicode="&#xa4;" 
d="M643 573l111 -106l-52 -51l-106 110q-63 -47 -143.5 -47t-143.5 47l-106 -110l-51 51l110 106q-47 60 -47 143.5t47 143.5l-110 107l51 51l106 -111q63 47 143.5 47t143.5 -47l106 111l52 -51l-111 -107q47 -60 47 -143.5t-47 -143.5zM338 602q44 -44 114.5 -44t114.5 44
t44 114.5t-44 114.5t-114.5 44t-114.5 -44t-44 -114.5t44 -114.5z" />
    <glyph glyph-name="yen" unicode="&#xa5;" 
d="M860 1434h101l-474 -785h238l-18 -82h-238l-43 -207h238l-19 -81h-237l-60 -279h-96l59 279h-231l18 81h232l43 207h-232l19 82h231l-135 785h94l111 -664z" />
    <glyph glyph-name="brokenbar" unicode="&#xa6;" horiz-adv-x="614" 
d="M391 819h-86v819h86v-819zM391 -410h-86v820h86v-820z" />
    <glyph glyph-name="section" unicode="&#xa7;" horiz-adv-x="851" 
d="M860 1141h-84q1 12 2 26.5t1.5 22.5t0.5 12q0 77 -57 123.5t-139 46.5q-101 0 -163.5 -58t-62.5 -155q0 -71 44 -119.5t157 -115.5q77 -48 92 -60q39 -26 70 -57q42 -37 59 -80.5t17 -105.5q0 -123 -80.5 -201.5t-218.5 -95.5q135 -94 135 -238q0 -139 -88.5 -222
t-235.5 -83q-125 0 -199.5 69.5t-74.5 184.5q0 5 4 59h84q-1 -12 -2 -26.5t-1.5 -22.5t-0.5 -12q0 -77 57 -123.5t139 -46.5q101 0 163.5 58t62.5 155q0 71 -44 119.5t-157 115.5l-94 58q-40 31 -70 59q-40 37 -57 81t-17 105q0 123 80.5 201.5t218.5 95.5q-135 95 -135 238
q0 139 88.5 222t235.5 83q125 0 199.5 -69.5t74.5 -184.5q0 -5 -4 -59zM700 610q0 59 -34 105t-64 67q-28 22 -104 68q-1 0 -2 1t-2 1h-27q-118 0 -193 -64t-75 -163q0 -62 32 -105q30 -41 64 -67q39 -27 106 -68h2l3 -2h26q118 0 193 64t75 163z" />
    <glyph glyph-name="dieresis" unicode="&#xa8;" horiz-adv-x="1024" 
d="M588 1182h-92l43 204h92zM815 1182h-92l43 204h92z" />
    <glyph glyph-name="copyright" unicode="&#xa9;" horiz-adv-x="1572" 
d="M1341 188q-202 -208 -510 -208q-307 0 -509 208q-203 212 -203 529t203 526q202 211 509 211q308 0 510 -211q203 -209 203 -526t-203 -529zM377 244q181 -187 454 -187q275 0 453 187q180 186 180 473t-180 473q-177 186 -453 186q-274 0 -454 -186q-178 -187 -178 -473
t178 -473zM608 508v416q0 241 217 241t217 -241v-52h-77v58q0 160 -138 160q-137 0 -137 -160v-426q0 -158 137 -158q138 0 138 158v84h77v-80q0 -240 -217 -240t-217 240z" />
    <glyph glyph-name="ordfeminine" unicode="&#xaa;" horiz-adv-x="583" 
d="M455 1454q92 0 141 -44.5t49 -121.5q0 -24 -8 -65l-72 -334q-28 -143 -28 -187h-68q0 28 6 80q-66 -96 -178 -96q-77 0 -120.5 40.5t-43.5 107.5q0 105 60.5 166t187.5 98q90 26 124.5 44.5t45.5 45.5l12 55q4 32 4 37q0 48 -30 76t-86 28q-54 0 -91 -31.5t-49 -88.5
l-4 -15h-71l2 21q20 87 77.5 135.5t139.5 48.5zM322 756q62 0 106 38.5t64 110.5l40 195q-30 -30 -149 -66q-168 -52 -168 -186q0 -43 28.5 -67.5t78.5 -24.5zM481 485h-407l14 70h408z" />
    <glyph glyph-name="guillemotleft" unicode="&#xab;" horiz-adv-x="544" 
d="M236 426h-70l-70 188l148 185h73l-139 -193zM449 426h-70l-68 188l146 185h73l-137 -193z" />
    <glyph glyph-name="logicalnot" unicode="&#xac;" 
d="M750 338h-84v305h-600v84h684v-389z" />
    <glyph glyph-name="uni00AD" unicode="&#xad;" horiz-adv-x="532" 
d="M475 575h-389l16 78h390z" />
    <glyph glyph-name="registered" unicode="&#xae;" horiz-adv-x="1572" 
d="M1341 188q-202 -208 -510 -208q-307 0 -509 208q-203 212 -203 529t203 526q202 211 509 211q308 0 510 -211q203 -209 203 -526t-203 -529zM377 244q181 -187 454 -187q275 0 453 187q180 186 180 473t-180 473q-177 186 -453 186q-274 0 -454 -186q-178 -187 -178 -473
t178 -473zM711 279h-82v876h213q111 0 164 -50.5t53 -166.5v-35q0 -156 -119 -190v-2q119 -21 119 -183v-131q0 -81 18 -118h-86q-14 38 -14 120v125q0 80 -36 113t-126 33h-104v-391zM711 1077v-332h108q83 0 120.5 32t37.5 114v39q0 76 -31 111.5t-108 35.5h-127z" />
    <glyph glyph-name="overscore" unicode="&#xaf;" horiz-adv-x="1024" 
d="M866 1243h-397l18 84h398z" />
    <glyph glyph-name="degree" unicode="&#xb0;" 
d="M719 1083q-63 -63 -153.5 -63t-153.5 63t-63 154t63 154t153.5 63t153.5 -63t63 -154t-63 -154zM469 1139q38 -38 96.5 -38t96.5 38q38 41 38 98.5t-38 95.5q-38 41 -96.5 41t-96.5 -41q-38 -38 -38 -95.5t38 -98.5z" />
    <glyph glyph-name="plusminus" unicode="&#xb1;" 
d="M754 248h-643v84h278v284h-278v84h278v289h86v-289h279v-84h-279v-284h279v-84z" />
    <glyph glyph-name="uni00B2" unicode="&#xb2;" horiz-adv-x="589" 
d="M539 719h-400l23 100q24 105 82 182t168 158q95 70 142 128.5t64 129.5q7 31 7 53q0 107 -115 107q-114 0 -141 -129l-19 -82h-74l19 84q46 199 219 199q95 0 143 -45t48 -125q0 -33 -9 -68q-35 -154 -237 -307q-103 -75 -151.5 -137t-67.5 -142l-9 -37h324z" />
    <glyph glyph-name="uni00B3" unicode="&#xb3;" horiz-adv-x="591" 
d="M360 698q-96 0 -146 45t-50 125q0 41 8 72l10 47h76l-12 -59q-6 -27 -6 -51q0 -107 118 -107q115 0 142 137l22 109q6 30 6 53q0 90 -98 90h-61l14 70h59q122 0 156 147l8 35q8 27 8 59q0 107 -118 107q-113 0 -140 -131l-14 -64h-74l15 66q44 201 215 201
q196 0 196 -168q0 -26 -8 -70l-6 -31q-35 -159 -150 -186v-2q76 -24 76 -127q0 -31 -6 -61l-22 -107q-43 -199 -218 -199z" />
    <glyph glyph-name="acute" unicode="&#xb4;" horiz-adv-x="1024" 
d="M657 1161h-86l199 246h115z" />
    <glyph glyph-name="uni00B5" unicode="&#xb5;" horiz-adv-x="786" 
d="M549 313l149 703h95l-218 -1016h-79l26 127q-92 -147 -248 -147q-117 0 -170 65l-77 -362h-93l285 1333h94l-151 -715q-10 -62 -10 -88q0 -152 147 -152q87 0 154 67t96 185z" />
    <glyph glyph-name="paragraph" unicode="&#xb6;" horiz-adv-x="909" 
d="M344 -199h-82l176 820q-266 6 -266 229q0 48 12 106l29 140q71 338 403 338h355l-346 -1633h-82l329 1553h-198z" />
    <glyph glyph-name="middot" unicode="&#xb7;" horiz-adv-x="339" 
d="M221 520h-98l41 187h98z" />
    <glyph glyph-name="cedilla" unicode="&#xb8;" horiz-adv-x="1024" 
d="M344 -317q-145 0 -145 94q0 17 4 33h76q-5 -20 -5 -23q0 -43 80 -43q105 0 105 63q0 39 -74 39h-33l35 164h57l-26 -110q114 0 114 -90q0 -70 -47.5 -98.5t-140.5 -28.5z" />
    <glyph glyph-name="uni00B9" unicode="&#xb9;" horiz-adv-x="589" 
d="M428 719h-82l168 768q-56 -39 -170 -45l6 61q141 6 211 125h62z" />
    <glyph glyph-name="ordmasculine" unicode="&#xba;" horiz-adv-x="581" 
d="M360 686q-94 0 -145 48t-51 134q0 41 8 72l64 303q43 211 227 211q94 0 145 -48t51 -134q0 -41 -8 -72l-63 -303q-43 -211 -228 -211zM362 756q121 0 148 143l68 313q6 30 6 56q0 56 -32.5 86t-92.5 30q-119 0 -146 -143l-67 -313q-6 -30 -6 -56q0 -116 122 -116z
M489 487h-405l14 70h406z" />
    <glyph glyph-name="guillemotright" unicode="&#xbb;" horiz-adv-x="546" 
d="M135 426h-74l138 192l-56 181h70l68 -189zM348 426h-74l140 192l-58 181h70l70 -189z" />
    <glyph glyph-name="onequarter" unicode="&#xbc;" horiz-adv-x="1345" 
d="M326 0h-80l866 1434h78zM387 524h-82l168 768q-56 -39 -170 -45l6 62q141 6 211 125h62zM1102 0h-80l41 190h-309l14 72l438 647h90l-139 -649h76l-14 -70h-76zM1190 768l-344 -508h231z" />
    <glyph glyph-name="onehalf" unicode="&#xbd;" horiz-adv-x="1345" 
d="M326 0h-80l866 1434h78zM387 524h-82l168 768q-56 -39 -170 -45l6 62q141 6 211 125h62zM1141 0h-400l23 100q24 105 82 182t168 158q95 70 142.5 128.5t64.5 129.5q6 27 6 54q0 106 -115 106q-114 0 -141 -129l-19 -82h-73l18 84q46 199 219 199q95 0 143 -45t48 -125
q0 -34 -9 -68q-35 -154 -237 -307q-103 -75 -151.5 -137t-67.5 -142l-8 -36h323z" />
    <glyph glyph-name="threequarters" unicode="&#xbe;" horiz-adv-x="1347" 
d="M319 504q-96 0 -146 45t-50 125q0 40 8 71l10 48h76l-12 -60q-6 -27 -6 -51q0 -107 118 -107q115 0 142 138l22 108q6 30 6 53q0 91 -98 91h-61l14 69h59q121 0 156 148l8 35q8 27 8 59q0 106 -118 106q-113 0 -140 -131l-14 -63h-74l15 65q44 201 215 201
q196 0 196 -168q0 -25 -8 -69l-6 -31q-35 -160 -150 -187v-2q76 -24 76 -127q0 -31 -6 -61l-22 -107q-43 -198 -218 -198zM328 0h-80l866 1434h78zM1104 0h-80l41 190h-309l14 72l438 647h90l-139 -649h76l-14 -70h-76zM1192 768l-344 -508h231z" />
    <glyph glyph-name="questiondown" unicode="&#xbf;" horiz-adv-x="743" 
d="M526 829h-98l41 187h98zM215 -438q-138 0 -215.5 67t-77.5 193q0 50 12 106q40 177 234 359l100 98q39 41 72.5 99.5t44.5 117.5l14 74h84l-16 -84q-16 -73 -51 -137q-38 -65 -72 -105q-23 -27 -102 -106q-94 -94 -146 -168q-48 -68 -69 -164q-9 -41 -9 -80
q0 -184 203 -184q183 0 238 231l28 125h91l-29 -129q-70 -313 -334 -313z" />
    <glyph glyph-name="Agrave" unicode="&#xc0;" horiz-adv-x="821" 
d="M614 1804l93 -245h-78l-121 245h106zM33 0h-94l602 1434h129l-4 -1434h-97v330h-399zM573 1298l-368 -884h366z" />
    <glyph glyph-name="Aacute" unicode="&#xc1;" horiz-adv-x="821" 
d="M752 1804h114l-227 -245h-86zM33 0h-94l602 1434h129l-4 -1434h-97v330h-399zM573 1298l-368 -884h366z" />
    <glyph glyph-name="Acircumflex" unicode="&#xc2;" horiz-adv-x="821" 
d="M629 1804h110l97 -245h-78l-80 188l-166 -188h-86zM33 0h-94l602 1434h129l-4 -1434h-97v330h-399zM573 1298l-368 -884h366z" />
    <glyph glyph-name="Atilde" unicode="&#xc3;" horiz-adv-x="821" 
d="M846 1774l55 -37q-77 -129 -153 -129q-59 0 -107 45q-36 28 -57 28q-53 0 -103 -90l-55 37q76 129 156 129q56 0 104 -45q37 -29 57 -29q52 0 103 91zM33 0h-94l602 1434h129l-4 -1434h-97v330h-399zM573 1298l-368 -884h366z" />
    <glyph glyph-name="Adieresis" unicode="&#xc4;" horiz-adv-x="821" 
d="M520 1784h92l-43 -205h-92zM705 1579l43 205h92l-43 -205h-92zM33 0h-94l602 1434h129l-4 -1434h-97v330h-399zM573 1298l-368 -884h366z" />
    <glyph glyph-name="Aring" unicode="&#xc5;" horiz-adv-x="821" 
d="M674 1847q61 0 98 -36t37 -93q0 -67 -47 -113t-113 -46q-60 0 -97.5 35.5t-37.5 91.5q0 68 46.5 114.5t113.5 46.5zM653 1620q38 0 64 26t26 66q0 33 -19.5 53.5t-51.5 20.5q-37 0 -63.5 -26.5t-26.5 -67.5q0 -32 19.5 -52t51.5 -20zM33 0h-94l602 1434h129l-4 -1434h-97
v330h-399zM573 1298l-368 -884h366z" />
    <glyph glyph-name="AE" unicode="&#xc6;" horiz-adv-x="1204" 
d="M1352 1434l-19 -86h-463l-116 -555h383l-19 -86h-383l-133 -621h463l-18 -86h-560l70 330h-344l-184 -330h-95l805 1434h613zM260 414h315l193 903z" />
    <glyph glyph-name="Ccedilla" unicode="&#xc7;" horiz-adv-x="784" 
d="M559 1454q142 0 218.5 -69t76.5 -193q0 -46 -12 -98l-27 -117h-92l31 129q8 31 8 70q0 90 -53.5 141t-147.5 51q-88 0 -150 -56.5t-85 -160.5l-176 -825q-9 -34 -9 -76q0 -88 51.5 -136t147.5 -48q89 0 152 56.5t83 158.5l46 217h92l-47 -224q-64 -294 -330 -294h-19
l-18 -80q115 0 115 -90q0 -70 -47.5 -98.5t-141.5 -28.5q-145 0 -145 94q0 17 4 33h76q-4 -16 -4 -23q0 -43 80 -43q104 0 104 63q0 39 -74 39h-33l29 140q-104 17 -160.5 84t-56.5 172q0 50 10 98l176 817q31 141 117 219t211 78z" />
    <glyph glyph-name="Egrave" unicode="&#xc8;" horiz-adv-x="720" 
d="M688 1559h-78l-121 245h107zM563 0h-561l305 1434h561l-18 -86h-465l-119 -557h385l-18 -86h-385l-131 -619h465z" />
    <glyph glyph-name="Eacute" unicode="&#xc9;" horiz-adv-x="720" 
d="M621 1559h-86l198 245h115zM563 0h-561l305 1434h561l-18 -86h-465l-119 -557h385l-18 -86h-385l-131 -619h465z" />
    <glyph glyph-name="Ecircumflex" unicode="&#xca;" horiz-adv-x="720" 
d="M494 1559h-86l202 245h111l96 -245h-78l-80 188zM563 0h-561l305 1434h561l-18 -86h-465l-119 -557h385l-18 -86h-385l-131 -619h465z" />
    <glyph glyph-name="Edieresis" unicode="&#xcb;" horiz-adv-x="720" 
d="M551 1579h-92l43 205h92zM778 1579h-92l43 205h92zM563 0h-561l305 1434h561l-18 -86h-465l-119 -557h385l-18 -86h-385l-131 -619h465z" />
    <glyph glyph-name="Igrave" unicode="&#xcc;" horiz-adv-x="317" 
d="M455 1559h-78l-121 245h106zM98 0h-96l305 1434h96z" />
    <glyph glyph-name="Iacute" unicode="&#xcd;" horiz-adv-x="317" 
d="M387 1559h-86l199 245h114zM98 0h-96l305 1434h96z" />
    <glyph glyph-name="Icircumflex" unicode="&#xce;" horiz-adv-x="317" 
d="M260 1559h-86l203 245h110l97 -245h-78l-80 188zM98 0h-96l305 1434h96z" />
    <glyph glyph-name="Idieresis" unicode="&#xcf;" horiz-adv-x="317" 
d="M317 1579h-92l43 205h92zM545 1579h-92l43 205h92zM98 0h-96l305 1434h96z" />
    <glyph glyph-name="Eth" unicode="&#xd0;" horiz-adv-x="854" 
d="M332 1434h299q268 0 268 -232q0 -44 -14 -115l-160 -749q-37 -179 -123.5 -258.5t-247.5 -79.5h-327l149 707h-96l18 81h97zM631 342l160 758q12 58 12 102q0 78 -41.5 112t-134.5 34h-217l-119 -560h192l-16 -81h-195l-131 -621h211q117 0 183.5 60.5t95.5 195.5z" />
    <glyph glyph-name="Ntilde" unicode="&#xd1;" horiz-adv-x="864" 
d="M504 1591l-55 37q77 129 155 129q57 0 105 -45q37 -29 57 -29q51 0 102 91l56 -37q-77 -129 -154 -129q-58 0 -106 45q-36 28 -58 28q-52 0 -102 -90zM94 0h-92l305 1434h129l168 -1192l254 1192h92l-305 -1434h-100l-176 1282z" />
    <glyph glyph-name="Ograve" unicode="&#xd2;" 
d="M707 1559h-78l-121 245h106zM346 -20q-146 0 -224.5 70.5t-78.5 199.5q0 48 12 106l168 787q68 311 334 311q148 0 226.5 -70t78.5 -200q0 -48 -12 -107l-166 -788q-64 -309 -338 -309zM354 66q188 0 234 227l170 801q10 58 10 84q0 92 -54.5 141t-158.5 49
q-190 0 -236 -229l-172 -799q-10 -58 -10 -84q0 -190 217 -190z" />
    <glyph glyph-name="Oacute" unicode="&#xd3;" 
d="M639 1559h-86l199 245h114zM346 -20q-146 0 -224.5 70.5t-78.5 199.5q0 48 12 106l168 787q68 311 334 311q148 0 226.5 -70t78.5 -200q0 -48 -12 -107l-166 -788q-64 -309 -338 -309zM354 66q188 0 234 227l170 801q10 58 10 84q0 92 -54.5 141t-158.5 49
q-190 0 -236 -229l-172 -799q-10 -58 -10 -84q0 -190 217 -190z" />
    <glyph glyph-name="Ocircumflex" unicode="&#xd4;" 
d="M512 1559h-86l203 245h110l97 -245h-78l-80 188zM346 -20q-146 0 -224.5 70.5t-78.5 199.5q0 48 12 106l168 787q68 311 334 311q148 0 226.5 -70t78.5 -200q0 -48 -12 -107l-166 -788q-64 -309 -338 -309zM354 66q188 0 234 227l170 801q10 58 10 84q0 92 -54.5 141
t-158.5 49q-190 0 -236 -229l-172 -799q-10 -58 -10 -84q0 -190 217 -190z" />
    <glyph glyph-name="Otilde" unicode="&#xd5;" 
d="M481 1591l-55 37q76 129 156 129q56 0 104 -45q37 -29 57 -29q52 0 103 91l55 -37q-77 -129 -153 -129q-59 0 -107 45q-36 28 -57 28q-53 0 -103 -90zM346 -20q-146 0 -224.5 70.5t-78.5 199.5q0 48 12 106l168 787q68 311 334 311q148 0 226.5 -70t78.5 -200
q0 -48 -12 -107l-166 -788q-64 -309 -338 -309zM354 66q188 0 234 227l170 801q10 58 10 84q0 92 -54.5 141t-158.5 49q-190 0 -236 -229l-172 -799q-10 -58 -10 -84q0 -190 217 -190z" />
    <glyph glyph-name="Odieresis" unicode="&#xd6;" 
d="M569 1579h-92l43 205h92zM797 1579h-92l43 205h92zM346 -20q-146 0 -224.5 70.5t-78.5 199.5q0 48 12 106l168 787q68 311 334 311q148 0 226.5 -70t78.5 -200q0 -48 -12 -107l-166 -788q-64 -309 -338 -309zM354 66q188 0 234 227l170 801q10 58 10 84q0 92 -54.5 141
t-158.5 49q-190 0 -236 -229l-172 -799q-10 -58 -10 -84q0 -190 217 -190z" />
    <glyph glyph-name="multiply" unicode="&#xd7;" 
d="M432 557l-250 -254l-57 59l250 252l-250 252l59 58l248 -252l250 254l57 -60l-250 -252l250 -252l-57 -59z" />
    <glyph glyph-name="Oslash" unicode="&#xd8;" 
d="M885 1491l47 -33l-92 -153q22 -58 22 -121q0 -48 -12 -107l-166 -788q-64 -309 -338 -309q-167 0 -244 92l-77 -129l-50 32l91 152q-23 61 -23 123q0 48 12 106l168 787q68 311 334 311q174 0 250 -94zM137 256v-10l613 1022q-46 100 -195 100q-190 0 -236 -229
l-172 -799q-10 -58 -10 -84zM768 1178v6l-612 -1022q47 -96 198 -96q188 0 234 227l170 801q10 58 10 84z" />
    <glyph glyph-name="Ugrave" unicode="&#xd9;" horiz-adv-x="827" 
d="M711 1559h-78l-121 245h106zM352 -20q-141 0 -221 69t-80 197q0 50 12 108l230 1080h96l-233 -1094q-11 -64 -11 -84q0 -92 57 -141t156 -49q183 0 232 227l244 1141h94l-244 -1143q-65 -311 -332 -311z" />
    <glyph glyph-name="Uacute" unicode="&#xda;" horiz-adv-x="827" 
d="M643 1559h-86l199 245h114zM352 -20q-141 0 -221 69t-80 197q0 50 12 108l230 1080h96l-233 -1094q-11 -64 -11 -84q0 -92 57 -141t156 -49q183 0 232 227l244 1141h94l-244 -1143q-65 -311 -332 -311z" />
    <glyph glyph-name="Ucircumflex" unicode="&#xdb;" horiz-adv-x="827" 
d="M516 1559h-86l203 245h110l97 -245h-78l-80 188zM352 -20q-141 0 -221 69t-80 197q0 50 12 108l230 1080h96l-233 -1094q-11 -64 -11 -84q0 -92 57 -141t156 -49q183 0 232 227l244 1141h94l-244 -1143q-65 -311 -332 -311z" />
    <glyph glyph-name="Udieresis" unicode="&#xdc;" horiz-adv-x="827" 
d="M573 1579h-92l43 205h92zM801 1579h-92l43 205h92zM352 -20q-141 0 -221 69t-80 197q0 50 12 108l230 1080h96l-233 -1094q-11 -64 -11 -84q0 -92 57 -141t156 -49q183 0 232 227l244 1141h94l-244 -1143q-65 -311 -332 -311z" />
    <glyph glyph-name="Yacute" unicode="&#xdd;" horiz-adv-x="796" 
d="M625 1559h-86l198 245h115zM336 0h-96l139 647l-137 787h96l111 -662l397 662h102l-473 -787z" />
    <glyph glyph-name="Thorn" unicode="&#xde;" horiz-adv-x="782" 
d="M98 0h-96l305 1434h96l-49 -230l197 -2q258 -3 258 -225q0 -61 -14 -121l-23 -104q-38 -179 -127 -257.5t-254 -78.5h-205zM336 1116l-131 -614h194q118 0 183 59.5t94 194.5l24 114q13 60 13 99q0 77 -42.5 112t-133.5 35h-201z" />
    <glyph glyph-name="germandbls" unicode="&#xdf;" horiz-adv-x="798" 
d="M401 -23q-81 0 -153 35l18 86q46 -37 133 -37q92 0 149.5 66t57.5 162q-4 55 -22 84.5t-62 72.5q-33 33 -51 54q-20 23 -35.5 67.5t-15.5 91.5q0 68 22 129q5 12 10 22.5t9 19t10 18t9.5 15t11 15t10.5 13.5t13.5 15t13.5 14.5t16.5 17t17.5 18.5q47 47 68 74
q26 29 46.5 84.5t20.5 114.5q0 70 -43.5 106.5t-115.5 36.5q-154 0 -197 -198l-250 -1174h-94l252 1180q56 274 295 274q114 0 181 -59t67 -162q0 -81 -27 -146q-24 -64 -51 -94q-32 -36 -74 -78q-35 -35 -63 -67q-24 -27 -43 -74t-19 -98q0 -42 14 -74q13 -30 26.5 -48
t47.5 -52q7 -8 24 -26.5t23 -26.5q19 -23 34 -63t15 -81q0 -137 -84 -233q-83 -95 -215 -95z" />
    <glyph glyph-name="agrave" unicode="&#xe0;" horiz-adv-x="741" 
d="M483 1407l92 -246h-77l-121 246h106zM436 1036q123 0 192.5 -58t69.5 -165q0 -26 -10 -84l-104 -491q-34 -157 -31 -238h-90q-2 27 14 127q-95 -147 -258 -147q-102 0 -160.5 57.5t-58.5 155.5q0 143 81 226t253 134q152 45 198 74q45 26 58 88v-6l8 41q6 27 6 55
q0 69 -44.5 109t-123.5 40t-133.5 -45t-71.5 -129l-8 -43h-90l10 47q26 121 103 186.5t190 65.5zM504 297l57 276q-19 -25 -63 -44t-154 -52q-248 -70 -248 -274q0 -142 152 -142q88 0 156 63t100 173z" />
    <glyph glyph-name="aacute" unicode="&#xe1;" horiz-adv-x="741" 
d="M621 1407h114l-227 -246h-86zM436 1036q123 0 192.5 -58t69.5 -165q0 -26 -10 -84l-104 -491q-34 -157 -31 -238h-90q-2 27 14 127q-95 -147 -258 -147q-102 0 -160.5 57.5t-58.5 155.5q0 143 81 226t253 134q152 45 198 74q45 26 58 88v-6l8 41q6 27 6 55
q0 69 -44.5 109t-123.5 40t-133.5 -45t-71.5 -129l-8 -43h-90l10 47q26 121 103 186.5t190 65.5zM504 297l57 276q-19 -25 -63 -44t-154 -52q-248 -70 -248 -274q0 -142 152 -142q88 0 156 63t100 173z" />
    <glyph glyph-name="acircumflex" unicode="&#xe2;" horiz-adv-x="741" 
d="M627 1161l-80 189l-166 -189h-86l203 246h110l97 -246h-78zM436 1036q123 0 192.5 -58t69.5 -165q0 -26 -10 -84l-104 -491q-34 -157 -31 -238h-90q-2 27 14 127q-95 -147 -258 -147q-102 0 -160.5 57.5t-58.5 155.5q0 143 81 226t253 134q152 45 198 74q45 26 58 88v-6
l8 41q6 27 6 55q0 69 -44.5 109t-123.5 40t-133.5 -45t-71.5 -129l-8 -43h-90l10 47q26 121 103 186.5t190 65.5zM504 297l57 276q-19 -25 -63 -44t-154 -52q-248 -70 -248 -274q0 -142 152 -142q88 0 156 63t100 173z" />
    <glyph glyph-name="atilde" unicode="&#xe3;" horiz-adv-x="741" 
d="M715 1376l55 -37q-76 -129 -154 -129q-58 0 -106 45q-37 29 -57 29q-53 0 -103 -90l-55 37q77 129 156 129q56 0 104 -45q37 -29 57 -29q53 0 103 90zM436 1036q123 0 192.5 -58t69.5 -165q0 -26 -10 -84l-104 -491q-34 -157 -31 -238h-90q-2 27 14 127
q-95 -147 -258 -147q-102 0 -160.5 57.5t-58.5 155.5q0 143 81 226t253 134q152 45 198 74q45 26 58 88v-6l8 41q6 27 6 55q0 69 -44.5 109t-123.5 40t-133.5 -45t-71.5 -129l-8 -43h-90l10 47q26 121 103 186.5t190 65.5zM504 297l57 276q-19 -25 -63 -44t-154 -52
q-248 -70 -248 -274q0 -142 152 -142q88 0 156 63t100 173z" />
    <glyph glyph-name="adieresis" unicode="&#xe4;" horiz-adv-x="741" 
d="M389 1386h92l-43 -204h-92zM616 1386h93l-43 -204h-93zM436 1036q123 0 192.5 -58t69.5 -165q0 -26 -10 -84l-104 -491q-34 -157 -31 -238h-90q-2 27 14 127q-95 -147 -258 -147q-102 0 -160.5 57.5t-58.5 155.5q0 143 81 226t253 134q152 45 198 74q45 26 58 88v-6l8 41
q6 27 6 55q0 69 -44.5 109t-123.5 40t-133.5 -45t-71.5 -129l-8 -43h-90l10 47q26 121 103 186.5t190 65.5zM504 297l57 276q-19 -25 -63 -44t-154 -52q-248 -70 -248 -274q0 -142 152 -142q88 0 156 63t100 173z" />
    <glyph glyph-name="aring" unicode="&#xe5;" horiz-adv-x="741" 
d="M518 1161q-60 0 -97.5 35.5t-37.5 91.5q0 68 46.5 115t113.5 47q61 0 98 -36t37 -93q0 -67 -47 -113.5t-113 -46.5zM541 1389q-37 0 -63.5 -27t-26.5 -68q0 -32 19.5 -51.5t51.5 -19.5q38 0 64 26t26 66q0 33 -19.5 53.5t-51.5 20.5zM436 1036q123 0 192.5 -58t69.5 -165
q0 -26 -10 -84l-104 -491q-34 -157 -31 -238h-90q-2 27 14 127q-95 -147 -258 -147q-102 0 -160.5 57.5t-58.5 155.5q0 143 81 226t253 134q152 45 198 74q45 26 58 88v-6l8 41q6 27 6 55q0 69 -44.5 109t-123.5 40t-133.5 -45t-71.5 -129l-8 -43h-90l10 47
q26 121 103 186.5t190 65.5zM504 297l57 276q-19 -25 -63 -44t-154 -52q-248 -70 -248 -274q0 -142 152 -142q88 0 156 63t100 173z" />
    <glyph glyph-name="ae" unicode="&#xe6;" horiz-adv-x="1202" 
d="M915 1036q128 0 196.5 -65.5t68.5 -184.5q0 -44 -13 -104l-39 -176h-489l-41 -187q-10 -58 -10 -86q0 -172 182 -172q172 0 219 218l8 43h93l-9 -43q-65 -299 -311 -299q-226 0 -266 174q-94 -174 -277 -174q-105 0 -166 59t-61 158q0 141 81 222.5t253 133.5
q152 45 198 74q45 26 58 88v-6l8 41q6 27 6 55q0 69 -44.5 109t-123.5 40t-133.5 -45t-71.5 -129l-8 -43h-90l10 47q26 121 103 186.5t190 65.5q196 0 230 -153q80 153 249 153zM1055 588l24 112q11 64 11 82q0 84 -50.5 128t-138.5 44q-166 0 -213 -213l-31 -147l-2 -6h400
zM248 61q91 0 158 65.5t96 182.5l6 29l49 231q-28 -36 -213 -92q-248 -70 -248 -274q0 -142 152 -142z" />
    <glyph glyph-name="ccedilla" unicode="&#xe7;" horiz-adv-x="727" 
d="M698 688h-90l4 19q11 68 11 86q0 80 -47.5 120.5t-131.5 40.5q-161 0 -208 -209l-95 -436q-10 -58 -10 -86q0 -162 180 -162q162 0 209 207l10 54h88l-10 -54q-58 -288 -299 -288h-18l-19 -80q115 0 115 -90q0 -70 -47.5 -98.5t-140.5 -28.5q-146 0 -146 94q0 17 4 33h76
q-4 -16 -4 -23q0 -43 80 -43q104 0 104 63q0 39 -73 39h-33l29 140q-199 34 -199 235q0 49 12 107l90 420q58 288 303 288q129 0 199 -60.5t70 -176.5q0 -48 -13 -111z" />
    <glyph glyph-name="egrave" unicode="&#xe8;" horiz-adv-x="749" 
d="M498 1407l92 -246h-78l-121 246h107zM446 1036q134 0 205.5 -64.5t71.5 -183.5q0 -48 -12 -106l-39 -176h-492l-39 -187q-10 -58 -10 -86q0 -172 182 -172q172 0 219 218l9 43h92l-8 -43q-65 -299 -312 -299q-134 0 -204 64.5t-70 184.5q0 51 12 109l86 405
q62 293 309 293zM231 741l-32 -153h399l25 112q10 58 10 82q0 84 -50.5 128t-138.5 44q-166 0 -213 -213z" />
    <glyph glyph-name="eacute" unicode="&#xe9;" horiz-adv-x="749" 
d="M635 1407h115l-228 -246h-86zM446 1036q134 0 205.5 -64.5t71.5 -183.5q0 -48 -12 -106l-39 -176h-492l-39 -187q-10 -58 -10 -86q0 -172 182 -172q172 0 219 218l9 43h92l-8 -43q-65 -299 -312 -299q-134 0 -204 64.5t-70 184.5q0 51 12 109l86 405q62 293 309 293z
M231 741l-32 -153h399l25 112q10 58 10 82q0 84 -50.5 128t-138.5 44q-166 0 -213 -213z" />
    <glyph glyph-name="ecircumflex" unicode="&#xea;" horiz-adv-x="749" 
d="M641 1161l-80 189l-166 -189h-86l203 246h111l96 -246h-78zM446 1036q134 0 205.5 -64.5t71.5 -183.5q0 -48 -12 -106l-39 -176h-492l-39 -187q-10 -58 -10 -86q0 -172 182 -172q172 0 219 218l9 43h92l-8 -43q-65 -299 -312 -299q-134 0 -204 64.5t-70 184.5
q0 51 12 109l86 405q62 293 309 293zM231 741l-32 -153h399l25 112q10 58 10 82q0 84 -50.5 128t-138.5 44q-166 0 -213 -213z" />
    <glyph glyph-name="edieresis" unicode="&#xeb;" horiz-adv-x="749" 
d="M403 1386h93l-43 -204h-93zM631 1386h92l-43 -204h-92zM446 1036q134 0 205.5 -64.5t71.5 -183.5q0 -48 -12 -106l-39 -176h-492l-39 -187q-10 -58 -10 -86q0 -172 182 -172q172 0 219 218l9 43h92l-8 -43q-65 -299 -312 -299q-134 0 -204 64.5t-70 184.5q0 51 12 109
l86 405q62 293 309 293zM231 741l-32 -153h399l25 112q10 58 10 82q0 84 -50.5 128t-138.5 44q-166 0 -213 -213z" />
    <glyph glyph-name="igrave" unicode="&#xec;" horiz-adv-x="315" 
d="M369 1161h-78l-121 246h106zM96 0h-94l217 1016h94z" />
    <glyph glyph-name="iacute" unicode="&#xed;" horiz-adv-x="315" 
d="M301 1161h-86l199 246h114zM96 0h-94l217 1016h94z" />
    <glyph glyph-name="icircumflex" unicode="&#xee;" horiz-adv-x="315" 
d="M174 1161h-86l203 246h110l97 -246h-78l-80 189zM96 0h-94l217 1016h94z" />
    <glyph glyph-name="idieresis" unicode="&#xef;" horiz-adv-x="315" 
d="M231 1182h-92l43 204h92zM459 1182h-92l43 204h92zM96 0h-94l217 1016h94z" />
    <glyph glyph-name="eth" unicode="&#xf0;" horiz-adv-x="761" 
d="M772 1434h98l-213 -170q80 -139 80 -332q0 -109 -24 -217l-95 -443q-64 -292 -311 -292q-128 0 -200 64.5t-72 182.5q0 49 12 105l84 381q59 264 266 264q92 0 154.5 -46t85.5 -128q14 77 14 143q0 148 -61 264l-193 -153h-98l258 207q-72 101 -192 170h122
q77 -46 136 -119zM311 61q166 0 213 213l72 336q6 34 6 64q0 102 -51 160.5t-139 58.5q-145 0 -191 -199l-84 -379q-10 -58 -10 -84q0 -170 184 -170z" />
    <glyph glyph-name="ntilde" unicode="&#xf1;" horiz-adv-x="778" 
d="M479 1284q-52 0 -102 -90l-55 37q76 129 155 129q57 0 105 -45q37 -29 57 -29q52 0 102 90l56 -37q-77 -129 -154 -129q-58 0 -106 45q-37 29 -58 29zM516 1036q106 0 163.5 -53.5t57.5 -155.5q0 -47 -12 -106l-154 -721h-94l152 715q10 62 10 88q0 151 -147 151
q-87 0 -154 -67t-96 -185l-150 -702h-94l217 1016h80l-27 -127q92 147 248 147z" />
    <glyph glyph-name="ograve" unicode="&#xf2;" horiz-adv-x="753" 
d="M590 1161h-78l-121 246h107zM307 -20q-128 0 -200 65.5t-72 183.5q0 47 12 103l88 411q65 293 311 293q128 0 200.5 -66t72.5 -184q0 -46 -12 -102l-89 -412q-64 -292 -311 -292zM311 61q166 0 213 213l92 426q11 64 11 84q0 170 -185 170q-166 0 -213 -213l-92 -426
q-10 -58 -10 -84q0 -170 184 -170z" />
    <glyph glyph-name="oacute" unicode="&#xf3;" horiz-adv-x="753" 
d="M522 1161h-86l199 246h115zM307 -20q-128 0 -200 65.5t-72 183.5q0 47 12 103l88 411q65 293 311 293q128 0 200.5 -66t72.5 -184q0 -46 -12 -102l-89 -412q-64 -292 -311 -292zM311 61q166 0 213 213l92 426q11 64 11 84q0 170 -185 170q-166 0 -213 -213l-92 -426
q-10 -58 -10 -84q0 -170 184 -170z" />
    <glyph glyph-name="ocircumflex" unicode="&#xf4;" horiz-adv-x="753" 
d="M395 1161h-86l203 246h111l96 -246h-78l-80 189zM307 -20q-128 0 -200 65.5t-72 183.5q0 47 12 103l88 411q65 293 311 293q128 0 200.5 -66t72.5 -184q0 -46 -12 -102l-89 -412q-64 -292 -311 -292zM311 61q166 0 213 213l92 426q11 64 11 84q0 170 -185 170
q-166 0 -213 -213l-92 -426q-10 -58 -10 -84q0 -170 184 -170z" />
    <glyph glyph-name="otilde" unicode="&#xf5;" horiz-adv-x="753" 
d="M365 1194l-56 37q76 129 156 129q56 0 104 -45q37 -29 58 -29q52 0 102 90l55 -37q-76 -129 -153 -129q-59 0 -107 45q-37 29 -57 29q-52 0 -102 -90zM307 -20q-128 0 -200 65.5t-72 183.5q0 47 12 103l88 411q65 293 311 293q128 0 200.5 -66t72.5 -184q0 -46 -12 -102
l-89 -412q-64 -292 -311 -292zM311 61q166 0 213 213l92 426q11 64 11 84q0 170 -185 170q-166 0 -213 -213l-92 -426q-10 -58 -10 -84q0 -170 184 -170z" />
    <glyph glyph-name="odieresis" unicode="&#xf6;" horiz-adv-x="753" 
d="M453 1182h-93l43 204h93zM680 1182h-92l43 204h92zM307 -20q-128 0 -200 65.5t-72 183.5q0 47 12 103l88 411q65 293 311 293q128 0 200.5 -66t72.5 -184q0 -46 -12 -102l-89 -412q-64 -292 -311 -292zM311 61q166 0 213 213l92 426q11 64 11 84q0 170 -185 170
q-166 0 -213 -213l-92 -426q-10 -58 -10 -84q0 -170 184 -170z" />
    <glyph glyph-name="divide" unicode="&#xf7;" 
d="M483 803h-110v186h110v-186zM770 571h-684v86h684v-86zM483 240h-110v186h110v-186z" />
    <glyph glyph-name="oslash" unicode="&#xf8;" horiz-adv-x="753" 
d="M735 1081l43 -32l-90 -131q31 -57 31 -132q0 -46 -12 -102l-89 -412q-64 -292 -311 -292q-140 0 -209 75l-80 -116l-43 32l88 129q-28 61 -28 129q0 47 12 103l88 411q65 293 311 293q137 0 207 -73zM127 231q0 -28 2 -34l471 688q-46 69 -158 69q-166 0 -213 -213
l-92 -426q-10 -58 -10 -84zM627 784q0 31 -2 39l-473 -690q47 -72 159 -72q166 0 213 213l92 426q11 64 11 84z" />
    <glyph glyph-name="ugrave" unicode="&#xf9;" horiz-adv-x="778" 
d="M506 1407l92 -246h-78l-121 246h107zM537 313l149 703h94l-217 -1016h-80l27 127q-92 -147 -248 -147q-107 0 -164 53t-57 155q0 48 12 107l154 721h94l-151 -715q-11 -68 -11 -88q0 -152 148 -152q87 0 154 67t96 185z" />
    <glyph glyph-name="uacute" unicode="&#xfa;" horiz-adv-x="778" 
d="M643 1407h115l-228 -246h-86zM537 313l149 703h94l-217 -1016h-80l27 127q-92 -147 -248 -147q-107 0 -164 53t-57 155q0 48 12 107l154 721h94l-151 -715q-11 -68 -11 -88q0 -152 148 -152q87 0 154 67t96 185z" />
    <glyph glyph-name="ucircumflex" unicode="&#xfb;" horiz-adv-x="778" 
d="M649 1161l-80 189l-166 -189h-86l203 246h111l96 -246h-78zM537 313l149 703h94l-217 -1016h-80l27 127q-92 -147 -248 -147q-107 0 -164 53t-57 155q0 48 12 107l154 721h94l-151 -715q-11 -68 -11 -88q0 -152 148 -152q87 0 154 67t96 185z" />
    <glyph glyph-name="udieresis" unicode="&#xfc;" horiz-adv-x="778" 
d="M412 1386h92l-43 -204h-92zM639 1386h92l-43 -204h-92zM537 313l149 703h94l-217 -1016h-80l27 127q-92 -147 -248 -147q-107 0 -164 53t-57 155q0 48 12 107l154 721h94l-151 -715q-11 -68 -11 -88q0 -152 148 -152q87 0 154 67t96 185z" />
    <glyph glyph-name="yacute" unicode="&#xfd;" horiz-adv-x="731" 
d="M502 1161h-86l198 246h115zM700 1016h93l-570 -1190q-80 -164 -213 -164q-83 0 -119 33l17 80q42 -31 100 -31q76 0 125 102l86 179l-65 991h90l53 -846z" />
    <glyph glyph-name="thorn" unicode="&#xfe;" horiz-adv-x="778" 
d="M522 1036q107 0 166.5 -55.5t59.5 -157.5q0 -40 -13 -100l-100 -479q-55 -264 -266 -264q-92 0 -155.5 46t-86.5 128l-100 -471h-95l373 1751h94l-110 -523q91 125 233 125zM545 260l96 463q10 58 10 82q0 73 -42 111t-113 38q-89 0 -158.5 -70.5t-95.5 -191.5l-68 -319
q-10 -45 -10 -94q0 -100 51 -159t137 -59q153 0 193 199z" />
    <glyph glyph-name="ydieresis" unicode="&#xff;" horiz-adv-x="731" 
d="M432 1182h-92l43 204h92zM659 1182h-92l43 204h92zM700 1016h93l-570 -1190q-80 -164 -213 -164q-83 0 -119 33l17 80q42 -31 100 -31q76 0 125 102l86 179l-65 991h90l53 -846z" />
    <glyph glyph-name="Amacron" unicode="&#x100;" horiz-adv-x="821" 
d="M451 1640l18 84h397l-18 -84h-397zM33 0h-94l602 1434h129l-4 -1434h-97v330h-399zM573 1298l-368 -884h366z" />
    <glyph glyph-name="amacron" unicode="&#x101;" horiz-adv-x="741" 
d="M319 1243l19 84h397l-18 -84h-398zM436 1036q123 0 192.5 -58t69.5 -165q0 -26 -10 -84l-104 -491q-34 -157 -31 -238h-90q-2 27 14 127q-95 -147 -258 -147q-102 0 -160.5 57.5t-58.5 155.5q0 143 81 226t253 134q152 45 198 74q45 26 58 88v-6l8 41q6 27 6 55
q0 69 -44.5 109t-123.5 40t-133.5 -45t-71.5 -129l-8 -43h-90l10 47q26 121 103 186.5t190 65.5zM504 297l57 276q-19 -25 -63 -44t-154 -52q-248 -70 -248 -274q0 -142 152 -142q88 0 156 63t100 173z" />
    <glyph glyph-name="Abreve" unicode="&#x102;" horiz-adv-x="821" 
d="M805 1778h63q-40 -193 -219 -193q-79 0 -121.5 40t-42.5 110q0 7 4 43h66q-2 -6 -2 -31q0 -88 98 -88q120 0 154 119zM33 0h-94l602 1434h129l-4 -1434h-97v330h-399zM573 1298l-368 -884h366z" />
    <glyph glyph-name="abreve" unicode="&#x103;" horiz-adv-x="741" 
d="M518 1188q-79 0 -121.5 39.5t-42.5 109.5q0 7 4 43h66q-2 -6 -2 -30q0 -88 98 -88q120 0 154 118h63q-40 -192 -219 -192zM436 1036q123 0 192.5 -58t69.5 -165q0 -26 -10 -84l-104 -491q-34 -157 -31 -238h-90q-2 27 14 127q-95 -147 -258 -147q-102 0 -160.5 57.5
t-58.5 155.5q0 143 81 226t253 134q152 45 198 74q45 26 58 88v-6l8 41q6 27 6 55q0 69 -44.5 109t-123.5 40t-133.5 -45t-71.5 -129l-8 -43h-90l10 47q26 121 103 186.5t190 65.5zM504 297l57 276q-19 -25 -63 -44t-154 -52q-248 -70 -248 -274q0 -142 152 -142
q88 0 156 63t100 173z" />
    <glyph glyph-name="Aogonek" unicode="&#x104;" horiz-adv-x="821" 
d="M666 0h-27q-74 -33 -122 -86.5t-48 -108.5t76 -55q45 0 98 27l-10 -72q-49 -22 -111 -22q-63 0 -97 28.5t-34 79.5q0 143 178 219v320h-399l-137 -330h-94l602 1434h129zM573 1298l-368 -884h366z" />
    <glyph glyph-name="aogonek" unicode="&#x105;" horiz-adv-x="741" 
d="M436 1036q123 0 192.5 -58t69.5 -165q0 -26 -10 -84l-104 -491q-34 -157 -31 -238h-33q-170 -95 -170 -195q0 -55 78 -55q46 0 98 27l-10 -72q-55 -22 -110 -22q-134 0 -134 102q0 136 191 231q0 40 14 111q-95 -147 -258 -147q-102 0 -160.5 57.5t-58.5 155.5
q0 143 81 226t253 134q152 45 198 74q45 26 58 88v-6l8 41q6 27 6 55q0 69 -44.5 109t-123.5 40t-133.5 -45t-71.5 -129l-8 -43h-90l10 47q26 121 103 186.5t190 65.5zM504 297l57 276q-19 -25 -63 -44t-154 -52q-248 -70 -248 -274q0 -142 152 -142q88 0 156 63t100 173z
" />
    <glyph glyph-name="Cacute" unicode="&#x106;" horiz-adv-x="784" 
d="M631 1559h-86l198 245h115zM336 -20q-139 0 -215 69t-76 193q0 50 10 98l176 817q31 141 117 219t211 78q142 0 218.5 -69t76.5 -193q0 -46 -12 -98l-27 -117h-92l31 129q8 31 8 70q0 90 -53.5 141t-147.5 51q-88 0 -150 -56.5t-85 -160.5l-176 -825q-9 -34 -9 -76
q0 -88 51.5 -136t147.5 -48q89 0 152 56.5t83 158.5l46 217h92l-47 -224q-64 -294 -330 -294z" />
    <glyph glyph-name="cacute" unicode="&#x107;" horiz-adv-x="727" 
d="M518 1161h-86l199 246h114zM309 -20q-132 0 -202 60.5t-70 180.5q0 49 12 107l90 420q58 288 303 288q129 0 199 -60.5t70 -176.5q0 -48 -13 -111h-90l4 19q11 68 11 86q0 80 -47.5 120.5t-131.5 40.5q-161 0 -208 -209l-95 -436q-10 -58 -10 -86q0 -162 180 -162
q162 0 209 207l10 54h88l-10 -54q-58 -288 -299 -288z" />
    <glyph glyph-name="Ccircumflex" unicode="&#x108;" horiz-adv-x="784" 
d="M504 1559h-86l203 245h110l96 -245h-77l-80 188zM336 -20q-139 0 -215 69t-76 193q0 50 10 98l176 817q31 141 117 219t211 78q142 0 218.5 -69t76.5 -193q0 -46 -12 -98l-27 -117h-92l31 129q8 31 8 70q0 90 -53.5 141t-147.5 51q-88 0 -150 -56.5t-85 -160.5l-176 -825
q-9 -34 -9 -76q0 -88 51.5 -136t147.5 -48q89 0 152 56.5t83 158.5l46 217h92l-47 -224q-64 -294 -330 -294z" />
    <glyph glyph-name="ccircumflex" unicode="&#x109;" horiz-adv-x="727" 
d="M391 1161h-86l203 246h110l97 -246h-78l-80 189zM309 -20q-132 0 -202 60.5t-70 180.5q0 49 12 107l90 420q58 288 303 288q129 0 199 -60.5t70 -176.5q0 -48 -13 -111h-90l4 19q11 68 11 86q0 80 -47.5 120.5t-131.5 40.5q-161 0 -208 -209l-95 -436q-10 -58 -10 -86
q0 -162 180 -162q162 0 209 207l10 54h88l-10 -54q-58 -288 -299 -288z" />
    <glyph glyph-name="Cdotaccent" unicode="&#x10a;" horiz-adv-x="784" 
d="M676 1579h-92l43 205h92zM336 -20q-139 0 -215 69t-76 193q0 50 10 98l176 817q31 141 117 219t211 78q142 0 218.5 -69t76.5 -193q0 -46 -12 -98l-27 -117h-92l31 129q8 31 8 70q0 90 -53.5 141t-147.5 51q-88 0 -150 -56.5t-85 -160.5l-176 -825q-9 -34 -9 -76
q0 -88 51.5 -136t147.5 -48q89 0 152 56.5t83 158.5l46 217h92l-47 -224q-64 -294 -330 -294z" />
    <glyph glyph-name="cdotaccent" unicode="&#x10b;" horiz-adv-x="727" 
d="M563 1182h-92l43 204h92zM309 -20q-132 0 -202 60.5t-70 180.5q0 49 12 107l90 420q58 288 303 288q129 0 199 -60.5t70 -176.5q0 -48 -13 -111h-90l4 19q11 68 11 86q0 80 -47.5 120.5t-131.5 40.5q-161 0 -208 -209l-95 -436q-10 -58 -10 -86q0 -162 180 -162
q162 0 209 207l10 54h88l-10 -54q-58 -288 -299 -288z" />
    <glyph glyph-name="Ccaron" unicode="&#x10c;" horiz-adv-x="784" 
d="M680 1559h-111l-96 245h76l80 -188l166 188h88zM336 -20q-139 0 -215 69t-76 193q0 50 10 98l176 817q31 141 117 219t211 78q142 0 218.5 -69t76.5 -193q0 -46 -12 -98l-27 -117h-92l31 129q8 31 8 70q0 90 -53.5 141t-147.5 51q-88 0 -150 -56.5t-85 -160.5l-176 -825
q-9 -34 -9 -76q0 -88 51.5 -136t147.5 -48q89 0 152 56.5t83 158.5l46 217h92l-47 -224q-64 -294 -330 -294z" />
    <glyph glyph-name="ccaron" unicode="&#x10d;" horiz-adv-x="727" 
d="M567 1161h-110l-97 246h76l80 -188l166 188h88zM309 -20q-132 0 -202 60.5t-70 180.5q0 49 12 107l90 420q58 288 303 288q129 0 199 -60.5t70 -176.5q0 -48 -13 -111h-90l4 19q11 68 11 86q0 80 -47.5 120.5t-131.5 40.5q-161 0 -208 -209l-95 -436q-10 -58 -10 -86
q0 -162 180 -162q162 0 209 207l10 54h88l-10 -54q-58 -288 -299 -288z" />
    <glyph glyph-name="Dcaron" unicode="&#x10e;" horiz-adv-x="831" 
d="M676 1559h-111l-96 245h76l80 -188l166 188h88zM330 0h-328l305 1434h299q268 0 268 -232q0 -44 -14 -115l-160 -749q-37 -179 -123 -258.5t-247 -79.5zM385 1348l-268 -1262h211q117 0 183 60.5t95 195.5l160 758q12 58 12 102q0 78 -41.5 112t-134.5 34h-217z" />
    <glyph glyph-name="dcaron" unicode="&#x10f;" horiz-adv-x="843" 
d="M653 862l123 572h96l-256 -1196q-33 -154 -30 -238h-90q-2 29 14 129q-98 -149 -252 -149q-106 0 -165.5 55.5t-59.5 157.5q0 45 12 100l100 479q55 264 267 264q92 0 155 -46t86 -128zM922 1255l39 179h88l-35 -170l-94 -179h-43l75 170h-30zM537 313l75 355q4 66 4 69
q0 100 -51 158.5t-137 58.5q-152 0 -192 -198l-97 -463q-10 -58 -10 -82q0 -73 42.5 -111.5t113.5 -38.5q87 0 155 67t97 185z" />
    <glyph glyph-name="Dcroat" unicode="&#x110;" horiz-adv-x="854" 
d="M332 1434h299q268 0 268 -232q0 -44 -14 -115l-160 -749q-37 -179 -123.5 -258.5t-247.5 -79.5h-327l149 707h-96l18 81h97zM631 342l160 758q12 58 12 102q0 78 -41.5 112t-134.5 34h-217l-119 -560h192l-16 -81h-195l-131 -621h211q117 0 183.5 60.5t95.5 195.5z" />
    <glyph glyph-name="dslash" unicode="&#x111;" horiz-adv-x="778" 
d="M836 1262h100l-16 -76h-101l-203 -948q-33 -154 -30 -238h-90q-2 29 14 129q-98 -149 -252 -149q-106 0 -165.5 55.5t-59.5 157.5q0 45 12 100l100 479q55 264 267 264q92 0 155 -46t86 -128l70 324h-191l19 76h188l37 172h96zM537 313l75 355q4 66 4 69q0 100 -51 158.5
t-137 58.5q-152 0 -192 -198l-97 -463q-10 -58 -10 -82q0 -73 42.5 -111.5t113.5 -38.5q87 0 155 67t97 185z" />
    <glyph glyph-name="Emacron" unicode="&#x112;" horiz-adv-x="720" 
d="M829 1640h-397l19 84h397zM563 0h-561l305 1434h561l-18 -86h-465l-119 -557h385l-18 -86h-385l-131 -619h465z" />
    <glyph glyph-name="emacron" unicode="&#x113;" horiz-adv-x="749" 
d="M334 1243l18 84h398l-19 -84h-397zM446 1036q134 0 205.5 -64.5t71.5 -183.5q0 -48 -12 -106l-39 -176h-492l-39 -187q-10 -58 -10 -86q0 -172 182 -172q172 0 219 218l9 43h92l-8 -43q-65 -299 -312 -299q-134 0 -204 64.5t-70 184.5q0 51 12 109l86 405q62 293 309 293
zM231 741l-32 -153h399l25 112q10 58 10 82q0 84 -50.5 128t-138.5 44q-166 0 -213 -213z" />
    <glyph glyph-name="Ebreve" unicode="&#x114;" horiz-adv-x="720" 
d="M631 1585q-79 0 -121.5 40t-42.5 110q0 7 4 43h66q-2 -6 -2 -31q0 -88 98 -88q119 0 153 119h64q-40 -193 -219 -193zM563 0h-561l305 1434h561l-18 -86h-465l-119 -557h385l-18 -86h-385l-131 -619h465z" />
    <glyph glyph-name="ebreve" unicode="&#x115;" horiz-adv-x="749" 
d="M532 1188q-79 0 -121 39.5t-42 109.5q0 7 4 43h65q-2 -6 -2 -30q0 -88 99 -88q119 0 153 118h64q-40 -192 -220 -192zM446 1036q134 0 205.5 -64.5t71.5 -183.5q0 -48 -12 -106l-39 -176h-492l-39 -187q-10 -58 -10 -86q0 -172 182 -172q172 0 219 218l9 43h92l-8 -43
q-65 -299 -312 -299q-134 0 -204 64.5t-70 184.5q0 51 12 109l86 405q62 293 309 293zM231 741l-32 -153h399l25 112q10 58 10 82q0 84 -50.5 128t-138.5 44q-166 0 -213 -213z" />
    <glyph glyph-name="Edotaccent" unicode="&#x116;" horiz-adv-x="720" 
d="M666 1579h-93l43 205h93zM563 0h-561l305 1434h561l-18 -86h-465l-119 -557h385l-18 -86h-385l-131 -619h465z" />
    <glyph glyph-name="edotaccent" unicode="&#x117;" horiz-adv-x="749" 
d="M518 1386h92l-43 -204h-92zM446 1036q134 0 205.5 -64.5t71.5 -183.5q0 -48 -12 -106l-39 -176h-492l-39 -187q-10 -58 -10 -86q0 -172 182 -172q172 0 219 218l9 43h92l-8 -43q-65 -299 -312 -299q-134 0 -204 64.5t-70 184.5q0 51 12 109l86 405q62 293 309 293z
M231 741l-32 -153h399l25 112q10 58 10 82q0 84 -50.5 128t-138.5 44q-166 0 -213 -213z" />
    <glyph glyph-name="Eogonek" unicode="&#x118;" horiz-adv-x="720" 
d="M868 1434l-18 -86h-465l-119 -557h385l-18 -86h-385l-131 -619h465l-19 -86h-76q-66 -37 -107.5 -90.5t-41.5 -104.5q0 -55 78 -55q45 0 98 27l-10 -72q-55 -22 -111 -22q-63 0 -98 29t-35 79q0 117 148 209h-406l305 1434h561z" />
    <glyph glyph-name="eogonek" unicode="&#x119;" horiz-adv-x="749" 
d="M446 1036q134 0 205.5 -64.5t71.5 -183.5q0 -48 -12 -106l-39 -176h-492l-39 -187q-10 -58 -10 -86q0 -172 182 -172q172 0 219 218l9 43h92l-8 -43q-47 -220 -199 -279q-123 -99 -123 -195q0 -55 78 -55q45 0 98 27l-10 -72q-55 -22 -111 -22q-133 0 -133 102
q0 106 109 195h-21q-134 0 -204 64.5t-70 184.5q0 51 12 109l86 405q62 293 309 293zM231 741l-32 -153h399l25 112q10 58 10 82q0 84 -50.5 128t-138.5 44q-166 0 -213 -213z" />
    <glyph glyph-name="Ecaron" unicode="&#x11a;" horiz-adv-x="720" 
d="M670 1559h-111l-96 245h76l79 -188l166 188h88zM563 0h-561l305 1434h561l-18 -86h-465l-119 -557h385l-18 -86h-385l-131 -619h465z" />
    <glyph glyph-name="ecaron" unicode="&#x11b;" horiz-adv-x="749" 
d="M774 1407l-203 -246h-110l-96 246h75l80 -188l166 188h88zM446 1036q134 0 205.5 -64.5t71.5 -183.5q0 -48 -12 -106l-39 -176h-492l-39 -187q-10 -58 -10 -86q0 -172 182 -172q172 0 219 218l9 43h92l-8 -43q-65 -299 -312 -299q-134 0 -204 64.5t-70 184.5q0 51 12 109
l86 405q62 293 309 293zM231 741l-32 -153h399l25 112q10 58 10 82q0 84 -50.5 128t-138.5 44q-166 0 -213 -213z" />
    <glyph glyph-name="Gcircumflex" unicode="&#x11c;" horiz-adv-x="806" 
d="M506 1559h-86l203 245h110l96 -245h-77l-80 188zM344 -20q-147 0 -224 68t-77 196q0 52 12 110l168 791q67 309 334 309q147 0 224 -68.5t77 -197.5q0 -50 -12 -109l-17 -82h-92l21 99q10 58 10 86q0 186 -211 186q-189 0 -238 -227l-172 -803q-10 -62 -10 -88
q0 -184 211 -184q188 0 240 227l82 387h-207l18 88h299l-100 -479q-64 -309 -336 -309z" />
    <glyph glyph-name="gcircumflex" unicode="&#x11d;" horiz-adv-x="774" 
d="M631 1161l-80 189l-166 -189h-86l203 246h110l97 -246h-78zM657 842l39 174h80l-231 -1094q-52 -260 -312 -260q-127 0 -195.5 56t-68.5 159q0 17 4 45h88q-2 -8 -2 -33q0 -145 179 -145q92 0 143.5 43.5t71.5 140.5l47 228q-91 -125 -234 -125q-109 0 -167 54.5
t-58 158.5q0 44 12 100l90 428q55 264 267 264q98 0 163 -51t84 -143zM293 113q87 0 155 67.5t97 184.5l67 319q2 12 2 53q0 100 -51 158.5t-137 58.5q-153 0 -193 -198l-86 -412q-10 -58 -10 -82q0 -72 42.5 -110.5t113.5 -38.5z" />
    <glyph glyph-name="Gbreve" unicode="&#x11e;" horiz-adv-x="806" 
d="M643 1585q-79 0 -121.5 40t-42.5 110q0 7 4 43h66q-2 -6 -2 -31q0 -88 98 -88q120 0 154 119h63q-40 -193 -219 -193zM344 -20q-147 0 -224 68t-77 196q0 52 12 110l168 791q67 309 334 309q147 0 224 -68.5t77 -197.5q0 -50 -12 -109l-17 -82h-92l21 99q10 58 10 86
q0 186 -211 186q-189 0 -238 -227l-172 -803q-10 -62 -10 -88q0 -184 211 -184q188 0 240 227l82 387h-207l18 88h299l-100 -479q-64 -309 -336 -309z" />
    <glyph glyph-name="gbreve" unicode="&#x11f;" horiz-adv-x="774" 
d="M522 1188q-79 0 -121.5 39.5t-42.5 109.5q0 7 4 43h66q-2 -6 -2 -30q0 -88 98 -88q120 0 154 118h63q-40 -192 -219 -192zM657 842l39 174h80l-231 -1094q-52 -260 -312 -260q-127 0 -195.5 56t-68.5 159q0 17 4 45h88q-2 -8 -2 -33q0 -145 179 -145q92 0 143.5 43.5
t71.5 140.5l47 228q-91 -125 -234 -125q-109 0 -167 54.5t-58 158.5q0 44 12 100l90 428q55 264 267 264q98 0 163 -51t84 -143zM293 113q87 0 155 67.5t97 184.5l67 319q2 12 2 53q0 100 -51 158.5t-137 58.5q-153 0 -193 -198l-86 -412q-10 -58 -10 -82q0 -72 42.5 -110.5
t113.5 -38.5z" />
    <glyph glyph-name="Gdotaccent" unicode="&#x120;" horiz-adv-x="806" 
d="M678 1579h-92l43 205h92zM344 -20q-147 0 -224 68t-77 196q0 52 12 110l168 791q67 309 334 309q147 0 224 -68.5t77 -197.5q0 -50 -12 -109l-17 -82h-92l21 99q10 58 10 86q0 186 -211 186q-189 0 -238 -227l-172 -803q-10 -62 -10 -88q0 -184 211 -184q188 0 240 227
l82 387h-207l18 88h299l-100 -479q-64 -309 -336 -309z" />
    <glyph glyph-name="gdotaccent" unicode="&#x121;" horiz-adv-x="774" 
d="M508 1386h92l-43 -204h-92zM657 842l39 174h80l-231 -1094q-52 -260 -312 -260q-127 0 -195.5 56t-68.5 159q0 17 4 45h88q-2 -8 -2 -33q0 -145 179 -145q92 0 143.5 43.5t71.5 140.5l47 228q-91 -125 -234 -125q-109 0 -167 54.5t-58 158.5q0 44 12 100l90 428
q55 264 267 264q98 0 163 -51t84 -143zM293 113q87 0 155 67.5t97 184.5l67 319q2 12 2 53q0 100 -51 158.5t-137 58.5q-153 0 -193 -198l-86 -412q-10 -58 -10 -82q0 -72 42.5 -110.5t113.5 -38.5z" />
    <glyph glyph-name="uni0122" unicode="&#x122;" horiz-adv-x="806" 
d="M344 -20q-147 0 -224 68t-77 196q0 52 12 110l168 791q67 309 334 309q147 0 224 -68.5t77 -197.5q0 -50 -12 -109l-17 -82h-92l21 99q10 58 10 86q0 186 -211 186q-189 0 -238 -227l-172 -803q-10 -62 -10 -88q0 -184 211 -184q188 0 240 227l82 387h-207l18 88h299
l-100 -479q-64 -309 -336 -309zM203 -367h-41l74 107h-39l34 158h93l-31 -150z" />
    <glyph glyph-name="uni0123" unicode="&#x123;" horiz-adv-x="774" 
d="M551 1339h37l-33 -157h-92l31 151l90 115h41zM657 842l39 174h80l-231 -1094q-52 -260 -312 -260q-127 0 -195.5 56t-68.5 159q0 17 4 45h88q-2 -8 -2 -33q0 -145 179 -145q92 0 143.5 43.5t71.5 140.5l47 228q-91 -125 -234 -125q-109 0 -167 54.5t-58 158.5
q0 44 12 100l90 428q55 264 267 264q98 0 163 -51t84 -143zM293 113q87 0 155 67.5t97 184.5l67 319q2 12 2 53q0 100 -51 158.5t-137 58.5q-153 0 -193 -198l-86 -412q-10 -58 -10 -82q0 -72 42.5 -110.5t113.5 -38.5z" />
    <glyph glyph-name="Hcircumflex" unicode="&#x124;" horiz-adv-x="851" 
d="M528 1559h-86l203 245h111l96 -245h-78l-80 188zM98 0h-96l305 1434h96l-137 -643h439l137 643h96l-305 -1434h-96l149 705h-438z" />
    <glyph glyph-name="hcircumflex" unicode="&#x125;" horiz-adv-x="778" 
d="M504 1559l-80 188l-166 -188h-86l203 245h110l97 -245h-78zM516 1036q106 0 163.5 -53.5t57.5 -155.5q0 -47 -12 -106l-154 -721h-94l152 715q10 62 10 88q0 151 -147 151q-82 0 -147 -59.5t-97 -167.5l-152 -727h-92l301 1434h92l-108 -514q88 116 227 116z" />
    <glyph glyph-name="Hbar" unicode="&#x126;" horiz-adv-x="888" 
d="M899 1151h84l-16 -78h-84l-230 -1073h-96l150 705h-439l-149 -705h-96l229 1073h-90l18 78h88l60 283h96l-59 -283h438l59 283h96zM287 791h438l59 282h-438z" />
    <glyph glyph-name="hbar" unicode="&#x127;" horiz-adv-x="778" 
d="M516 1036q106 0 163.5 -53.5t57.5 -155.5q0 -47 -12 -106l-154 -721h-94l152 715q10 62 10 88q0 151 -147 151q-82 0 -147 -59.5t-97 -167.5l-152 -727h-92l250 1186h-111l19 76h106l37 172h92l-37 -172h187l-17 -76h-184l-57 -266q88 116 227 116z" />
    <glyph glyph-name="Itilde" unicode="&#x128;" horiz-adv-x="317" 
d="M229 1591l-55 37q77 129 156 129q56 0 104 -45q37 -29 58 -29q51 0 102 91l55 -37q-77 -129 -153 -129q-59 0 -107 45q-36 28 -57 28q-53 0 -103 -90zM98 0h-96l305 1434h96z" />
    <glyph glyph-name="itilde" unicode="&#x129;" horiz-adv-x="315" 
d="M143 1194l-55 37q77 129 156 129q56 0 104 -45q37 -29 58 -29q52 0 102 90l55 -37q-77 -129 -153 -129q-59 0 -107 45q-37 29 -57 29q-53 0 -103 -90zM96 0h-94l217 1016h94z" />
    <glyph glyph-name="Imacron" unicode="&#x12a;" horiz-adv-x="317" 
d="M596 1640h-397l18 84h397zM98 0h-96l305 1434h96z" />
    <glyph glyph-name="imacron" unicode="&#x12b;" horiz-adv-x="315" 
d="M510 1243h-397l18 84h397zM96 0h-94l217 1016h94z" />
    <glyph glyph-name="Ibreve" unicode="&#x12c;" horiz-adv-x="317" 
d="M397 1585q-79 0 -121.5 40t-42.5 110q0 4 1 10.5t2 16t2 16.5h65q-2 -6 -2 -31q0 -88 98 -88q120 0 154 119h63q-40 -193 -219 -193zM98 0h-96l305 1434h96z" />
    <glyph glyph-name="ibreve" unicode="&#x12d;" horiz-adv-x="315" 
d="M311 1188q-79 0 -121.5 39.5t-42.5 109.5q0 4 1 10.5t2 16t2 16.5h65q-2 -6 -2 -30q0 -88 98 -88q120 0 154 118h63q-40 -192 -219 -192zM96 0h-94l217 1016h94z" />
    <glyph glyph-name="Iogonek" unicode="&#x12e;" horiz-adv-x="317" 
d="M-55 -195q0 -55 78 -55q45 0 98 27l-10 -72q-55 -22 -111 -22q-133 0 -133 102q0 113 147 215h-12l305 1434h96l-305 -1434h-8q-63 -37 -104 -91.5t-41 -103.5z" />
    <glyph glyph-name="iogonek" unicode="&#x12f;" horiz-adv-x="315" 
d="M254 1182l43 204h92l-43 -204h-92zM96 0h-8q-63 -37 -104 -91.5t-41 -103.5q0 -55 77 -55q46 0 99 27l-10 -72q-55 -22 -111 -22q-133 0 -133 102q0 113 147 215h-10l217 1016h94z" />
    <glyph glyph-name="Idot" unicode="&#x130;" horiz-adv-x="317" 
d="M432 1579h-92l43 205h92zM98 0h-96l305 1434h96z" />
    <glyph glyph-name="dotlessi" unicode="&#x131;" horiz-adv-x="315" 
d="M96 0h-94l217 1016h94z" />
    <glyph glyph-name="IJ" unicode="&#x132;" horiz-adv-x="849" 
d="M98 0h-96l305 1434h96zM406 -8q-94 0 -150 26l18 86q56 -26 129 -26q157 0 201 201l244 1155h96l-246 -1164q-58 -278 -292 -278z" />
    <glyph glyph-name="ij" unicode="&#x133;" horiz-adv-x="628" 
d="M346 1182h-92l43 204h92zM662 1182h-93l43 204h93zM96 0h-94l217 1016h94zM98 -305l19 78q43 -29 82 -29q35 0 54 21.5t30 72.5l249 1178h95l-252 -1192q-34 -162 -168 -162q-70 0 -109 33z" />
    <glyph glyph-name="Jcircumflex" unicode="&#x134;" horiz-adv-x="532" 
d="M457 1559h-86l202 245h111l96 -245h-78l-79 188zM88 -8q-93 0 -149 26l18 86q56 -26 129 -26q157 0 201 201l243 1155h97l-246 -1164q-58 -278 -293 -278z" />
    <glyph glyph-name="jcircumflex" unicode="&#x135;" horiz-adv-x="313" 
d="M174 1161h-86l203 246h110l97 -246h-78l-80 189zM-217 -305l18 78q44 -29 82 -29q35 0 54 21.5t30 72.5l250 1178h94l-252 -1192q-34 -162 -168 -162q-69 0 -108 33z" />
    <glyph glyph-name="uni0136" unicode="&#x136;" horiz-adv-x="823" 
d="M862 1434h111l-445 -547l142 -887h-97l-124 786l-248 -303l-103 -483h-96l305 1434h96l-165 -777zM270 -260h-39l35 158h92l-30 -150l-90 -115h-41z" />
    <glyph glyph-name="uni0137" unicode="&#x137;" horiz-adv-x="761" 
d="M702 1016h111l-364 -391l159 -625h-96l-139 545l-209 -223l-68 -322h-94l305 1434h94l-204 -967zM240 -260h-39l35 158h92l-31 -150l-90 -115h-41z" />
    <glyph glyph-name="kgreenlandic" unicode="&#x138;" horiz-adv-x="757" 
d="M702 1016h111l-364 -391l159 -625h-96l-139 545l-207 -223l-70 -322h-94l217 1016h94l-116 -547z" />
    <glyph glyph-name="Lacute" unicode="&#x139;" horiz-adv-x="696" 
d="M408 1559h-86l198 245h115zM545 0h-543l305 1434h96l-286 -1348h446z" />
    <glyph glyph-name="lacute" unicode="&#x13a;" horiz-adv-x="315" 
d="M385 1559h-86l199 245h114zM96 0h-94l305 1434h94z" />
    <glyph glyph-name="uni013B" unicode="&#x13b;" horiz-adv-x="696" 
d="M545 0h-543l305 1434h96l-286 -1348h446zM184 -367h-41l74 107h-39l35 158h92l-31 -150z" />
    <glyph glyph-name="uni013C" unicode="&#x13c;" horiz-adv-x="315" 
d="M96 0h-94l305 1434h94zM-47 -367h-41l74 107h-39l35 158h92l-31 -150z" />
    <glyph glyph-name="Lcaron" unicode="&#x13d;" horiz-adv-x="696" 
d="M545 0h-543l305 1434h96l-286 -1348h446zM598 1085h-43l76 170h-31l39 179h88l-35 -170z" />
    <glyph glyph-name="lcaron" unicode="&#x13e;" horiz-adv-x="376" 
d="M96 0h-94l305 1434h94zM453 1085h-43l75 170h-30l39 179h88l-35 -170z" />
    <glyph glyph-name="Ldot" unicode="&#x13f;" horiz-adv-x="694" 
d="M545 0h-543l305 1434h96l-286 -1348h446zM582 664h-93l39 180h90z" />
    <glyph glyph-name="ldot" unicode="&#x140;" horiz-adv-x="417" 
d="M96 0h-94l305 1434h94zM416 623h-99l41 186h99z" />
    <glyph glyph-name="Lslash" unicode="&#x141;" horiz-adv-x="749" 
d="M676 997l-25 -118l-381 -332l-98 -461h446l-18 -86h-543l95 444l-148 -129l25 117l147 129l186 873h97l-164 -768z" />
    <glyph glyph-name="lslash" unicode="&#x142;" horiz-adv-x="432" 
d="M350 911l150 127l-23 -110l-151 -127l-170 -801h-95l150 705l-145 -123l22 110l148 123l131 619h94z" />
    <glyph glyph-name="Nacute" unicode="&#x143;" horiz-adv-x="864" 
d="M662 1559h-87l199 245h115zM94 0h-92l305 1434h129l168 -1192l254 1192h92l-305 -1434h-100l-176 1282z" />
    <glyph glyph-name="nacute" unicode="&#x144;" horiz-adv-x="778" 
d="M647 1407h115l-227 -246h-86zM516 1036q106 0 163.5 -53.5t57.5 -155.5q0 -47 -12 -106l-154 -721h-94l152 715q10 62 10 88q0 151 -147 151q-87 0 -154 -67t-96 -185l-150 -702h-94l217 1016h80l-27 -127q92 147 248 147z" />
    <glyph glyph-name="uni0145" unicode="&#x145;" horiz-adv-x="864" 
d="M94 0h-92l305 1434h129l168 -1192l254 1192h92l-305 -1434h-100l-176 1282zM229 -367h-41l74 107h-39l35 158h92l-31 -150z" />
    <glyph glyph-name="uni0146" unicode="&#x146;" horiz-adv-x="778" 
d="M516 1036q106 0 163.5 -53.5t57.5 -155.5q0 -47 -12 -106l-154 -721h-94l152 715q10 62 10 88q0 151 -147 151q-87 0 -154 -67t-96 -185l-150 -702h-94l217 1016h80l-27 -127q92 147 248 147zM219 -260h-39l35 158h92l-31 -150l-90 -115h-41z" />
    <glyph glyph-name="Ncaron" unicode="&#x147;" horiz-adv-x="864" 
d="M711 1559h-111l-96 245h76l79 -188l166 188h88zM94 0h-92l305 1434h129l168 -1192l254 1192h92l-305 -1434h-100l-176 1282z" />
    <glyph glyph-name="ncaron" unicode="&#x148;" horiz-adv-x="778" 
d="M786 1407l-202 -246h-111l-96 246h76l79 -188l166 188h88zM516 1036q106 0 163.5 -53.5t57.5 -155.5q0 -47 -12 -106l-154 -721h-94l152 715q10 62 10 88q0 151 -147 151q-87 0 -154 -67t-96 -185l-150 -702h-94l217 1016h80l-27 -127q92 147 248 147z" />
    <glyph glyph-name="napostrophe" unicode="&#x149;" horiz-adv-x="778" 
d="M246 1262l-101 -177h-41l80 168h-34l38 181h93zM516 1036q106 0 163.5 -53.5t57.5 -155.5q0 -47 -12 -106l-154 -721h-94l152 715q10 62 10 88q0 151 -147 151q-87 0 -154 -67t-96 -185l-150 -702h-94l217 1016h80l-27 -127q92 147 248 147z" />
    <glyph glyph-name="Eng" unicode="&#x14a;" horiz-adv-x="864" 
d="M340 -338q-81 0 -150 29l19 80q56 -29 131 -29q153 0 197 203q18 68 18 100q0 21 -2 27l-184 1210l-275 -1282h-92l305 1434h129l174 -1164l248 1164h92l-317 -1489q-59 -283 -293 -283z" />
    <glyph glyph-name="eng" unicode="&#x14b;" horiz-adv-x="778" 
d="M516 1036q106 0 163.5 -53.5t57.5 -155.5q0 -47 -12 -106l-184 -866q-43 -193 -207 -193q-81 0 -137 35l16 80q50 -33 115 -33q50 0 77.5 29t45.5 98l178 844q10 62 10 88q0 151 -147 151q-87 0 -154 -67t-96 -185l-150 -702h-94l217 1016h80l-27 -127q92 147 248 147z
" />
    <glyph glyph-name="Omacron" unicode="&#x14c;" 
d="M848 1640h-397l18 84h397zM346 -20q-146 0 -224.5 70.5t-78.5 199.5q0 48 12 106l168 787q68 311 334 311q148 0 226.5 -70t78.5 -200q0 -48 -12 -107l-166 -788q-64 -309 -338 -309zM354 66q188 0 234 227l170 801q10 58 10 84q0 92 -54.5 141t-158.5 49
q-190 0 -236 -229l-172 -799q-10 -58 -10 -84q0 -190 217 -190z" />
    <glyph glyph-name="omacron" unicode="&#x14d;" horiz-adv-x="753" 
d="M731 1243h-397l18 84h398zM307 -20q-128 0 -200 65.5t-72 183.5q0 47 12 103l88 411q65 293 311 293q128 0 200.5 -66t72.5 -184q0 -46 -12 -102l-89 -412q-64 -292 -311 -292zM311 61q166 0 213 213l92 426q11 64 11 84q0 170 -185 170q-166 0 -213 -213l-92 -426
q-10 -58 -10 -84q0 -170 184 -170z" />
    <glyph glyph-name="Obreve" unicode="&#x14e;" 
d="M649 1585q-79 0 -121.5 40t-42.5 110q0 7 4 43h66q-2 -6 -2 -31q0 -88 98 -88q120 0 154 119h63q-40 -193 -219 -193zM346 -20q-146 0 -224.5 70.5t-78.5 199.5q0 48 12 106l168 787q68 311 334 311q148 0 226.5 -70t78.5 -200q0 -48 -12 -107l-166 -788
q-64 -309 -338 -309zM354 66q188 0 234 227l170 801q10 58 10 84q0 92 -54.5 141t-158.5 49q-190 0 -236 -229l-172 -799q-10 -58 -10 -84q0 -190 217 -190z" />
    <glyph glyph-name="obreve" unicode="&#x14f;" horiz-adv-x="753" 
d="M532 1188q-79 0 -121 39.5t-42 109.5q0 7 4 43h65q-2 -6 -2 -30q0 -88 99 -88q119 0 153 118h64q-40 -192 -220 -192zM307 -20q-128 0 -200 65.5t-72 183.5q0 47 12 103l88 411q65 293 311 293q128 0 200.5 -66t72.5 -184q0 -46 -12 -102l-89 -412q-64 -292 -311 -292z
M311 61q166 0 213 213l92 426q11 64 11 84q0 170 -185 170q-166 0 -213 -213l-92 -426q-10 -58 -10 -84q0 -170 184 -170z" />
    <glyph glyph-name="Ohungarumlaut" unicode="&#x150;" 
d="M524 1559h-86l199 245h115zM758 1559h-86l198 245h115zM346 -20q-146 0 -224.5 70.5t-78.5 199.5q0 48 12 106l168 787q68 311 334 311q148 0 226.5 -70t78.5 -200q0 -48 -12 -107l-166 -788q-64 -309 -338 -309zM354 66q188 0 234 227l170 801q10 58 10 84
q0 92 -54.5 141t-158.5 49q-190 0 -236 -229l-172 -799q-10 -58 -10 -84q0 -190 217 -190z" />
    <glyph glyph-name="ohungarumlaut" unicode="&#x151;" horiz-adv-x="753" 
d="M408 1161h-86l198 246h115zM641 1161h-86l199 246h114zM307 -20q-128 0 -200 65.5t-72 183.5q0 47 12 103l88 411q65 293 311 293q128 0 200.5 -66t72.5 -184q0 -46 -12 -102l-89 -412q-64 -292 -311 -292zM311 61q166 0 213 213l92 426q11 64 11 84q0 170 -185 170
q-166 0 -213 -213l-92 -426q-10 -58 -10 -84q0 -170 184 -170z" />
    <glyph glyph-name="OE" unicode="&#x152;" horiz-adv-x="1234" 
d="M1077 0h-774q-258 0 -258 225q0 61 14 121l160 750q37 177 127 257.5t254 80.5h782l-18 -86h-465l-119 -557h385l-18 -86h-385l-131 -619h465zM319 86h216l268 1262h-209q-117 0 -183.5 -60.5t-95.5 -195.5l-161 -758q-13 -63 -13 -103q0 -77 42.5 -111t135.5 -34z" />
    <glyph glyph-name="oe" unicode="&#x153;" horiz-adv-x="1230" 
d="M938 1036q133 0 202.5 -63t69.5 -182q0 -51 -12 -109l-39 -176h-491l-39 -187q-11 -64 -11 -86q0 -172 183 -172q172 0 219 218l8 43h92l-8 -43q-65 -299 -307 -299q-212 0 -252 165q-76 -165 -250 -165q-128 0 -198 64.5t-70 182.5q0 47 12 105l88 411q65 293 307 293
q206 0 246 -162q79 162 250 162zM311 61q166 0 213 213l92 426q11 64 11 84q0 170 -185 170q-166 0 -213 -213l-92 -426q-10 -58 -10 -84q0 -170 184 -170zM719 741l-33 -153h399l25 112q10 58 10 82q0 84 -50 128t-138 44q-166 0 -213 -213z" />
    <glyph glyph-name="Racute" unicode="&#x154;" horiz-adv-x="815" 
d="M621 1559h-86l198 245h115zM98 0h-96l305 1434h291q260 0 260 -217q0 -49 -12 -111l-19 -88q-29 -137 -87 -207.5t-160 -93.5v-2q135 -24 135 -183q0 -42 -13 -102l-55 -262q-20 -97 -20 -150v-18h-92v29q3 71 18 147l55 266q13 57 13 93q0 77 -45.5 110t-149.5 33h-182z
M385 1348l-123 -582h170q129 0 198.5 56t98.5 188l21 96q12 56 12 96q0 146 -178 146h-199z" />
    <glyph glyph-name="racute" unicode="&#x155;" horiz-adv-x="528" 
d="M539 1407h114l-227 -246h-86zM295 1016l-29 -144q83 164 238 164q57 0 96 -22l-18 -90q-36 22 -97 22q-182 0 -252 -284l-141 -662h-94l217 1016h80z" />
    <glyph glyph-name="uni0156" unicode="&#x156;" horiz-adv-x="815" 
d="M98 0h-96l305 1434h291q260 0 260 -217q0 -49 -12 -111l-19 -88q-29 -137 -87 -207.5t-160 -93.5v-2q135 -24 135 -183q0 -42 -13 -102l-55 -262q-20 -97 -20 -150v-18h-92v29q3 71 18 147l55 266q13 57 13 93q0 77 -45.5 110t-149.5 33h-182zM385 1348l-123 -582h170
q129 0 198.5 56t98.5 188l21 96q12 56 12 96q0 146 -178 146h-199zM227 -367h-41l74 107h-39l35 158h92l-31 -150z" />
    <glyph glyph-name="uni0157" unicode="&#x157;" horiz-adv-x="528" 
d="M504 1036q57 0 96 -22l-18 -90q-36 22 -97 22q-182 0 -252 -284l-141 -662h-94l217 1016h80l-29 -144q83 164 238 164zM-14 -260h-39l35 158h92l-31 -150l-90 -115h-41z" />
    <glyph glyph-name="Rcaron" unicode="&#x158;" horiz-adv-x="815" 
d="M670 1559h-111l-96 245h76l79 -188l166 188h88zM98 0h-96l305 1434h291q260 0 260 -217q0 -49 -12 -111l-19 -88q-29 -137 -87 -207.5t-160 -93.5v-2q135 -24 135 -183q0 -42 -13 -102l-55 -262q-20 -97 -20 -150v-18h-92v29q3 71 18 147l55 266q13 57 13 93
q0 77 -45.5 110t-149.5 33h-182zM385 1348l-123 -582h170q129 0 198.5 56t98.5 188l21 96q12 56 12 96q0 146 -178 146h-199z" />
    <glyph glyph-name="rcaron" unicode="&#x159;" horiz-adv-x="528" 
d="M678 1407l-203 -246h-110l-97 246h76l80 -188l166 188h88zM295 1016l-29 -144q83 164 238 164q57 0 96 -22l-18 -90q-36 22 -97 22q-182 0 -252 -284l-141 -662h-94l217 1016h80z" />
    <glyph glyph-name="Sacute" unicode="&#x15a;" horiz-adv-x="751" 
d="M600 1544h-86l199 246h114zM293 -20q-134 0 -206.5 66t-72.5 190q0 45 13 108l10 49h92l-14 -63q-11 -64 -11 -84q0 -180 199 -180q117 0 184 88q68 89 68 213q0 157 -170 327q-192 192 -192 377q0 169 96.5 276t255.5 107q134 0 205 -64.5t71 -185.5q0 -57 -14 -112
l-6 -27h-92l10 41q12 50 12 88q0 85 -51.5 129.5t-144.5 44.5q-113 0 -179.5 -79.5t-66.5 -203.5q0 -159 172 -331q190 -193 190 -377q0 -171 -96 -287q-94 -110 -262 -110z" />
    <glyph glyph-name="sacute" unicode="&#x15b;" horiz-adv-x="688" 
d="M483 1161h-86l199 246h115zM260 -20q-113 0 -182.5 57t-69.5 160q0 42 8 73l4 21h89l-7 -29q-6 -30 -6 -55q0 -71 47.5 -108.5t124.5 -37.5q99 0 156 59.5t57 145.5q0 68 -38 114.5t-119 94.5l-74 47q-17 12 -57 49q-66 66 -66 168q0 122 84 209q85 88 221 88
q108 0 171 -58.5t63 -158.5q0 -37 -9 -71h-88q9 46 9 63q0 66 -41 104.5t-113 38.5q-88 0 -146.5 -57.5t-58.5 -142.5q0 -65 38 -110t122 -93q53 -33 74.5 -49t54.5 -49q67 -59 67 -172q0 -124 -86 -213q-85 -88 -229 -88z" />
    <glyph glyph-name="Scircumflex" unicode="&#x15c;" horiz-adv-x="751" 
d="M473 1544h-86l203 246h110l97 -246h-78l-80 189zM293 -20q-134 0 -206.5 66t-72.5 190q0 45 13 108l10 49h92l-14 -63q-11 -64 -11 -84q0 -180 199 -180q117 0 184 88q68 89 68 213q0 157 -170 327q-192 192 -192 377q0 169 96.5 276t255.5 107q134 0 205 -64.5
t71 -185.5q0 -57 -14 -112l-6 -27h-92l10 41q12 50 12 88q0 85 -51.5 129.5t-144.5 44.5q-113 0 -179.5 -79.5t-66.5 -203.5q0 -159 172 -331q190 -193 190 -377q0 -171 -96 -287q-94 -110 -262 -110z" />
    <glyph glyph-name="scircumflex" unicode="&#x15d;" horiz-adv-x="688" 
d="M356 1161h-86l203 246h111l96 -246h-78l-80 189zM260 -20q-113 0 -182.5 57t-69.5 160q0 42 8 73l4 21h89l-7 -29q-6 -30 -6 -55q0 -71 47.5 -108.5t124.5 -37.5q99 0 156 59.5t57 145.5q0 68 -38 114.5t-119 94.5l-74 47q-17 12 -57 49q-66 66 -66 168q0 122 84 209
q85 88 221 88q108 0 171 -58.5t63 -158.5q0 -37 -9 -71h-88q9 46 9 63q0 66 -41 104.5t-113 38.5q-88 0 -146.5 -57.5t-58.5 -142.5q0 -65 38 -110t122 -93q53 -33 74.5 -49t54.5 -49q67 -59 67 -172q0 -124 -86 -213q-85 -88 -229 -88z" />
    <glyph glyph-name="Scedilla" unicode="&#x15e;" horiz-adv-x="751" 
d="M545 1454q134 0 205 -64.5t71 -185.5q0 -57 -14 -112l-6 -27h-92l10 41q12 50 12 88q0 85 -51.5 129.5t-144.5 44.5q-113 0 -179.5 -79.5t-66.5 -203.5q0 -159 172 -331q190 -193 190 -377q0 -171 -96 -287q-94 -110 -262 -110h-4l-17 -72q115 0 115 -90
q0 -70 -47.5 -98.5t-140.5 -28.5q-146 0 -146 94q0 17 4 33h76q-4 -16 -4 -23q0 -43 80 -43q104 0 104 64q0 39 -73 39h-33l26 129q-219 27 -219 252q0 45 13 108l10 49h92l-14 -63q-11 -64 -11 -84q0 -180 199 -180q117 0 184 88q68 89 68 213q0 157 -170 327
q-192 192 -192 377q0 169 96.5 276t255.5 107z" />
    <glyph glyph-name="scedilla" unicode="&#x15f;" horiz-adv-x="688" 
d="M657 748h-88q9 46 9 63q0 66 -41 104.5t-113 38.5q-88 0 -146.5 -57.5t-58.5 -142.5q0 -65 38 -110t122 -93q53 -33 74.5 -49t54.5 -49q67 -59 67 -172q0 -124 -86 -213q-85 -88 -229 -88l-18 -80q114 0 114 -90q0 -70 -47.5 -98.5t-140.5 -28.5q-145 0 -145 94
q0 17 4 33h75q-4 -16 -4 -23q0 -43 80 -43q105 0 105 63q0 39 -74 39h-33l29 138q-90 12 -143.5 67.5t-53.5 145.5q0 42 8 73l4 21h89l-7 -29q-6 -30 -6 -55q0 -71 47.5 -108.5t124.5 -37.5q99 0 156 59.5t57 145.5q0 68 -38 114.5t-119 94.5l-74 47q-17 12 -57 49
q-66 66 -66 168q0 122 84 209q85 88 221 88q108 0 171 -58.5t63 -158.5q0 -37 -9 -71z" />
    <glyph glyph-name="Scaron" unicode="&#x160;" horiz-adv-x="751" 
d="M649 1544h-110l-97 246h76l80 -188l166 188h88zM293 -20q-134 0 -206.5 66t-72.5 190q0 45 13 108l10 49h92l-14 -63q-11 -64 -11 -84q0 -180 199 -180q117 0 184 88q68 89 68 213q0 157 -170 327q-192 192 -192 377q0 169 96.5 276t255.5 107q134 0 205 -64.5t71 -185.5
q0 -57 -14 -112l-6 -27h-92l10 41q12 50 12 88q0 85 -51.5 129.5t-144.5 44.5q-113 0 -179.5 -79.5t-66.5 -203.5q0 -159 172 -331q190 -193 190 -377q0 -171 -96 -287q-94 -110 -262 -110z" />
    <glyph glyph-name="scaron" unicode="&#x161;" horiz-adv-x="688" 
d="M532 1161h-110l-96 246h75l80 -188l166 188h88zM260 -20q-113 0 -182.5 57t-69.5 160q0 42 8 73l4 21h89l-7 -29q-6 -30 -6 -55q0 -71 47.5 -108.5t124.5 -37.5q99 0 156 59.5t57 145.5q0 68 -38 114.5t-119 94.5l-74 47q-17 12 -57 49q-66 66 -66 168q0 122 84 209
q85 88 221 88q108 0 171 -58.5t63 -158.5q0 -37 -9 -71h-88q9 46 9 63q0 66 -41 104.5t-113 38.5q-88 0 -146.5 -57.5t-58.5 -142.5q0 -65 38 -110t122 -93q53 -33 74.5 -49t54.5 -49q67 -59 67 -172q0 -124 -86 -213q-85 -88 -229 -88z" />
    <glyph glyph-name="uni0162" unicode="&#x162;" horiz-adv-x="727" 
d="M221 1348l19 86h641l-19 -86h-272l-287 -1348h-20l-25 -100q115 0 115 -90q0 -70 -47.5 -98.5t-141.5 -28.5q-145 0 -145 94q0 17 4 33h76q-4 -16 -4 -23q0 -43 80 -43q104 0 104 63q0 39 -74 39h-32l32 154h-18l287 1348h-273z" />
    <glyph glyph-name="uni0163" unicode="&#x163;" horiz-adv-x="530" 
d="M575 936h-213l-157 -739q-6 -27 -6 -47q0 -89 100 -89q45 0 92 21l-10 -84q-47 -18 -113 -18q-27 0 -51 6l-20 -86q114 0 114 -90q0 -70 -47.5 -98.5t-140.5 -28.5q-146 0 -146 94q0 13 5 33h75q-4 -16 -4 -23q0 -43 80 -43q105 0 105 63q0 39 -74 39h-33l35 160
q-62 44 -62 131q0 22 7 62l157 737h-137l19 80h137l78 311h79l-65 -311h215z" />
    <glyph glyph-name="Tcaron" unicode="&#x164;" horiz-adv-x="727" 
d="M641 1559h-111l-96 245h76l80 -188l166 188h88zM303 0h-96l287 1348h-273l19 86h641l-19 -86h-272z" />
    <glyph glyph-name="tcaron" unicode="&#x165;" horiz-adv-x="528" 
d="M522 1292l39 178h88l-35 -170l-94 -178h-43l76 170h-31zM365 1327h79l-65 -311h215l-19 -80h-213l-157 -739q-6 -27 -6 -47q0 -89 100 -89q45 0 92 21l-10 -84q-47 -18 -113 -18q-76 0 -120 41.5t-44 115.5q0 22 7 62l157 737h-137l19 80h137z" />
    <glyph glyph-name="Tbar" unicode="&#x166;" horiz-adv-x="724" 
d="M881 1434l-19 -86h-272l-119 -557h186l-18 -86h-186l-150 -705h-96l149 705h-188l18 86h189l119 557h-273l19 86h641z" />
    <glyph glyph-name="tbar" unicode="&#x167;" horiz-adv-x="530" 
d="M594 1016l-19 -80h-213l-79 -371h178l-17 -65h-176l-63 -303q-6 -27 -6 -47q0 -89 100 -89q45 0 92 21l-10 -84q-47 -18 -113 -18q-76 0 -120 41.5t-44 115.5q0 22 7 62l63 301h-117l19 65h112l80 371h-137l19 80h137l78 311h79l-65 -311h215z" />
    <glyph glyph-name="Utilde" unicode="&#x168;" horiz-adv-x="827" 
d="M485 1591l-55 37q76 129 156 129q56 0 104 -45q37 -29 58 -29q51 0 102 91l55 -37q-77 -129 -153 -129q-59 0 -107 45q-36 28 -57 28q-53 0 -103 -90zM352 -20q-141 0 -221 69t-80 197q0 50 12 108l230 1080h96l-233 -1094q-11 -64 -11 -84q0 -92 57 -141t156 -49
q183 0 232 227l244 1141h94l-244 -1143q-65 -311 -332 -311z" />
    <glyph glyph-name="utilde" unicode="&#x169;" horiz-adv-x="778" 
d="M475 1284q-52 0 -102 -90l-56 37q77 129 156 129q57 0 105 -45q37 -29 57 -29q52 0 102 90l56 -37q-77 -129 -154 -129q-59 0 -107 45q-37 29 -57 29zM537 313l149 703h94l-217 -1016h-80l27 127q-92 -147 -248 -147q-107 0 -164 53t-57 155q0 48 12 107l154 721h94
l-151 -715q-11 -68 -11 -88q0 -152 148 -152q87 0 154 67t96 185z" />
    <glyph glyph-name="Umacron" unicode="&#x16a;" horiz-adv-x="827" 
d="M852 1640h-397l18 84h397zM352 -20q-141 0 -221 69t-80 197q0 50 12 108l230 1080h96l-233 -1094q-11 -64 -11 -84q0 -92 57 -141t156 -49q183 0 232 227l244 1141h94l-244 -1143q-65 -311 -332 -311z" />
    <glyph glyph-name="umacron" unicode="&#x16b;" horiz-adv-x="778" 
d="M360 1327h398l-19 -84h-397zM537 313l149 703h94l-217 -1016h-80l27 127q-92 -147 -248 -147q-107 0 -164 53t-57 155q0 48 12 107l154 721h94l-151 -715q-11 -68 -11 -88q0 -152 148 -152q87 0 154 67t96 185z" />
    <glyph glyph-name="Ubreve" unicode="&#x16c;" horiz-adv-x="827" 
d="M653 1585q-79 0 -121.5 40t-42.5 110q0 4 1 10.5t2 16t2 16.5h65q-2 -6 -2 -31q0 -88 98 -88q120 0 154 119h63q-40 -193 -219 -193zM352 -20q-141 0 -221 69t-80 197q0 50 12 108l230 1080h96l-233 -1094q-11 -64 -11 -84q0 -92 57 -141t156 -49q183 0 232 227l244 1141
h94l-244 -1143q-65 -311 -332 -311z" />
    <glyph glyph-name="ubreve" unicode="&#x16d;" horiz-adv-x="778" 
d="M541 1188q-79 0 -121.5 39.5t-42.5 109.5q0 7 4 43h65q-2 -6 -2 -30q0 -88 99 -88q119 0 153 118h64q-40 -192 -219 -192zM537 313l149 703h94l-217 -1016h-80l27 127q-92 -147 -248 -147q-107 0 -164 53t-57 155q0 48 12 107l154 721h94l-151 -715q-11 -68 -11 -88
q0 -152 148 -152q87 0 154 67t96 185z" />
    <glyph glyph-name="Uring" unicode="&#x16e;" horiz-adv-x="827" 
d="M653 1559q-60 0 -97.5 35.5t-37.5 91.5q0 68 46.5 114.5t113.5 46.5q61 0 98 -36t37 -93q0 -67 -47 -113t-113 -46zM657 1620q38 0 64.5 26t26.5 66q0 32 -20 53t-52 21q-37 0 -63.5 -26.5t-26.5 -67.5q0 -32 19.5 -52t51.5 -20zM352 -20q-141 0 -221 69t-80 197
q0 50 12 108l230 1080h96l-233 -1094q-11 -64 -11 -84q0 -92 57 -141t156 -49q183 0 232 227l244 1141h94l-244 -1143q-65 -311 -332 -311z" />
    <glyph glyph-name="uring" unicode="&#x16f;" horiz-adv-x="778" 
d="M541 1161q-60 0 -97.5 35.5t-37.5 91.5q0 69 46.5 115.5t112.5 46.5q61 0 98 -36t37 -93q0 -67 -46.5 -113.5t-112.5 -46.5zM563 1389q-37 0 -63.5 -27t-26.5 -68q0 -32 20 -51.5t52 -19.5q38 0 64 26t26 66q0 32 -20 53t-52 21zM537 313l149 703h94l-217 -1016h-80
l27 127q-92 -147 -248 -147q-107 0 -164 53t-57 155q0 48 12 107l154 721h94l-151 -715q-11 -68 -11 -88q0 -152 148 -152q87 0 154 67t96 185z" />
    <glyph glyph-name="Uhungarumlaut" unicode="&#x170;" horiz-adv-x="827" 
d="M528 1559h-86l199 245h115zM762 1559h-86l198 245h115zM352 -20q-141 0 -221 69t-80 197q0 50 12 108l230 1080h96l-233 -1094q-11 -64 -11 -84q0 -92 57 -141t156 -49q183 0 232 227l244 1141h94l-244 -1143q-65 -311 -332 -311z" />
    <glyph glyph-name="uhungarumlaut" unicode="&#x171;" horiz-adv-x="778" 
d="M528 1407h115l-227 -246h-86zM877 1407l-228 -246h-86l199 246h115zM537 313l149 703h94l-217 -1016h-80l27 127q-92 -147 -248 -147q-107 0 -164 53t-57 155q0 48 12 107l154 721h94l-151 -715q-11 -68 -11 -88q0 -152 148 -152q87 0 154 67t96 185z" />
    <glyph glyph-name="Uogonek" unicode="&#x172;" horiz-adv-x="827" 
d="M590 293l244 1141h94l-244 -1143q-64 -291 -297 -309q-119 -82 -119 -177q0 -55 78 -55q46 0 98 27l-10 -72q-55 -22 -110 -22q-63 0 -98.5 29t-35.5 79q0 106 119 191q-123 11 -190.5 79t-67.5 185q0 50 12 108l230 1080h96l-233 -1094q-11 -64 -11 -84q0 -92 57 -141
t156 -49q183 0 232 227z" />
    <glyph glyph-name="uogonek" unicode="&#x173;" horiz-adv-x="778" 
d="M563 0h-26q-170 -95 -170 -195q0 -55 77 -55q46 0 99 27l-11 -72q-55 -22 -110 -22q-133 0 -133 102q0 137 190 231l6 -2l25 113q-92 -147 -248 -147q-107 0 -164 53t-57 155q0 48 12 107l154 721h94l-151 -715q-11 -68 -11 -88q0 -152 148 -152q87 0 154 67t96 185
l149 703h94z" />
    <glyph glyph-name="Wcircumflex" unicode="&#x174;" horiz-adv-x="1142" 
d="M674 1559h-86l203 245h110l96 -245h-77l-80 188zM283 0h-136l101 1434h92l-94 -1305l465 1305h114l-90 -1305l463 1305h90l-506 -1434h-131l80 1249z" />
    <glyph glyph-name="wcircumflex" unicode="&#x175;" horiz-adv-x="1079" 
d="M559 1161h-86l203 246h110l97 -246h-78l-80 189zM266 0h-121l15 1016h90l-12 -883l358 883h106l-16 -883l363 883h90l-416 -1016h-113l6 842z" />
    <glyph glyph-name="Ycircumflex" unicode="&#x176;" horiz-adv-x="796" 
d="M498 1559h-86l202 245h111l96 -245h-78l-79 188zM336 0h-96l139 647l-137 787h96l111 -662l397 662h102l-473 -787z" />
    <glyph glyph-name="ycircumflex" unicode="&#x177;" horiz-adv-x="731" 
d="M375 1161h-86l203 246h110l96 -246h-77l-80 189zM700 1016h93l-570 -1190q-80 -164 -213 -164q-83 0 -119 33l17 80q42 -31 100 -31q76 0 125 102l86 179l-65 991h90l53 -846z" />
    <glyph glyph-name="Ydieresis" unicode="&#x178;" horiz-adv-x="796" 
d="M555 1579h-92l43 205h92zM782 1579h-92l43 205h92zM336 0h-96l139 647l-137 787h96l111 -662l397 662h102l-473 -787z" />
    <glyph glyph-name="Zacute" unicode="&#x179;" horiz-adv-x="718" 
d="M598 1559h-86l199 245h114zM557 0h-614l18 84l774 1264h-485l18 86h594l-16 -84l-774 -1264h503z" />
    <glyph glyph-name="zacute" unicode="&#x17a;" horiz-adv-x="661" 
d="M485 1161h-86l199 246h115zM494 0h-545l16 78l619 858h-416l18 80h525l-17 -78l-618 -858h436z" />
    <glyph glyph-name="Zdotaccent" unicode="&#x17b;" horiz-adv-x="718" 
d="M643 1579h-92l43 205h92zM557 0h-614l18 84l774 1264h-485l18 86h594l-16 -84l-774 -1264h503z" />
    <glyph glyph-name="zdotaccent" unicode="&#x17c;" horiz-adv-x="661" 
d="M530 1182h-92l43 204h92zM494 0h-545l16 78l619 858h-416l18 80h525l-17 -78l-618 -858h436z" />
    <glyph glyph-name="Zcaron" unicode="&#x17d;" horiz-adv-x="718" 
d="M647 1559h-110l-97 245h76l80 -188l166 188h88zM557 0h-614l18 84l774 1264h-485l18 86h594l-16 -84l-774 -1264h503z" />
    <glyph glyph-name="zcaron" unicode="&#x17e;" horiz-adv-x="661" 
d="M535 1161h-111l-96 246h75l80 -188l166 188h88zM494 0h-545l16 78l619 858h-416l18 80h525l-17 -78l-618 -858h436z" />
    <glyph glyph-name="florin" unicode="&#x192;" 
d="M752 1526l-33 -158q137 -43 137 -197q0 -43 -14 -114l-6 -31q-52 -260 -240 -295v-2q145 -50 145 -205q0 -46 -12 -102l-10 -47q-58 -269 -279 -316l-37 -172h-88l35 164h-14h-131l-35 -164h-88l35 164h-156l19 86h96l246 1159h-97l19 86h155l31 144h88l-31 -144h107
q31 0 39 -2l31 146h88zM739 1016l9 39q12 55 12 98q0 75 -42.5 109t-135.5 34h-166l-113 -526h139q125 0 198 59.5t99 186.5zM649 530q0 81 -51 117.5t-164 36.5h-149l-115 -547h178q118 0 185.5 60t93.5 188l10 49q12 56 12 96z" />
    <glyph glyph-name="AEacute" unicode="&#x1fc;" horiz-adv-x="1204" 
d="M963 1804h114l-227 -245h-86zM1352 1434l-19 -86h-463l-116 -555h383l-19 -86h-383l-133 -621h463l-18 -86h-560l70 330h-344l-184 -330h-95l805 1434h613zM260 414h315l193 903z" />
    <glyph glyph-name="aeacute" unicode="&#x1fd;" horiz-adv-x="1202" 
d="M860 1407h115l-227 -246h-86zM915 1036q128 0 196.5 -65.5t68.5 -184.5q0 -44 -13 -104l-39 -176h-489l-41 -187q-10 -58 -10 -86q0 -172 182 -172q172 0 219 218l8 43h93l-9 -43q-65 -299 -311 -299q-226 0 -266 174q-94 -174 -277 -174q-105 0 -166 59t-61 158
q0 141 81 222.5t253 133.5q152 45 198 74q45 26 58 88v-6l8 41q6 27 6 55q0 69 -44.5 109t-123.5 40t-133.5 -45t-71.5 -129l-8 -43h-90l10 47q26 121 103 186.5t190 65.5q196 0 230 -153q80 153 249 153zM1055 588l24 112q11 64 11 82q0 84 -50.5 128t-138.5 44
q-166 0 -213 -213l-31 -147l-2 -6h400zM248 61q91 0 158 65.5t96 182.5l6 29l49 231q-28 -36 -213 -92q-248 -70 -248 -274q0 -142 152 -142z" />
    <glyph glyph-name="Oslashacute" unicode="&#x1fe;" 
d="M752 1804h114l-227 -245h-86zM885 1491l47 -33l-92 -153q22 -58 22 -121q0 -48 -12 -107l-166 -788q-64 -309 -338 -309q-167 0 -244 92l-77 -129l-50 32l91 152q-23 61 -23 123q0 48 12 106l168 787q68 311 334 311q174 0 250 -94zM137 256v-10l613 1022
q-46 100 -195 100q-190 0 -236 -229l-172 -799q-10 -58 -10 -84zM768 1178v6l-612 -1022q47 -96 198 -96q188 0 234 227l170 801q10 58 10 84z" />
    <glyph glyph-name="oslashacute" unicode="&#x1ff;" horiz-adv-x="753" 
d="M635 1407h115l-228 -246h-86zM735 1081l43 -32l-90 -131q31 -57 31 -132q0 -46 -12 -102l-89 -412q-64 -292 -311 -292q-140 0 -209 75l-80 -116l-43 32l88 129q-28 61 -28 129q0 47 12 103l88 411q65 293 311 293q137 0 207 -73zM127 231q0 -28 2 -34l471 688
q-46 69 -158 69q-166 0 -213 -213l-92 -426q-10 -58 -10 -84zM627 784q0 31 -2 39l-473 -690q47 -72 159 -72q166 0 213 213l92 426q11 64 11 84z" />
    <glyph glyph-name="uni0218" unicode="&#x218;" horiz-adv-x="751" 
d="M293 -20q-134 0 -206.5 66t-72.5 190q0 45 13 108l10 49h92l-14 -63q-11 -64 -11 -84q0 -180 199 -180q117 0 184 88q68 89 68 213q0 157 -170 327q-192 192 -192 377q0 169 96.5 276t255.5 107q134 0 205 -64.5t71 -185.5q0 -57 -14 -112l-6 -27h-92l10 41q12 50 12 88
q0 85 -51.5 129.5t-144.5 44.5q-113 0 -179.5 -79.5t-66.5 -203.5q0 -159 172 -331q190 -193 190 -377q0 -171 -96 -287q-94 -110 -262 -110zM174 -358h-41l74 106h-39l35 158h92l-31 -150z" />
    <glyph glyph-name="uni0219" unicode="&#x219;" horiz-adv-x="688" 
d="M260 -20q-113 0 -182.5 57t-69.5 160q0 42 8 73l4 21h89l-7 -29q-6 -30 -6 -55q0 -71 47.5 -108.5t124.5 -37.5q99 0 156 59.5t57 145.5q0 68 -38 114.5t-119 94.5l-74 47q-17 12 -57 49q-66 66 -66 168q0 122 84 209q85 88 221 88q108 0 171 -58.5t63 -158.5
q0 -37 -9 -71h-88q9 46 9 63q0 66 -41 104.5t-113 38.5q-88 0 -146.5 -57.5t-58.5 -142.5q0 -65 38 -110t122 -93q53 -33 74.5 -49t54.5 -49q67 -59 67 -172q0 -124 -86 -213q-85 -88 -229 -88zM143 -367h-41l74 107h-39l35 158h92l-31 -150z" />
    <glyph glyph-name="uni021A" unicode="&#x21a;" horiz-adv-x="727" 
d="M303 0h-96l287 1348h-273l19 86h641l-19 -86h-272zM160 -367h-41l74 107h-39l34 158h93l-31 -150z" />
    <glyph glyph-name="uni021B" unicode="&#x21b;" horiz-adv-x="530" 
d="M575 936h-213l-157 -739q-6 -27 -6 -47q0 -89 100 -89q45 0 92 21l-10 -84q-47 -18 -113 -18q-76 0 -120 41.5t-44 115.5q0 22 7 62l157 737h-137l19 80h137l78 311h79l-65 -311h215zM131 -260h-39l35 158h92l-31 -150l-90 -115h-41z" />
    <glyph glyph-name="uni0237" unicode="&#x237;" horiz-adv-x="313" 
d="M-217 -305l18 78q44 -29 82 -29q35 0 54 21.5t30 72.5l250 1178h94l-252 -1192q-34 -162 -168 -162q-69 0 -108 33z" />
    <glyph glyph-name="uni02BC" unicode="&#x2bc;" horiz-adv-x="0" 
d="M106 1085h-40l79 168h-34l39 181h92l-35 -172z" />
    <glyph glyph-name="circumflex" unicode="&#x2c6;" horiz-adv-x="1024" 
d="M530 1161h-86l203 246h111l96 -246h-78l-80 189z" />
    <glyph glyph-name="caron" unicode="&#x2c7;" horiz-adv-x="1024" 
d="M707 1161h-111l-96 246h75l80 -188l166 188h88z" />
    <glyph glyph-name="uni02C9" unicode="&#x2c9;" horiz-adv-x="1024" 
d="M866 1243h-397l18 84h398z" />
    <glyph glyph-name="breve" unicode="&#x2d8;" horiz-adv-x="1024" 
d="M668 1188q-79 0 -121.5 39.5t-42.5 109.5q0 7 4 43h65q-2 -6 -2 -30q0 -88 99 -88q119 0 153 118h64q-40 -192 -219 -192z" />
    <glyph glyph-name="dotaccent" unicode="&#x2d9;" horiz-adv-x="1024" 
d="M702 1182h-92l43 204h92z" />
    <glyph glyph-name="ring" unicode="&#x2da;" horiz-adv-x="1024" 
d="M668 1161q-60 0 -98 35.5t-38 91.5q0 68 47 115t113 47q61 0 98 -36t37 -93q0 -67 -46.5 -113.5t-112.5 -46.5zM672 1223q38 0 64 26t26 66q0 32 -20 53t-52 21q-37 0 -63.5 -27t-26.5 -68q0 -32 20 -51.5t52 -19.5z" />
    <glyph glyph-name="ogonek" unicode="&#x2db;" horiz-adv-x="1024" 
d="M367 -317q-63 0 -98.5 29t-35.5 79q0 124 164 219l74 -4q-71 -39 -115.5 -93.5t-44.5 -107.5q0 -55 78 -55q45 0 98 27l-10 -72q-55 -22 -110 -22z" />
    <glyph glyph-name="tilde" unicode="&#x2dc;" horiz-adv-x="1024" 
d="M500 1194l-56 37q76 129 156 129q57 0 105 -45q37 -29 57 -29q52 0 102 90l56 -37q-76 -129 -154 -129q-59 0 -107 45q-37 29 -57 29q-52 0 -102 -90z" />
    <glyph glyph-name="hungarumlaut" unicode="&#x2dd;" horiz-adv-x="1024" 
d="M543 1161h-86l198 246h115zM776 1161h-86l199 246h115z" />
    <glyph glyph-name="gravecomb" unicode="&#x300;" horiz-adv-x="0" 
d="M213 1161h-78l-121 246h107z" />
    <glyph glyph-name="acutecomb" unicode="&#x301;" horiz-adv-x="0" 
d="M145 1161h-86l199 246h115z" />
    <glyph glyph-name="uni0302" unicode="&#x302;" horiz-adv-x="0" 
d="M18 1161h-86l203 246h111l96 -246h-78l-80 189z" />
    <glyph glyph-name="tildecomb" unicode="&#x303;" horiz-adv-x="0" 
d="M-12 1194l-56 37q76 129 156 129q57 0 105 -45q37 -29 57 -29q52 0 102 90l56 -37q-76 -129 -154 -129q-59 0 -107 45q-37 29 -57 29q-52 0 -102 -90z" />
    <glyph glyph-name="uni0304" unicode="&#x304;" horiz-adv-x="0" 
d="M354 1243h-397l18 84h398z" />
    <glyph glyph-name="uni0306" unicode="&#x306;" horiz-adv-x="0" 
d="M156 1188q-79 0 -121.5 39.5t-42.5 109.5q0 7 4 43h65q-2 -6 -2 -30q0 -88 99 -88q119 0 153 118h64q-40 -192 -219 -192z" />
    <glyph glyph-name="uni0307" unicode="&#x307;" horiz-adv-x="0" 
d="M190 1182h-92l43 204h92z" />
    <glyph glyph-name="uni0308" unicode="&#x308;" horiz-adv-x="0" 
d="M76 1182h-92l43 204h92zM303 1182h-92l43 204h92z" />
    <glyph glyph-name="uni030A" unicode="&#x30a;" horiz-adv-x="0" 
d="M156 1161q-60 0 -98 35.5t-38 91.5q0 68 47 115t113 47q61 0 98 -36t37 -93q0 -67 -46.5 -113.5t-112.5 -46.5zM160 1223q38 0 64 26t26 66q0 32 -20 53t-52 21q-37 0 -63.5 -27t-26.5 -68q0 -32 20 -51.5t52 -19.5z" />
    <glyph glyph-name="uni030B" unicode="&#x30b;" horiz-adv-x="0" 
d="M31 1161h-86l198 246h115zM264 1161h-86l199 246h115z" />
    <glyph glyph-name="uni030C" unicode="&#x30c;" horiz-adv-x="0" 
d="M195 1161h-111l-96 246h75l80 -188l166 188h88z" />
    <glyph glyph-name="uni0312" unicode="&#x312;" horiz-adv-x="0" 
d="M188 1182h-92l31 151l90 115h41l-74 -109h37z" />
    <glyph glyph-name="uni0326" unicode="&#x326;" horiz-adv-x="0" 
d="M-203 -367h-41l74 107h-39l35 158h92l-31 -150z" />
    <glyph glyph-name="uni0327" unicode="&#x327;" horiz-adv-x="0" 
d="M-178 -317q-146 0 -146 94q0 13 5 33h75q-4 -16 -4 -23q0 -43 80 -43q105 0 105 63q0 39 -74 39h-33l35 164h57l-26 -110q114 0 114 -90q0 -70 -47.5 -98.5t-140.5 -28.5z" />
    <glyph glyph-name="uni0328" unicode="&#x328;" horiz-adv-x="0" 
d="M-145 -317q-63 0 -98.5 29t-35.5 79q0 124 164 219l74 -4q-71 -39 -115.5 -93.5t-44.5 -107.5q0 -55 78 -55q45 0 98 27l-10 -72q-55 -22 -110 -22z" />
    <glyph glyph-name="uni0335" unicode="&#x335;" horiz-adv-x="0" 
d="M229 676h-387l19 82h385z" />
    <glyph glyph-name="uni0336" unicode="&#x336;" horiz-adv-x="0" 
d="M438 678h-805l19 78h803z" />
    <glyph glyph-name="uni0337" unicode="&#x337;" horiz-adv-x="0" 
d="M401 1049l-759 -1110l-43 32l759 1110z" />
    <glyph glyph-name="uni0338" unicode="&#x338;" horiz-adv-x="0" 
d="M522 1458l-907 -1515l-49 32l909 1516z" />
    <glyph glyph-name="uni0394" unicode="&#x394;" horiz-adv-x="821" 
d="M-61 0l602 1434h129l-4 -1434h-727zM573 1298l-505 -1214h501z" />
    <glyph glyph-name="uni03A9" unicode="&#x3a9;" horiz-adv-x="808" 
d="M250 0h-268l18 86h190l-2 6q-106 130 -106 311q0 91 24 211l113 529q32 152 118.5 231.5t219.5 79.5q142 0 220.5 -70t78.5 -198q0 -50 -12 -109l-99 -471q-38 -183 -106 -299q-71 -118 -190 -219l-7 -2h187l-19 -86h-270l16 88q121 99 186.5 211.5t100.5 280.5l109 514
q10 58 10 84q0 92 -54.5 141t-154.5 49q-191 0 -240 -229l-120 -568q-25 -122 -25 -202q0 -157 98 -285z" />
    <glyph glyph-name="uni03BC" unicode="&#x3bc;" horiz-adv-x="786" 
d="M549 313l149 703h95l-218 -1016h-79l26 127q-92 -147 -248 -147q-117 0 -170 65l-77 -362h-93l285 1333h94l-151 -715q-10 -62 -10 -88q0 -152 147 -152q87 0 154 67t96 185z" />
    <glyph glyph-name="pi" unicode="&#x3c0;" horiz-adv-x="897" 
d="M172 0h-92l199 936h-144l19 80h807l-19 -80h-141l-199 -936h-92l199 936h-338z" />
    <glyph glyph-name="uni1E02" unicode="&#x1e02;" horiz-adv-x="821" 
d="M662 1579h-93l43 205h93zM338 0h-336l305 1434h285q139 0 205.5 -53.5t66.5 -166.5q0 -48 -12 -110l-12 -60q-53 -244 -234 -290v-2q139 -44 139 -205q0 -49 -12 -107l-24 -116q-35 -171 -122.5 -247.5t-248.5 -76.5zM385 1348l-119 -557h178q128 0 199.5 58.5
t97.5 186.5l15 70q12 59 12 98q0 75 -43 109.5t-137 34.5h-203zM248 705l-131 -619h221q117 0 183.5 59.5t92.5 188.5l25 117q12 56 12 98q0 82 -51 119t-164 37h-188z" />
    <glyph glyph-name="uni1E03" unicode="&#x1e03;" horiz-adv-x="780" 
d="M381 1784h92l-43 -205h-92zM522 1036q107 0 166.5 -55.5t59.5 -157.5q0 -40 -13 -100l-100 -479q-55 -264 -266 -264q-100 0 -165.5 53t-82.5 149l-53 -182h-70l305 1434h96l-110 -523q91 125 233 125zM545 260l96 463q10 58 10 82q0 73 -42 111t-113 38
q-89 0 -158.5 -70.5t-95.5 -191.5l-68 -319q-10 -45 -10 -94q0 -100 51 -159t137 -59q153 0 193 199z" />
    <glyph glyph-name="uni1E0A" unicode="&#x1e0a;" horiz-adv-x="831" 
d="M672 1579h-92l43 205h92zM330 0h-328l305 1434h299q268 0 268 -232q0 -44 -14 -115l-160 -749q-37 -179 -123 -258.5t-247 -79.5zM385 1348l-268 -1262h211q117 0 183 60.5t95 195.5l160 758q12 58 12 102q0 78 -41.5 112t-134.5 34h-217z" />
    <glyph glyph-name="uni1E0B" unicode="&#x1e0b;" horiz-adv-x="778" 
d="M803 1579l43 205h92l-43 -205h-92zM653 862l123 572h96l-256 -1196q-33 -154 -30 -238h-90q-2 29 14 129q-98 -149 -252 -149q-106 0 -165.5 55.5t-59.5 157.5q0 45 12 100l100 479q55 264 267 264q92 0 155 -46t86 -128zM537 313l75 355q4 66 4 69q0 100 -51 158.5
t-137 58.5q-152 0 -192 -198l-97 -463q-10 -58 -10 -82q0 -73 42.5 -111.5t113.5 -38.5q87 0 155 67t97 185z" />
    <glyph glyph-name="uni1E1E" unicode="&#x1e1e;" horiz-adv-x="696" 
d="M655 1579h-92l43 205h92zM98 0h-96l305 1434h543l-19 -86h-446l-123 -576h367l-19 -86h-366z" />
    <glyph glyph-name="uni1E1F" unicode="&#x1e1f;" horiz-adv-x="530" 
d="M547 1784h92l-43 -205h-92zM555 1372q-51 0 -79 -29.5t-42 -95.5l-49 -231h215l-18 -80h-213l-201 -936h-94l200 936h-141l19 80h139l53 246q43 192 209 192q87 0 137 -33l-16 -80q-57 31 -119 31z" />
    <glyph glyph-name="uni1E40" unicode="&#x1e40;" horiz-adv-x="1056" 
d="M803 1579h-92l43 205h92zM92 0h-90l305 1434h148l4 -1252l536 1252h150l-305 -1434h-97l279 1305l-561 -1305h-82l-8 1305z" />
    <glyph glyph-name="uni1E41" unicode="&#x1e41;" horiz-adv-x="1210" 
d="M750 1386h92l-43 -204h-92zM965 1036q103 0 158 -53.5t55 -153.5q0 -45 -13 -108l-153 -721h-94l151 715q10 55 10 90q0 149 -139 149q-86 0 -152 -70.5t-92 -193.5l-147 -690h-94l151 715q12 58 12 90q0 149 -141 149q-82 0 -146 -67t-93 -185l-150 -702h-94l217 1016
h80l-27 -129q88 149 240 149q190 0 211 -168q88 168 250 168z" />
    <glyph glyph-name="uni1E56" unicode="&#x1e56;" horiz-adv-x="780" 
d="M666 1579h-93l43 205h93zM98 0h-96l305 1434h293q258 0 258 -226q0 -61 -14 -121l-23 -104q-38 -179 -127 -257.5t-254 -78.5h-204zM385 1348l-131 -615h195q118 0 182.5 59.5t93.5 194.5l25 115q12 56 12 98q0 78 -42.5 113t-133.5 35h-201z" />
    <glyph glyph-name="uni1E57" unicode="&#x1e57;" horiz-adv-x="778" 
d="M539 1386h92l-43 -204h-92zM520 1036q106 0 165.5 -55.5t59.5 -157.5q0 -45 -12 -100l-100 -479q-55 -264 -266 -264q-92 0 -155.5 46t-86.5 128l-100 -471h-95l285 1333h80l-27 -131q95 151 252 151zM543 260l96 463q10 58 10 82q0 73 -42 111t-113 38q-85 0 -151 -63.5
t-97 -175.5l-74 -342l-4 -21q-6 -38 -6 -73q0 -100 51 -159t137 -59q153 0 193 199z" />
    <glyph glyph-name="uni1E60" unicode="&#x1e60;" horiz-adv-x="751" 
d="M645 1565h-92l43 204h92zM293 -20q-134 0 -206.5 66t-72.5 190q0 45 13 108l10 49h92l-14 -63q-11 -64 -11 -84q0 -180 199 -180q117 0 184 88q68 89 68 213q0 157 -170 327q-192 192 -192 377q0 169 96.5 276t255.5 107q134 0 205 -64.5t71 -185.5q0 -57 -14 -112
l-6 -27h-92l10 41q12 50 12 88q0 85 -51.5 129.5t-144.5 44.5q-113 0 -179.5 -79.5t-66.5 -203.5q0 -159 172 -331q190 -193 190 -377q0 -171 -96 -287q-94 -110 -262 -110z" />
    <glyph glyph-name="uni1E61" unicode="&#x1e61;" horiz-adv-x="688" 
d="M528 1182h-92l43 204h92zM260 -20q-113 0 -182.5 57t-69.5 160q0 42 8 73l4 21h89l-7 -29q-6 -30 -6 -55q0 -71 47.5 -108.5t124.5 -37.5q99 0 156 59.5t57 145.5q0 68 -38 114.5t-119 94.5l-74 47q-17 12 -57 49q-66 66 -66 168q0 122 84 209q85 88 221 88
q108 0 171 -58.5t63 -158.5q0 -37 -9 -71h-88q9 46 9 63q0 66 -41 104.5t-113 38.5q-88 0 -146.5 -57.5t-58.5 -142.5q0 -65 38 -110t122 -93q53 -33 74.5 -49t54.5 -49q67 -59 67 -172q0 -124 -86 -213q-85 -88 -229 -88z" />
    <glyph glyph-name="uni1E6A" unicode="&#x1e6a;" horiz-adv-x="727" 
d="M637 1579h-92l43 205h92zM303 0h-96l287 1348h-273l19 86h641l-19 -86h-272z" />
    <glyph glyph-name="uni1E6B" unicode="&#x1e6b;" horiz-adv-x="530" 
d="M432 1677h92l-43 -204h-92zM575 936h-213l-157 -739q-6 -27 -6 -47q0 -89 100 -89q45 0 92 21l-10 -84q-47 -18 -113 -18q-76 0 -120 41.5t-44 115.5q0 22 7 62l157 737h-137l19 80h137l78 311h79l-65 -311h215z" />
    <glyph glyph-name="Wgrave" unicode="&#x1e80;" horiz-adv-x="1142" 
d="M868 1559h-77l-121 245h106zM283 0h-136l101 1434h92l-94 -1305l465 1305h114l-90 -1305l463 1305h90l-506 -1434h-131l80 1249z" />
    <glyph glyph-name="wgrave" unicode="&#x1e81;" horiz-adv-x="1079" 
d="M754 1161h-78l-121 246h107zM266 0h-121l15 1016h90l-12 -883l358 883h106l-16 -883l363 883h90l-416 -1016h-113l6 842z" />
    <glyph glyph-name="Wacute" unicode="&#x1e82;" horiz-adv-x="1142" 
d="M801 1559h-86l198 245h115zM283 0h-136l101 1434h92l-94 -1305l465 1305h114l-90 -1305l463 1305h90l-506 -1434h-131l80 1249z" />
    <glyph glyph-name="wacute" unicode="&#x1e83;" horiz-adv-x="1079" 
d="M686 1161h-86l199 246h114zM266 0h-121l15 1016h90l-12 -883l358 883h106l-16 -883l363 883h90l-416 -1016h-113l6 842z" />
    <glyph glyph-name="Wdieresis" unicode="&#x1e84;" horiz-adv-x="1142" 
d="M731 1579h-92l43 205h92zM958 1579h-92l43 205h92zM283 0h-136l101 1434h92l-94 -1305l465 1305h114l-90 -1305l463 1305h90l-506 -1434h-131l80 1249z" />
    <glyph glyph-name="wdieresis" unicode="&#x1e85;" horiz-adv-x="1079" 
d="M616 1182h-92l43 204h92zM844 1182h-92l43 204h92zM266 0h-121l15 1016h90l-12 -883l358 883h106l-16 -883l363 883h90l-416 -1016h-113l6 842z" />
    <glyph glyph-name="uni1E9E" unicode="&#x1e9e;" horiz-adv-x="833" 
d="M307 1434h631l-16 -86l-363 -504q215 -21 215 -223q0 -48 -14 -119l-35 -164q-37 -179 -123.5 -258.5t-247.5 -79.5h-82l19 86h71q115 0 176.5 59t90.5 195l37 174q10 48 10 92q0 154 -184 154h-50l17 82l364 506h-438l-287 -1348h-96z" />
    <glyph glyph-name="Ygrave" unicode="&#x1ef2;" horiz-adv-x="796" 
d="M692 1559h-78l-120 245h106zM336 0h-96l139 647l-137 787h96l111 -662l397 662h102l-473 -787z" />
    <glyph glyph-name="ygrave" unicode="&#x1ef3;" horiz-adv-x="731" 
d="M569 1161h-77l-121 246h106zM700 1016h93l-570 -1190q-80 -164 -213 -164q-83 0 -119 33l17 80q42 -31 100 -31q76 0 125 102l86 179l-65 991h90l53 -846z" />
    <glyph glyph-name="uni2002" unicode="&#x2002;" horiz-adv-x="614" 
 />
    <glyph glyph-name="uni2003" unicode="&#x2003;" horiz-adv-x="1024" 
 />
    <glyph glyph-name="uni2007" unicode="&#x2007;" 
 />
    <glyph glyph-name="uni2008" unicode="&#x2008;" horiz-adv-x="339" 
 />
    <glyph glyph-name="uni200B" unicode="&#x200b;" horiz-adv-x="0" 
 />
    <glyph glyph-name="figuredash" unicode="&#x2012;" 
d="M834 578h-820l17 73h819z" />
    <glyph glyph-name="endash" unicode="&#x2013;" horiz-adv-x="614" 
d="M629 578h-615l17 73h614z" />
    <glyph glyph-name="emdash" unicode="&#x2014;" horiz-adv-x="1024" 
d="M1038 578h-1024l17 73h1024z" />
    <glyph glyph-name="quoteleft" unicode="&#x2018;" horiz-adv-x="339" 
d="M342 1440h47l-98 -197h37l-41 -186h-99l37 178z" />
    <glyph glyph-name="quoteright" unicode="&#x2019;" horiz-adv-x="339" 
d="M311 1051h-47l98 196h-36l41 187h98l-37 -179z" />
    <glyph glyph-name="quotesinglbase" unicode="&#x201a;" horiz-adv-x="339" 
d="M-2 -197h-47l98 197h-37l41 186h99l-37 -178z" />
    <glyph glyph-name="quotedblleft" unicode="&#x201c;" horiz-adv-x="552" 
d="M342 1434h47l-98 -197h37l-41 -186h-99l37 178zM555 1434h47l-98 -197h37l-41 -186h-99l37 178z" />
    <glyph glyph-name="quotedblright" unicode="&#x201d;" horiz-adv-x="550" 
d="M309 1051h-47l98 196h-36l41 187h98l-37 -179zM520 1051h-47l98 196h-36l40 187h99l-37 -179z" />
    <glyph glyph-name="quotedblbase" unicode="&#x201e;" horiz-adv-x="550" 
d="M-2 -197h-47l98 197h-37l41 186h99l-37 -178zM209 -197h-47l98 197h-37l41 186h98l-36 -178z" />
    <glyph glyph-name="dagger" unicode="&#x2020;" horiz-adv-x="864" 
d="M326 -199h-86l239 1135h-317l18 82h318l88 416h86l-88 -416h317l-18 -82h-318z" />
    <glyph glyph-name="daggerdbl" unicode="&#x2021;" horiz-adv-x="876" 
d="M332 -199h-86l96 461h-317l18 84h317l125 590h-317l18 82h318l88 416h86l-88 -416h317l-18 -82h-318l-125 -590h318l-19 -84h-317z" />
    <glyph glyph-name="bullet" unicode="&#x2022;" horiz-adv-x="614" 
d="M319 514q-41 0 -66.5 24.5t-25.5 61.5q0 46 34 78.5t79 32.5q42 0 67 -24.5t25 -63.5q0 -47 -32.5 -78t-80.5 -31z" />
    <glyph glyph-name="ellipsis" unicode="&#x2026;" horiz-adv-x="1024" 
d="M111 0h-99l41 186h99zM453 0h-99l41 186h99zM795 0h-99l41 186h99z" />
    <glyph glyph-name="perthousand" unicode="&#x2030;" horiz-adv-x="1697" 
d="M336 659q-199 0 -199 175q0 38 8 69l74 350q20 97 76 149t141 52q96 0 147.5 -46t51.5 -128q0 -39 -8 -70l-74 -350q-41 -201 -217 -201zM244 0h-80l866 1434h78zM336 731q112 0 139 131l76 363q6 27 6 49q0 108 -121 108q-112 0 -139 -131l-74 -362q-6 -27 -6 -51
q0 -107 119 -107zM834 -23q-199 0 -199 175q0 38 8 69l74 350q20 97 76 149t141 52q96 0 147.5 -46t51.5 -128q0 -36 -9 -70l-73 -350q-41 -201 -217 -201zM1350 -23q-199 0 -199 175q0 38 8 69l74 350q20 97 76 149t141 52q96 0 147.5 -46t51.5 -128q0 -36 -9 -70l-73 -350
q-41 -201 -217 -201zM834 49q112 0 139 131l76 363q6 27 6 49q0 108 -121 108q-112 0 -139 -131l-74 -362q-6 -27 -6 -51q0 -107 119 -107zM1350 49q112 0 139 131l76 363q6 27 6 49q0 108 -121 108q-112 0 -139 -131l-74 -362q-6 -27 -6 -51q0 -107 119 -107z" />
    <glyph glyph-name="guilsinglleft" unicode="&#x2039;" horiz-adv-x="331" 
d="M236 426h-70l-70 188l148 185h73l-139 -193z" />
    <glyph glyph-name="guilsinglright" unicode="&#x203a;" horiz-adv-x="331" 
d="M135 426h-74l138 192l-56 181h70l68 -189z" />
    <glyph glyph-name="fraction" unicode="&#x2044;" horiz-adv-x="165" 
d="M-264 0h-80l866 1434h78z" />
    <glyph glyph-name="uni2070" unicode="&#x2070;" horiz-adv-x="587" 
d="M367 698q-199 0 -199 174q0 39 8 70l109 506q47 201 217 201q96 0 147 -45.5t51 -128.5q0 -39 -8 -70l-108 -506q-47 -201 -217 -201zM367 770q112 0 139 131l110 518q7 31 7 49q0 109 -121 109q-113 0 -140 -131l-108 -518q-6 -27 -6 -51q0 -107 119 -107z" />
    <glyph glyph-name="uni2074" unicode="&#x2074;" horiz-adv-x="589" 
d="M500 719h-80l41 190h-309l14 72l438 647h90l-139 -649h76l-15 -70h-75zM588 1487l-344 -508h231z" />
    <glyph glyph-name="uni2075" unicode="&#x2075;" horiz-adv-x="591" 
d="M371 698q-97 0 -146 45.5t-49 126.5q0 26 8 70l6 29h76l-8 -39q-6 -24 -6 -49q0 -111 121 -111q110 0 137 133l41 193q6 30 6 55q0 104 -104 104q-92 0 -138 -98l-12 -27h-72l131 498h359l-16 -69h-287l-80 -304q55 70 145 70q156 0 156 -151q0 -45 -8 -76l-43 -201
q-43 -199 -217 -199z" />
    <glyph glyph-name="uni2076" unicode="&#x2076;" horiz-adv-x="587" 
d="M373 698q-199 0 -199 174q0 39 8 70l111 506q44 201 221 201q193 0 193 -174q0 -22 -7 -62h-75q6 35 6 60q0 104 -119 104q-116 0 -143 -141l-50 -228q55 76 150 76q76 0 121 -42t45 -116q0 -38 -8 -69l-35 -158q-47 -201 -219 -201zM373 770q109 0 139 131l35 154
q6 27 6 53q0 104 -115 104q-55 0 -94 -38.5t-53 -102.5l-31 -143q-6 -27 -6 -51q0 -107 119 -107z" />
    <glyph glyph-name="uni2077" unicode="&#x2077;" horiz-adv-x="589" 
d="M276 719h-88l449 840h-326l17 69h407l-14 -69z" />
    <glyph glyph-name="uni2078" unicode="&#x2078;" horiz-adv-x="589" 
d="M162 874q0 37 8 68l18 88q31 147 148 174v2q-72 38 -72 125q0 21 8 62l11 59q41 197 225 197q88 0 142.5 -45t54.5 -123q0 -23 -9 -72l-12 -59q-27 -139 -141 -166v-2q80 -38 80 -133q0 -17 -9 -64l-18 -88q-21 -95 -78.5 -147t-148.5 -52q-95 0 -151 46t-56 130z
M463 1227q116 0 143 123l15 69q6 27 6 49q0 109 -123 109q-117 0 -144 -131l-12 -70q-6 -24 -6 -45q0 -52 33.5 -78t87.5 -26zM371 770q120 0 147 135l21 99q6 27 6 49q0 108 -133 108q-120 0 -144 -129l-20 -98q-6 -27 -6 -51q0 -113 129 -113z" />
    <glyph glyph-name="uni2079" unicode="&#x2079;" horiz-adv-x="587" 
d="M354 698q-192 0 -192 174q0 28 6 62h76q-6 -34 -6 -60q0 -104 118 -104q117 0 144 141l49 228q-55 -76 -150 -76q-76 0 -121 42t-45 116q0 35 9 69l34 158q47 201 220 201q198 0 198 -174q0 -39 -8 -70l-111 -506q-44 -201 -221 -201zM430 1135q55 0 94.5 38.5
t53.5 102.5l30 143q6 27 6 51q0 107 -118 107q-110 0 -140 -131l-34 -154q-7 -32 -7 -53q0 -104 115 -104z" />
    <glyph glyph-name="uni2080" unicode="&#x2080;" horiz-adv-x="587" 
d="M186 -154q-198 0 -198 174q0 39 8 70l108 506q47 201 218 201q96 0 147 -45.5t51 -128.5q0 -39 -8 -70l-109 -506q-47 -201 -217 -201zM186 -82q113 0 140 131l110 518q6 27 6 49q0 109 -120 109q-113 0 -140 -131l-108 -518q-6 -27 -6 -51q0 -107 118 -107z" />
    <glyph glyph-name="uni2081" unicode="&#x2081;" horiz-adv-x="589" 
d="M248 -133h-82l168 768q-56 -39 -170 -45l6 61q141 6 211 125h61z" />
    <glyph glyph-name="uni2082" unicode="&#x2082;" horiz-adv-x="591" 
d="M358 -133h-399l23 100q24 106 82 182.5t167 157.5q95 70 142.5 128.5t64.5 129.5q6 27 6 53q0 107 -114 107q-115 0 -142 -129l-18 -82h-74l19 84q46 199 219 199q94 0 142 -45t48 -125q0 -37 -8 -68q-35 -154 -237 -307q-103 -75 -152 -137.5t-68 -141.5l-8 -36h324z
" />
    <glyph glyph-name="uni2083" unicode="&#x2083;" horiz-adv-x="591" 
d="M180 -154q-96 0 -146 45t-50 125q0 41 8 72l10 47h76l-12 -59q-7 -32 -7 -51q0 -107 119 -107q114 0 141 137l23 109q6 30 6 53q0 90 -98 90h-62l15 70h59q122 0 156 147l8 35q8 27 8 59q0 107 -119 107q-112 0 -139 -131l-14 -64h-74l14 66q44 201 215 201
q197 0 197 -168q0 -26 -8 -70l-6 -31q-35 -159 -150 -186v-2q76 -24 76 -127q0 -31 -6 -61l-23 -107q-43 -199 -217 -199z" />
    <glyph glyph-name="uni2084" unicode="&#x2084;" horiz-adv-x="591" 
d="M319 -133h-79l41 190h-310l15 72l438 647h90l-139 -649h76l-15 -70h-76zM408 635l-345 -508h232z" />
    <glyph glyph-name="uni2085" unicode="&#x2085;" horiz-adv-x="589" 
d="M188 -154q-97 0 -145.5 45.5t-48.5 126.5q0 26 8 70l6 29h76l-8 -39q-6 -24 -6 -49q0 -111 120 -111q111 0 138 133l41 193q6 30 6 55q0 104 -105 104q-91 0 -137 -98l-12 -26h-72l131 497h359l-17 -69h-286l-80 -304q55 70 145 70q156 0 156 -151q0 -45 -8 -76l-43 -201
q-43 -199 -218 -199z" />
    <glyph glyph-name="uni2086" unicode="&#x2086;" horiz-adv-x="589" 
d="M193 -154q-199 0 -199 174q0 39 8 70l111 506q44 201 221 201q192 0 192 -174q0 -27 -6 -62h-76q7 40 7 60q0 104 -119 104q-117 0 -144 -141l-49 -228q55 76 150 76q76 0 121 -42t45 -116q0 -34 -9 -69l-34 -158q-47 -201 -219 -201zM193 -82q109 0 139 131l35 154
q6 27 6 53q0 104 -115 104q-55 0 -94 -38.5t-53 -102.5l-31 -143q-6 -27 -6 -51q0 -107 119 -107z" />
    <glyph glyph-name="uni2087" unicode="&#x2087;" horiz-adv-x="589" 
d="M96 -133h-88l449 840h-326l16 69h408l-14 -69z" />
    <glyph glyph-name="uni2088" unicode="&#x2088;" horiz-adv-x="589" 
d="M-18 23q0 36 8 67l18 88q31 147 148 174v2q-72 38 -72 125q0 21 8 62l10 59q41 197 226 197q88 0 142 -45t54 -123q0 -28 -8 -72l-12 -59q-27 -139 -142 -166v-2q80 -38 80 -133q0 -23 -8 -64l-18 -88q-21 -95 -79 -147t-149 -52q-95 0 -150.5 46.5t-55.5 130.5zM283 375
q116 0 143 123l14 69q6 27 6 49q0 109 -122 109q-117 0 -144 -131l-12 -70q-6 -24 -6 -45q0 -52 33.5 -78t87.5 -26zM190 -82q121 0 148 135l20 99q7 31 7 49q0 108 -134 108q-119 0 -143 -129l-20 -98q-7 -32 -7 -51q0 -113 129 -113z" />
    <glyph glyph-name="uni2089" unicode="&#x2089;" horiz-adv-x="587" 
d="M174 -154q-192 0 -192 174q0 28 6 62h75q-6 -34 -6 -59q0 -105 119 -105q116 0 143 141l50 228q-55 -76 -150 -76q-76 0 -121 42t-45 116q0 38 8 69l35 158q47 201 219 201q199 0 199 -174q0 -39 -8 -70l-111 -506q-44 -201 -221 -201zM250 283q55 0 94 38.5t53 102.5
l31 143q6 27 6 51q0 107 -119 107q-109 0 -139 -131l-35 -154q-6 -27 -6 -53q0 -104 115 -104z" />
    <glyph glyph-name="Euro" unicode="&#x20ac;" 
d="M377 -20q-139 0 -215 69t-76 193q0 46 12 102l54 246h-78l14 74h78l35 157h-78l14 74h76l55 254q31 144 117 224.5t213 80.5q139 0 215 -71t76 -195q0 -48 -12 -103l-13 -55h-90l14 70q9 34 9 74q0 93 -52.5 143.5t-148.5 50.5q-88 0 -149.5 -58.5t-84.5 -164.5l-53 -250
h387l-14 -74h-387l-35 -157h387l-14 -74h-387l-56 -260q-8 -31 -8 -76q0 -90 53 -139t148 -49q88 0 149 57.5t84 161.5l35 164h92l-36 -168q-31 -143 -116.5 -222t-213.5 -79z" />
    <glyph glyph-name="uni20B9" unicode="&#x20b9;" 
d="M274 1434h672l-20 -86h-264q57 -32 86.5 -98t23.5 -146h102l-18 -86h-92q-23 -150 -121.5 -240t-243.5 -90h-180l414 -688h-109l-409 688l18 86h240q129 0 204 63.5t93 180.5h-486l19 86h477q21 244 -238 244h-188z" />
    <glyph glyph-name="uni20BF" unicode="&#x20bf;" 
d="M752 1526l-33 -158q137 -43 137 -197q0 -43 -14 -114l-6 -31q-52 -260 -240 -295v-2q145 -50 145 -205q0 -46 -12 -102l-10 -47q-58 -269 -279 -316l-37 -172h-88l35 164h-14h-131l-35 -164h-88l35 164h-156l19 86h96l246 1159h-97l19 86h155l31 144h88l-31 -144h107
q31 0 39 -2l31 146h88zM739 1016l9 39q12 55 12 98q0 75 -42.5 109t-135.5 34h-166l-113 -526h139q125 0 198 59.5t99 186.5zM649 530q0 81 -51 117.5t-164 36.5h-149l-115 -547h178q118 0 185.5 60t93.5 188l10 49q12 56 12 96z" />
    <glyph glyph-name="uni2113" unicode="&#x2113;" horiz-adv-x="466" 
d="M203 -20q-79 0 -122.5 40.5t-43.5 114.5q0 23 8 64l262 1235h92l-262 -1233q-6 -24 -6 -47q0 -91 94 -91q52 0 103 23l-13 -88q-47 -18 -112 -18z" />
    <glyph glyph-name="uni2116" unicode="&#x2116;" horiz-adv-x="1345" 
d="M92 0h-90l305 1434h139l93 -1192l254 1192h90l-305 -1434h-111l-100 1282zM1098 586q-94 0 -145.5 48t-51.5 134q0 41 8 72l64 303q43 211 227 211q94 0 145.5 -48.5t51.5 -134.5q0 -40 -8 -71l-64 -303q-43 -211 -227 -211zM1100 655q120 0 147 144l68 313q6 30 6 55
q0 56 -32.5 86.5t-92.5 30.5q-118 0 -145 -143l-68 -314q-6 -30 -6 -55q0 -117 123 -117zM1227 387h-406l15 70h405z" />
    <glyph glyph-name="uni2117" unicode="&#x2117;" horiz-adv-x="1572" 
d="M1341 188q-202 -208 -510 -208q-307 0 -509 208q-203 212 -203 529t203 526q202 211 509 211q308 0 510 -211q203 -209 203 -526t-203 -529zM377 244q181 -187 454 -187q275 0 453 187q180 186 180 473t-180 473q-177 186 -453 186q-274 0 -454 -186q-178 -187 -178 -473
t178 -473zM737 260h-82v877h215q109 0 162 -50.5t53 -166.5v-78q0 -115 -53.5 -166t-161.5 -51h-133v-365zM737 1059v-357h129q73 0 105.5 33.5t32.5 114.5v61q0 82 -33 115t-105 33h-129z" />
    <glyph glyph-name="uni2120" unicode="&#x2120;" horiz-adv-x="1226" 
d="M188 870v37h72v-35q0 -118 125 -118q123 0 123 118q0 63 -33 98t-119 74q-88 40 -128 89.5t-40 126.5q0 85 51.5 135.5t141.5 50.5q91 0 140.5 -48t49.5 -134v-19h-71v17q7 75 -55 105.5t-125 0t-56 -101.5q0 -58 33.5 -93.5t120.5 -74.5t126.5 -90t39.5 -129
q0 -90 -52 -140.5t-145 -50.5t-146 48t-53 134zM752 705h-68v729h111l172 -592l170 592h112v-729h-73v628l-181 -628h-61l-182 628v-628z" />
    <glyph glyph-name="trademark" unicode="&#x2122;" horiz-adv-x="1228" 
d="M416 705h-78v657h-178v72h432v-72h-176v-657zM756 705h-68v729h111l172 -592l170 592h112v-729h-73v628l-181 -628h-61l-182 628v-628z" />
    <glyph glyph-name="uni2126" unicode="&#x2126;" horiz-adv-x="808" 
d="M250 0h-268l18 86h190l-2 6q-106 130 -106 311q0 91 24 211l113 529q32 152 118.5 231.5t219.5 79.5q142 0 220.5 -70t78.5 -198q0 -50 -12 -109l-99 -471q-38 -183 -106 -299q-71 -118 -190 -219l-7 -2h187l-19 -86h-270l16 88q121 99 186.5 211.5t100.5 280.5l109 514
q10 58 10 84q0 92 -54.5 141t-154.5 49q-191 0 -240 -229l-120 -568q-25 -122 -25 -202q0 -157 98 -285z" />
    <glyph glyph-name="estimated" unicode="&#x212e;" horiz-adv-x="1681" 
d="M877 -20q-321 0 -551 217q-228 217 -228 520t228 520q230 217 551 217t548 -217q230 -217 230 -520v-19h-1256q-16 0 -16 -14v-395q0 -10 23 -43q74 -107 200 -164t275 -57q146 0 275 64t224 181h115q-111 -136 -273.5 -213t-344.5 -77zM399 739h961q14 0 14 15v401
q0 18 -24 45q-86 100 -209 154.5t-260 54.5q-258 0 -475 -217q-23 -23 -23 -45v-393q0 -15 16 -15z" />
    <glyph glyph-name="uni2153" unicode="&#x2153;" horiz-adv-x="1345" 
d="M326 0h-80l866 1434h78zM387 524h-82l168 768q-56 -39 -170 -45l6 62q141 6 211 125h62zM963 -20q-96 0 -146.5 45t-50.5 125q0 40 8 71l10 47h76l-12 -59q-6 -27 -6 -51q0 -107 119 -107q114 0 141 137l22 109q6 30 6 53q0 90 -98 90h-61l14 70h59q122 0 156 147l8 35
q9 30 9 60q0 106 -119 106q-113 0 -140 -131l-14 -63h-74l15 65q44 201 215 201q196 0 196 -168q0 -26 -8 -70l-6 -30q-35 -161 -149 -187v-2q75 -24 75 -127q0 -31 -6 -61l-22 -107q-43 -198 -217 -198z" />
    <glyph glyph-name="uni2154" unicode="&#x2154;" horiz-adv-x="1347" 
d="M498 524h-400l23 101q24 105 82 182t168 158q95 70 142.5 128.5t64.5 129.5q6 27 6 53q0 106 -115 106q-114 0 -141 -129l-19 -82h-73l18 84q46 199 219 199q95 0 143 -45t48 -125q0 -32 -9 -67q-36 -155 -237 -308q-103 -75 -151.5 -137t-67.5 -141l-9 -37h324zM328 0
h-80l866 1434h78zM965 -20q-96 0 -146.5 45t-50.5 125q0 40 8 71l10 47h76l-12 -59q-6 -27 -6 -51q0 -107 119 -107q114 0 141 137l22 109q7 35 7 53q0 90 -99 90h-61l14 70h60q121 0 155 147l8 35q9 30 9 60q0 106 -119 106q-112 0 -139 -131l-15 -63h-74l15 65
q44 201 215 201q196 0 196 -168q0 -26 -8 -70l-6 -30q-35 -161 -149 -187v-2q75 -24 75 -127q0 -31 -6 -61l-22 -107q-43 -198 -217 -198z" />
    <glyph glyph-name="oneeighth" unicode="&#x215b;" horiz-adv-x="1345" 
d="M326 0h-80l866 1434h78zM387 524h-82l168 768q-56 -39 -170 -45l6 62q141 6 211 125h62zM766 156q0 36 8 67l19 88q31 147 147 174v2q-72 38 -72 125q0 16 9 62l10 59q41 197 225 197q88 0 142.5 -45t54.5 -123q0 -23 -9 -72l-12 -59q-27 -139 -141 -166v-2
q80 -38 80 -133q0 -23 -8 -64l-19 -88q-21 -95 -78.5 -146.5t-148.5 -51.5q-95 0 -151 46t-56 130zM1067 508q116 0 143 123l15 69q6 27 6 50q0 108 -123 108q-116 0 -143 -131l-13 -70q-6 -24 -6 -45q0 -52 33.5 -78t87.5 -26zM975 51q120 0 147 135l21 99q6 27 6 49
q0 108 -133 108q-120 0 -144 -129l-20 -98q-6 -27 -6 -51q0 -113 129 -113z" />
    <glyph glyph-name="threeeighths" unicode="&#x215c;" horiz-adv-x="1347" 
d="M319 504q-96 0 -146 45t-50 125q0 40 8 71l10 48h76l-12 -60q-6 -27 -6 -51q0 -107 118 -107q115 0 142 138l22 108q6 30 6 53q0 91 -98 91h-61l14 69h59q121 0 156 148l8 35q8 27 8 59q0 106 -118 106q-113 0 -140 -131l-14 -63h-74l15 65q44 201 215 201
q196 0 196 -168q0 -25 -8 -69l-6 -31q-35 -160 -150 -187v-2q76 -24 76 -127q0 -31 -6 -61l-22 -107q-43 -198 -218 -198zM328 0h-80l866 1434h78zM768 156q0 36 8 67l19 88q31 147 147 174v2q-72 38 -72 125q0 16 9 62l10 59q41 197 225 197q88 0 142.5 -45t54.5 -123
q0 -28 -8 -72l-13 -59q-27 -139 -141 -166v-2q80 -38 80 -133q0 -23 -8 -64l-19 -88q-21 -95 -78.5 -146.5t-148.5 -51.5q-95 0 -151 46t-56 130zM1069 508q116 0 143 123l15 69q6 27 6 50q0 108 -123 108q-116 0 -143 -131l-13 -70q-6 -24 -6 -45q0 -52 33.5 -78t87.5 -26z
M977 51q120 0 147 135l21 99q6 27 6 49q0 108 -133 108q-120 0 -144 -129l-20 -98q-6 -27 -6 -51q0 -113 129 -113z" />
    <glyph glyph-name="fiveeighths" unicode="&#x215d;" horiz-adv-x="1347" 
d="M330 504q-97 0 -146 45.5t-49 126.5q0 25 8 69l7 29h75l-8 -39q-6 -24 -6 -49q0 -111 121 -111q110 0 137 134l41 192q6 30 6 55q0 105 -104 105q-92 0 -138 -98l-12 -27h-72l132 498h358l-16 -70h-287l-80 -303q54 69 145 69q156 0 156 -151q0 -45 -8 -76l-43 -201
q-43 -198 -217 -198zM328 0h-80l866 1434h78zM768 156q0 36 8 67l19 88q31 147 147 174v2q-72 38 -72 125q0 16 9 62l10 59q41 197 225 197q88 0 142.5 -45t54.5 -123q0 -28 -8 -72l-13 -59q-27 -139 -141 -166v-2q80 -38 80 -133q0 -23 -8 -64l-19 -88
q-21 -95 -78.5 -146.5t-148.5 -51.5q-95 0 -151 46t-56 130zM1069 508q116 0 143 123l15 69q6 27 6 50q0 108 -123 108q-116 0 -143 -131l-13 -70q-6 -24 -6 -45q0 -52 33.5 -78t87.5 -26zM977 51q120 0 147 135l21 99q6 27 6 49q0 108 -133 108q-120 0 -144 -129l-20 -98
q-6 -27 -6 -51q0 -113 129 -113z" />
    <glyph glyph-name="seveneighths" unicode="&#x215e;" horiz-adv-x="1345" 
d="M236 524h-89l449 840h-326l17 70h407l-14 -70zM326 0h-80l866 1434h78zM766 156q0 36 8 67l19 88q31 147 147 174v2q-72 38 -72 125q0 16 9 62l10 59q41 197 225 197q88 0 142.5 -45t54.5 -123q0 -23 -9 -72l-12 -59q-27 -139 -141 -166v-2q80 -38 80 -133q0 -23 -8 -64
l-19 -88q-21 -95 -78.5 -146.5t-148.5 -51.5q-95 0 -151 46t-56 130zM1067 508q116 0 143 123l15 69q6 27 6 50q0 108 -123 108q-116 0 -143 -131l-13 -70q-6 -24 -6 -45q0 -52 33.5 -78t87.5 -26zM975 51q120 0 147 135l21 99q6 27 6 49q0 108 -133 108q-120 0 -144 -129
l-20 -98q-6 -27 -6 -51q0 -113 129 -113z" />
    <glyph glyph-name="partialdiff" unicode="&#x2202;" horiz-adv-x="849" 
d="M422 -20q-155 0 -235.5 80t-80.5 233q0 28 3 43l16 237q24 314 289 314q93 0 161 -44.5t99 -125.5l26 377q2 8 2 39q0 235 -217 235q-204 0 -225 -248l-2 -26h-90l2 24q30 336 315 336q312 0 312 -313q0 -37 -2 -47l-56 -779q-12 -164 -93 -249.5t-224 -85.5zM420 66
q207 0 225 247l17 207q6 126 -56 202.5t-176 76.5q-196 0 -211 -236l-16 -235q0 -4 -1 -17t-1 -16q0 -229 219 -229z" />
    <glyph glyph-name="emptyset" unicode="&#x2205;" horiz-adv-x="1429" 
d="M330 205l-129 -133l-60 55l131 135q-157 186 -157 445q0 282 180 471q181 190 461 190q245 0 428 -160l127 133l59 -55l-131 -135q158 -187 158 -444q0 -282 -180 -471q-182 -191 -461 -191q-249 0 -426 160zM336 330l786 815q-147 141 -366 141q-240 0 -396 -166
q-155 -162 -155 -413q0 -225 131 -377zM756 127q237 0 393 164q158 169 158 416q0 227 -131 376l-787 -815q150 -141 367 -141z" />
    <glyph glyph-name="uni2206" unicode="&#x2206;" horiz-adv-x="821" 
d="M-61 0l602 1434h129l-4 -1434h-727zM573 1298l-505 -1214h501z" />
    <glyph glyph-name="product" unicode="&#x220f;" horiz-adv-x="952" 
d="M266 -317h-94v1751h690v-1751h-94v1665h-502v-1665z" />
    <glyph glyph-name="summation" unicode="&#x2211;" horiz-adv-x="835" 
d="M827 -317h-694v86l422 790l-422 789v86h694v-86h-587l417 -789l-417 -790h587v-86z" />
    <glyph glyph-name="minus" unicode="&#x2212;" 
d="M774 571h-684v86h684v-86z" />
    <glyph glyph-name="uni2215" unicode="&#x2215;" 
d="M35 0h-94l933 1434h95z" />
    <glyph glyph-name="uni2219" unicode="&#x2219;" horiz-adv-x="311" 
d="M266 645h-143v143h143v-143z" />
    <glyph glyph-name="radical" unicode="&#x221a;" horiz-adv-x="940" 
d="M559 -133h-102l-178 807h-177v86h256l156 -723l326 1397h88z" />
    <glyph glyph-name="infinity" unicode="&#x221e;" horiz-adv-x="1296" 
d="M375 307q-127 0 -200 86.5t-73 224.5q0 136 72 220t199 84q92 0 157.5 -50t133.5 -172h6q109 222 295 222q126 0 199 -87t73 -225q0 -136 -72 -219.5t-200 -83.5q-92 0 -156.5 49.5t-132.5 171.5h-6q-108 -221 -295 -221zM383 395q77 0 131 51.5t109 171.5
q-70 125 -121 170q-51 48 -123 48q-85 0 -134.5 -59.5t-49.5 -158.5q0 -101 50.5 -162t137.5 -61zM958 393q86 0 136.5 59t50.5 158q0 101 -51 162.5t-138 61.5q-74 0 -127.5 -50t-113.5 -174q69 -123 121 -172q51 -45 122 -45z" />
    <glyph glyph-name="integral" unicode="&#x222b;" 
d="M272 -348q-70 0 -114 20v90q40 -24 100 -24q125 0 125 147v1424q0 227 203 227q70 0 114 -20v-89q-44 23 -98 23q-125 0 -125 -147v-1424q0 -227 -205 -227z" />
    <glyph glyph-name="approxequal" unicode="&#x2248;" 
d="M154 657l-64 48q52 92 101 135t114 43q63 0 160 -66q95 -65 141 -65q45 0 78 30.5t76 106.5l63 -47q-52 -92 -102 -135t-115 -43q-60 0 -160 65l-57 39q-49 27 -82 27q-45 0 -78.5 -32t-74.5 -106zM154 342l-64 47q52 92 101 135t114 43t160 -65q97 -66 141 -66
q45 0 78 30.5t76 106.5l63 -47q-52 -92 -102 -135t-115 -43q-59 0 -160 66l-57 39q-47 26 -82 26q-45 0 -78.5 -32t-74.5 -105z" />
    <glyph glyph-name="notequal" unicode="&#x2260;" 
d="M217 193h-88l133 213h-151v86h200l156 245h-356v86h405l133 213h86l-131 -213h150v-86h-201l-156 -245h357v-86h-406z" />
    <glyph glyph-name="lessequal" unicode="&#x2264;" 
d="M725 514v-90l-602 248v80l602 247v-88l-487 -198zM725 246h-602v84h602v-84z" />
    <glyph glyph-name="greaterequal" unicode="&#x2265;" 
d="M741 672l-602 -248v90l488 199l-488 198v88l602 -247v-80zM741 246h-602v84h602v-84z" />
    <glyph glyph-name="lozenge" unicode="&#x25ca;" 
d="M483 -20h-43l-331 737l331 737h43l330 -737zM199 717l262 -600l262 600l-262 600z" />
    <glyph glyph-name="uniE0FF" unicode="&#xe0ff;" horiz-adv-x="1155" 
 />
    <glyph glyph-name="uniEFFD" unicode="&#xeffd;" horiz-adv-x="1155" 
 />
    <glyph glyph-name="uniF000" unicode="&#xf000;" horiz-adv-x="1155" 
 />
    <glyph glyph-name="uniF8FF" unicode="&#xf8ff;" horiz-adv-x="1298" 
d="M582 1012h120v237h320v-237h270v-312h-270v-122q0 -225 -129 -357q-128 -131 -338 -131q-208 0 -338 127q-129 129 -129 334t133 332q132 129 361 129zM702 575v125h-122q-81 0 -125 -41q-43 -41 -43 -106.5t41 -106.5q31 -31 76 -38t84.5 8t66 57.5t22.5 101.5z" />
    <glyph glyph-name="_1" horiz-adv-x="0" 
 />
    <glyph glyph-name="CR.001" horiz-adv-x="681" 
 />
    <glyph glyph-name="NULL" horiz-adv-x="0" 
 />
    <glyph glyph-name="uni00A40301" horiz-adv-x="532" 
d="M584 1559h-86l198 245h115zM88 -8q-93 0 -149 26l18 86q56 -26 129 -26q157 0 201 201l243 1155h97l-246 -1164q-58 -278 -293 -278z" />
    <glyph glyph-name="i.loclTRK" horiz-adv-x="315" 
d="M346 1182h-92l43 204h92zM96 0h-94l217 1016h94z" />
    <glyph glyph-name="germandbls.calt" horiz-adv-x="833" 
d="M307 1434h631l-16 -86l-363 -504q215 -21 215 -223q0 -48 -14 -119l-35 -164q-37 -179 -123.5 -258.5t-247.5 -79.5h-82l19 86h71q115 0 176.5 59t90.5 195l37 174q10 48 10 92q0 154 -184 154h-50l17 82l364 506h-438l-287 -1348h-96z" />
    <glyph glyph-name="zero.tf" 
d="M346 -20q-146 0 -224.5 70.5t-78.5 199.5q0 48 12 106l168 787q68 311 334 311q148 0 226.5 -70t78.5 -200q0 -48 -12 -107l-166 -788q-64 -309 -338 -309zM354 66q188 0 234 227l170 801q10 58 10 84q0 92 -54.5 141t-158.5 49q-190 0 -236 -229l-172 -799
q-10 -58 -10 -84q0 -190 217 -190z" />
    <glyph glyph-name="one.tf" 
d="M449 0h-97l269 1247q-93 -81 -275 -90l10 78q213 15 324 199h76z" />
    <glyph glyph-name="two.tf" 
d="M606 0h-616l28 127q40 179 136 301q102 124 268 250q163 123 236.5 209t97.5 196q10 62 10 93q0 192 -203 192q-191 0 -241 -231l-27 -125h-90l28 129q67 313 336 313q148 0 220.5 -70.5t72.5 -197.5q0 -52 -12 -111q-28 -124 -114 -229.5t-255 -235.5
q-165 -127 -250 -225q-87 -101 -114 -240l-13 -59h521z" />
    <glyph glyph-name="three.tf" 
d="M340 -20q-152 0 -227.5 70t-75.5 196q0 50 12 108l14 68h93l-19 -82q-10 -58 -10 -86q0 -188 213 -188q190 0 242 237l34 164q9 41 9 78q0 160 -174 160h-99l21 88h92q104 0 177 63.5t93 177.5l10 56q9 40 9 81q0 197 -205 197q-180 0 -232 -227l-22 -99h-92l22 101
q68 311 328 311q145 0 222 -71.5t77 -196.5q0 -52 -12 -107l-9 -37q-56 -250 -239 -290v-2q129 -46 129 -205q0 -28 -10 -86l-37 -170q-64 -309 -334 -309z" />
    <glyph glyph-name="four.tf" 
d="M539 0h-97l68 317h-498l19 89l700 1028h113l-219 -1031h123l-19 -86h-123zM713 1266l-586 -863h401z" />
    <glyph glyph-name="five.tf" 
d="M352 -20q-143 0 -223 68.5t-80 197.5q0 52 12 110l13 52h90l-14 -66q-11 -57 -11 -84q0 -95 57 -143.5t158 -48.5q187 0 236 229l61 293q11 57 11 98q0 176 -185 176q-79 0 -136.5 -45t-107.5 -143h-92l205 760h545l-19 -86h-456l-146 -521q109 121 246 121
q117 0 181.5 -63t64.5 -180q0 -61 -14 -121l-62 -293q-31 -150 -116 -230.5t-218 -80.5z" />
    <glyph glyph-name="six.tf" 
d="M352 -20q-147 0 -224 68.5t-77 197.5q0 50 12 108l168 785q70 315 334 315q142 0 220.5 -68.5t78.5 -197.5q0 -53 -10 -105h-92q12 55 12 99q0 186 -209 186q-188 0 -241 -244l-78 -370q89 133 254 133q124 0 191 -63t67 -181q0 -47 -15 -117l-51 -237
q-32 -152 -119 -230.5t-221 -78.5zM356 66q191 0 240 227l51 237q10 62 10 91q0 180 -190 180q-96 0 -167.5 -69t-96.5 -181l-47 -213q-11 -64 -11 -86q0 -186 211 -186z" />
    <glyph glyph-name="seven.tf" 
d="M184 0h-106l725 1348h-535l19 86h635l-19 -86z" />
    <glyph glyph-name="eight.tf" 
d="M342 -20q-141 0 -224 71.5t-83 200.5q0 48 12 104l27 138q49 225 237 266v2q-118 60 -118 209q0 28 10 90l20 90q67 303 344 303q141 0 220 -68t79 -194q0 -48 -12 -107l-18 -90q-49 -220 -230 -266h-2q129 -58 129 -215q0 -48 -8 -84l-31 -141q-64 -309 -352 -309z
M496 782q195 0 241 205l25 111q10 52 10 84q0 89 -56.5 137.5t-152.5 48.5q-199 0 -246 -225l-24 -109q-8 -44 -8 -71q0 -88 57.5 -134.5t153.5 -46.5zM348 66q202 0 254 237l31 143q6 35 6 66q0 93 -60 139.5t-163 46.5q-199 0 -246 -206l-29 -142q-10 -58 -10 -88
q0 -96 58.5 -146t158.5 -50z" />
    <glyph glyph-name="nine.tf" 
d="M344 -20q-142 0 -220.5 68.5t-78.5 197.5q0 52 10 104h92q-12 -56 -12 -98q0 -186 209 -186q190 0 242 243l78 371q-89 -133 -254 -133q-124 0 -191 63t-67 181q0 50 14 116l51 238q32 152 119 230.5t221 78.5q147 0 224 -68.5t77 -197.5q0 -50 -12 -109l-168 -784
q-70 -315 -334 -315zM442 633q96 0 168 69t97 181l47 213q10 58 10 86q0 186 -211 186q-191 0 -240 -227l-51 -238q-10 -62 -10 -90q0 -180 190 -180z" />
    <glyph glyph-name="zero.dnom" horiz-adv-x="589" 
d="M215 -20q-199 0 -199 174q0 34 9 69l108 506q47 201 217 201q96 0 147.5 -46t51.5 -128q0 -39 -8 -70l-109 -506q-47 -200 -217 -200zM215 51q112 0 139 131l111 518q6 27 6 50q0 108 -121 108q-112 0 -139 -131l-109 -518q-6 -27 -6 -51q0 -107 119 -107z" />
    <glyph glyph-name="one.dnom" horiz-adv-x="589" 
d="M276 0h-81l167 768q-56 -39 -169 -45l6 61q141 6 211 125h61z" />
    <glyph glyph-name="two.dnom" horiz-adv-x="589" 
d="M385 0h-399l22 100q24 105 82 182t168 158q95 70 142.5 128.5t64.5 129.5q6 27 6 54q0 106 -115 106q-114 0 -141 -129l-18 -82h-74l18 84q46 199 219 199q95 0 143 -45t48 -125q0 -37 -8 -68q-35 -153 -238 -307q-103 -75 -151.5 -137t-67.5 -142l-8 -36h323z" />
    <glyph glyph-name="three.dnom" horiz-adv-x="589" 
d="M207 -20q-96 0 -146.5 45t-50.5 125q0 40 8 71l11 47h75l-12 -59q-6 -27 -6 -51q0 -107 119 -107q114 0 141 137l23 109q6 30 6 53q0 90 -99 90h-61l14 70h60q121 0 155 147l9 35q8 27 8 60q0 106 -119 106q-112 0 -139 -131l-15 -63h-73l14 65q44 201 215 201
q197 0 197 -168q0 -20 -9 -70l-6 -30q-35 -161 -149 -187v-2q76 -24 76 -127q0 -26 -7 -61l-22 -107q-43 -198 -217 -198z" />
    <glyph glyph-name="four.dnom" horiz-adv-x="589" 
d="M346 0h-80l41 190h-309l14 72l439 647h90l-140 -649h76l-14 -70h-76zM434 768l-344 -508h232z" />
    <glyph glyph-name="five.dnom" horiz-adv-x="589" 
d="M217 -20q-97 0 -145.5 45.5t-48.5 126.5q0 25 8 69l6 29h76l-9 -39q-6 -24 -6 -49q0 -111 121 -111q110 0 137 133l41 193q6 30 6 55q0 105 -104 105q-91 0 -137 -99l-12 -26h-72l131 497h358l-16 -69h-287l-80 -303q54 69 146 69q155 0 155 -151q0 -45 -8 -76l-43 -201
q-43 -198 -217 -198z" />
    <glyph glyph-name="six.dnom" horiz-adv-x="589" 
d="M221 -20q-198 0 -198 174q0 38 8 69l110 506q44 201 221 201q193 0 193 -174q0 -28 -6 -62h-76q6 35 6 60q0 104 -119 104q-116 0 -143 -141l-49 -228q55 76 149 76q76 0 121 -41.5t45 -115.5q0 -39 -8 -70l-35 -158q-47 -200 -219 -200zM221 51q109 0 139 131l35 154
q6 27 6 53q0 105 -114 105q-55 0 -94.5 -39t-53.5 -103l-30 -143q-7 -31 -7 -51q0 -107 119 -107z" />
    <glyph glyph-name="seven.dnom" horiz-adv-x="589" 
d="M123 0h-88l448 840h-325l16 69h408l-15 -69z" />
    <glyph glyph-name="eight.dnom" horiz-adv-x="589" 
d="M10 156q0 36 8 67l19 88q31 147 147 174v2q-71 38 -71 125q0 21 8 62l10 59q41 197 225 197q88 0 142.5 -45t54.5 -123q0 -28 -8 -72l-13 -59q-27 -139 -141 -166v-2q80 -38 80 -133q0 -23 -8 -64l-19 -88q-21 -95 -78.5 -146.5t-148.5 -51.5q-95 0 -151 46t-56 130z
M311 508q117 0 144 123l14 69q6 27 6 50q0 108 -123 108q-116 0 -143 -131l-12 -70q-7 -28 -7 -45q0 -52 33.5 -78t87.5 -26zM219 51q121 0 148 135l20 99q6 27 6 49q0 108 -133 108q-119 0 -143 -129l-21 -98q-6 -27 -6 -51q0 -113 129 -113z" />
    <glyph glyph-name="nine.dnom" horiz-adv-x="589" 
d="M203 -20q-193 0 -193 174q0 26 6 61h76q-6 -35 -6 -59q0 -105 119 -105q116 0 143 142l49 227q-55 -76 -149 -76q-76 0 -121 42t-45 116q0 38 8 69l35 158q47 201 219 201q199 0 199 -174q0 -39 -8 -70l-111 -506q-44 -200 -221 -200zM279 416q55 0 94 38.5t53 102.5
l31 143q6 27 6 52q0 106 -119 106q-109 0 -139 -131l-35 -154q-6 -27 -6 -53q0 -104 115 -104z" />
    <glyph glyph-name="zero.numr" horiz-adv-x="587" 
d="M326 504q-199 0 -199 174q0 39 8 70l109 505q47 201 217 201q96 0 147 -45.5t51 -128.5q0 -39 -8 -70l-108 -505q-47 -201 -217 -201zM326 575q112 0 139 132l110 518q7 31 7 49q0 108 -121 108q-112 0 -139 -131l-109 -518q-6 -27 -6 -51q0 -107 119 -107z" />
    <glyph glyph-name="one.numr" horiz-adv-x="589" 
d="M387 524h-82l168 768q-56 -39 -170 -45l6 62q141 6 211 125h62z" />
    <glyph glyph-name="two.numr" horiz-adv-x="591" 
d="M498 524h-400l23 101q24 105 82 182t168 158q95 70 142.5 128.5t64.5 129.5q6 27 6 53q0 106 -115 106q-114 0 -141 -129l-19 -82h-73l18 84q46 199 219 199q95 0 143 -45t48 -125q0 -32 -9 -67q-36 -155 -237 -308q-103 -75 -151.5 -137t-67.5 -141l-9 -37h324z" />
    <glyph glyph-name="three.numr" horiz-adv-x="591" 
d="M319 504q-96 0 -146 45t-50 125q0 40 8 71l10 48h76l-12 -60q-6 -27 -6 -51q0 -107 118 -107q115 0 142 138l22 108q6 30 6 53q0 91 -98 91h-61l14 69h59q121 0 156 148l8 35q8 27 8 59q0 106 -118 106q-113 0 -140 -131l-14 -63h-74l15 65q44 201 215 201
q196 0 196 -168q0 -25 -8 -69l-6 -31q-35 -160 -150 -187v-2q76 -24 76 -127q0 -31 -6 -61l-22 -107q-43 -198 -218 -198z" />
    <glyph glyph-name="four.numr" horiz-adv-x="591" 
d="M459 524h-80l41 191h-309l14 71l438 648h90l-139 -650h76l-15 -69h-75zM547 1292l-344 -508h231z" />
    <glyph glyph-name="five.numr" horiz-adv-x="591" 
d="M330 504q-97 0 -146 45.5t-49 126.5q0 25 8 69l7 29h75l-8 -39q-6 -24 -6 -49q0 -111 121 -111q110 0 137 134l41 192q6 30 6 55q0 105 -104 105q-92 0 -138 -98l-12 -27h-72l132 498h358l-16 -70h-287l-80 -303q54 69 145 69q156 0 156 -151q0 -45 -8 -76l-43 -201
q-43 -198 -217 -198z" />
    <glyph glyph-name="six.numr" horiz-adv-x="587" 
d="M332 504q-199 0 -199 174q0 39 8 70l111 505q44 201 221 201q193 0 193 -174q0 -21 -7 -61h-75q6 35 6 59q0 104 -119 104q-116 0 -143 -141l-49 -227q55 76 149 76q76 0 121 -42t45 -116q0 -39 -8 -70l-35 -157q-47 -201 -219 -201zM332 575q109 0 139 132l35 153
q6 27 6 53q0 105 -115 105q-55 0 -94 -38.5t-53 -102.5l-31 -144q-6 -27 -6 -51q0 -107 119 -107z" />
    <glyph glyph-name="seven.numr" horiz-adv-x="589" 
d="M236 524h-89l449 840h-326l17 70h407l-14 -70z" />
    <glyph glyph-name="eight.numr" horiz-adv-x="589" 
d="M121 680q0 37 8 68l18 88q31 147 148 174v2q-72 38 -72 125q0 20 8 61l11 59q41 197 225 197q88 0 142.5 -45t54.5 -123q0 -22 -9 -72l-12 -59q-27 -139 -141 -166v-2q80 -38 80 -133q0 -16 -9 -63l-18 -89q-21 -95 -78.5 -146.5t-148.5 -51.5q-95 0 -151 46t-56 130z
M422 1032q116 0 143 123l15 70q6 27 6 49q0 108 -123 108q-117 0 -144 -131l-12 -69q-6 -24 -6 -45q0 -52 33.5 -78.5t87.5 -26.5zM330 575q120 0 147 136l21 98q6 27 6 49q0 109 -133 109q-120 0 -144 -129l-20 -99q-6 -27 -6 -51q0 -113 129 -113z" />
    <glyph glyph-name="nine.numr" horiz-adv-x="587" 
d="M313 504q-192 0 -192 174q0 26 6 61h76q-6 -35 -6 -59q0 -105 118 -105q117 0 144 142l49 227q-55 -76 -150 -76q-76 0 -120.5 42t-44.5 116q0 39 8 70l35 157q47 201 219 201q198 0 198 -174q0 -39 -8 -70l-110 -505q-44 -201 -222 -201zM389 940q55 0 94.5 38.5
t53.5 102.5l30 144q6 27 6 51q0 106 -118 106q-110 0 -140 -131l-34 -153q-7 -32 -7 -54q0 -104 115 -104z" />
    <glyph glyph-name="caroncomb.alt" horiz-adv-x="0" 
d="M113 1085h-43l75 170h-30l39 179h88l-35 -170z" />
    <glyph glyph-name="caron.alt" horiz-adv-x="1024" 
d="M625 1085h-43l75 170h-30l39 179h88l-35 -170z" />
    </font>
</defs>
</svg>
